G75*
%MOIN*%
%OFA0B0*%
%FSLAX25Y25*%
%IPPOS*%
%LPD*%
%AMOC8*
5,1,8,0,0,1.08239X$1,22.5*
%
%ADD10C,0.00000*%
%ADD11C,0.00400*%
%ADD12C,0.00300*%
%ADD13C,0.00600*%
%ADD14C,0.01000*%
%ADD15R,0.02400X0.03400*%
%ADD16C,0.00800*%
%ADD17C,0.00200*%
%ADD18C,0.01600*%
%ADD19C,0.00500*%
%ADD20R,0.10000X0.02000*%
D10*
X0006800Y0007548D02*
X0006800Y0204398D01*
X0203650Y0204398D01*
X0203650Y0007548D01*
X0006800Y0007548D01*
D11*
X0014996Y0009466D02*
X0014996Y0012068D01*
X0015863Y0012936D01*
X0017598Y0012936D01*
X0018465Y0012068D01*
X0018465Y0009466D01*
X0018465Y0011201D02*
X0020200Y0012936D01*
X0020200Y0014622D02*
X0020200Y0018092D01*
X0019333Y0019779D02*
X0020200Y0020646D01*
X0020200Y0022381D01*
X0019333Y0023248D01*
X0018465Y0023248D01*
X0017598Y0022381D01*
X0017598Y0020646D01*
X0016730Y0019779D01*
X0015863Y0019779D01*
X0014996Y0020646D01*
X0014996Y0022381D01*
X0015863Y0023248D01*
X0014996Y0024935D02*
X0020200Y0024935D01*
X0020200Y0028405D01*
X0017598Y0026670D02*
X0017598Y0024935D01*
X0014996Y0024935D02*
X0014996Y0028405D01*
X0014996Y0030092D02*
X0014996Y0033561D01*
X0014996Y0031826D02*
X0020200Y0031826D01*
X0014996Y0018092D02*
X0014996Y0014622D01*
X0020200Y0014622D01*
X0017598Y0014622D02*
X0017598Y0016357D01*
X0020200Y0009466D02*
X0014996Y0009466D01*
X0059996Y0009622D02*
X0064333Y0009622D01*
X0065200Y0010490D01*
X0065200Y0012225D01*
X0064333Y0013092D01*
X0059996Y0013092D01*
X0060863Y0014779D02*
X0061730Y0014779D01*
X0062598Y0015646D01*
X0062598Y0017381D01*
X0063465Y0018248D01*
X0064333Y0018248D01*
X0065200Y0017381D01*
X0065200Y0015646D01*
X0064333Y0014779D01*
X0060863Y0014779D02*
X0059996Y0015646D01*
X0059996Y0017381D01*
X0060863Y0018248D01*
X0059996Y0019935D02*
X0065200Y0019935D01*
X0065200Y0023405D01*
X0065200Y0025092D02*
X0059996Y0025092D01*
X0059996Y0027694D01*
X0060863Y0028561D01*
X0062598Y0028561D01*
X0063465Y0027694D01*
X0063465Y0025092D01*
X0063465Y0026826D02*
X0065200Y0028561D01*
X0059996Y0023405D02*
X0059996Y0019935D01*
X0062598Y0019935D02*
X0062598Y0021670D01*
X0101000Y0050248D02*
X0101000Y0055452D01*
X0103602Y0055452D01*
X0104470Y0054585D01*
X0104470Y0052850D01*
X0103602Y0051983D01*
X0101000Y0051983D01*
X0106156Y0050248D02*
X0107891Y0050248D01*
X0107024Y0050248D02*
X0107024Y0055452D01*
X0107891Y0055452D02*
X0106156Y0055452D01*
X0109594Y0054585D02*
X0109594Y0051115D01*
X0110461Y0050248D01*
X0112196Y0050248D01*
X0113064Y0051115D01*
X0114750Y0051115D02*
X0115618Y0050248D01*
X0117353Y0050248D01*
X0118220Y0051115D01*
X0118220Y0051983D01*
X0117353Y0052850D01*
X0116485Y0052850D01*
X0117353Y0052850D02*
X0118220Y0053718D01*
X0118220Y0054585D01*
X0117353Y0055452D01*
X0115618Y0055452D01*
X0114750Y0054585D01*
X0113064Y0054585D02*
X0112196Y0055452D01*
X0110461Y0055452D01*
X0109594Y0054585D01*
X0119907Y0054585D02*
X0120774Y0055452D01*
X0122509Y0055452D01*
X0123376Y0054585D01*
X0123376Y0053718D01*
X0119907Y0050248D01*
X0123376Y0050248D01*
X0184496Y0152748D02*
X0184496Y0155817D01*
X0185263Y0155817D01*
X0188333Y0152748D01*
X0189100Y0152748D01*
X0189100Y0155817D01*
X0188333Y0157352D02*
X0186798Y0157352D01*
X0186031Y0158119D01*
X0186031Y0159654D01*
X0186798Y0160421D01*
X0187565Y0160421D01*
X0187565Y0157352D01*
X0188333Y0157352D02*
X0189100Y0158119D01*
X0189100Y0159654D01*
X0189100Y0161956D02*
X0186031Y0161956D01*
X0186031Y0164258D01*
X0186798Y0165025D01*
X0189100Y0165025D01*
X0191229Y0166560D02*
X0191996Y0166560D01*
X0193531Y0166560D02*
X0196600Y0166560D01*
X0196600Y0167327D02*
X0196600Y0165792D01*
X0196600Y0168862D02*
X0193531Y0168862D01*
X0193531Y0171164D01*
X0194298Y0171931D01*
X0196600Y0171931D01*
X0195833Y0173466D02*
X0196600Y0174233D01*
X0196600Y0176535D01*
X0197367Y0176535D02*
X0193531Y0176535D01*
X0193531Y0174233D01*
X0194298Y0173466D01*
X0195833Y0173466D01*
X0198135Y0175000D02*
X0198135Y0175768D01*
X0197367Y0176535D01*
X0196600Y0182674D02*
X0193531Y0185743D01*
X0192763Y0185743D01*
X0191996Y0184975D01*
X0191996Y0183441D01*
X0192763Y0182674D01*
X0189100Y0183441D02*
X0186031Y0183441D01*
X0186031Y0185743D01*
X0186798Y0186510D01*
X0189100Y0186510D01*
X0189100Y0188045D02*
X0184496Y0188045D01*
X0186031Y0190347D02*
X0187565Y0188045D01*
X0189100Y0190347D01*
X0189100Y0191881D02*
X0189100Y0193416D01*
X0189100Y0192649D02*
X0186031Y0192649D01*
X0186031Y0191881D01*
X0184496Y0192649D02*
X0183729Y0192649D01*
X0186031Y0194951D02*
X0188333Y0194951D01*
X0189100Y0195718D01*
X0188333Y0196485D01*
X0189100Y0197253D01*
X0188333Y0198020D01*
X0186031Y0198020D01*
X0191996Y0196485D02*
X0191996Y0199555D01*
X0192763Y0199555D01*
X0195833Y0196485D01*
X0196600Y0196485D01*
X0196600Y0194951D02*
X0196600Y0191881D01*
X0196600Y0193416D02*
X0191996Y0193416D01*
X0193531Y0191881D01*
X0192763Y0190347D02*
X0191996Y0189579D01*
X0191996Y0188045D01*
X0192763Y0187277D01*
X0195833Y0187277D01*
X0192763Y0190347D01*
X0195833Y0190347D01*
X0196600Y0189579D01*
X0196600Y0188045D01*
X0195833Y0187277D01*
X0196600Y0185743D02*
X0196600Y0182674D01*
X0189100Y0181906D02*
X0189100Y0179604D01*
X0188333Y0178837D01*
X0187565Y0179604D01*
X0187565Y0181906D01*
X0186798Y0181906D02*
X0189100Y0181906D01*
X0186798Y0181906D02*
X0186031Y0181139D01*
X0186031Y0179604D01*
X0186031Y0177302D02*
X0188333Y0177302D01*
X0189100Y0176535D01*
X0188333Y0175768D01*
X0189100Y0175000D01*
X0188333Y0174233D01*
X0186031Y0174233D01*
X0184496Y0172698D02*
X0184496Y0171164D01*
X0184496Y0171931D02*
X0189100Y0171931D01*
X0189100Y0171164D02*
X0189100Y0172698D01*
X0193531Y0166560D02*
X0193531Y0165792D01*
X0193531Y0164258D02*
X0193531Y0163491D01*
X0195065Y0161956D01*
X0193531Y0161956D02*
X0196600Y0161956D01*
X0195833Y0160421D02*
X0196600Y0159654D01*
X0196600Y0157352D01*
X0198135Y0157352D02*
X0193531Y0157352D01*
X0193531Y0159654D01*
X0194298Y0160421D01*
X0195833Y0160421D01*
X0195833Y0155817D02*
X0196600Y0155050D01*
X0196600Y0153515D01*
X0195833Y0152748D01*
X0194298Y0153515D02*
X0194298Y0155050D01*
X0195065Y0155817D01*
X0195833Y0155817D01*
X0194298Y0153515D02*
X0193531Y0152748D01*
X0192763Y0152748D01*
X0191996Y0153515D01*
X0191996Y0155050D01*
X0192763Y0155817D01*
D12*
X0193035Y0143901D02*
X0190566Y0143901D01*
X0190566Y0142050D01*
X0191801Y0142667D01*
X0192418Y0142667D01*
X0193035Y0142050D01*
X0193035Y0140815D01*
X0192418Y0140198D01*
X0191183Y0140198D01*
X0190566Y0140815D01*
X0189352Y0140198D02*
X0186883Y0140198D01*
X0188118Y0140198D02*
X0188118Y0143901D01*
X0186883Y0142667D01*
X0185669Y0142667D02*
X0185052Y0142050D01*
X0183200Y0142050D01*
X0183200Y0143901D02*
X0183200Y0140198D01*
X0185052Y0140198D01*
X0185669Y0140815D01*
X0185669Y0141432D01*
X0185052Y0142050D01*
X0185669Y0142667D02*
X0185669Y0143284D01*
X0185052Y0143901D01*
X0183200Y0143901D01*
X0183200Y0133901D02*
X0185052Y0133901D01*
X0185669Y0133284D01*
X0185669Y0132667D01*
X0185052Y0132050D01*
X0183200Y0132050D01*
X0183200Y0133901D02*
X0183200Y0130198D01*
X0185052Y0130198D01*
X0185669Y0130815D01*
X0185669Y0131432D01*
X0185052Y0132050D01*
X0186883Y0132667D02*
X0188118Y0133901D01*
X0188118Y0130198D01*
X0189352Y0130198D02*
X0186883Y0130198D01*
X0190566Y0132050D02*
X0193035Y0132050D01*
X0192418Y0133901D02*
X0190566Y0132050D01*
X0192418Y0133901D02*
X0192418Y0130198D01*
X0192418Y0123901D02*
X0191183Y0123901D01*
X0190566Y0123284D01*
X0191801Y0122050D02*
X0192418Y0122050D01*
X0193035Y0121432D01*
X0193035Y0120815D01*
X0192418Y0120198D01*
X0191183Y0120198D01*
X0190566Y0120815D01*
X0189352Y0120198D02*
X0186883Y0120198D01*
X0188118Y0120198D02*
X0188118Y0123901D01*
X0186883Y0122667D01*
X0185669Y0122667D02*
X0185052Y0122050D01*
X0183200Y0122050D01*
X0183200Y0123901D02*
X0183200Y0120198D01*
X0185052Y0120198D01*
X0185669Y0120815D01*
X0185669Y0121432D01*
X0185052Y0122050D01*
X0185669Y0122667D02*
X0185669Y0123284D01*
X0185052Y0123901D01*
X0183200Y0123901D01*
X0192418Y0123901D02*
X0193035Y0123284D01*
X0193035Y0122667D01*
X0192418Y0122050D01*
X0192485Y0113901D02*
X0191250Y0113901D01*
X0190633Y0113284D01*
X0190633Y0112667D01*
X0191250Y0112050D01*
X0193102Y0112050D01*
X0193102Y0113284D02*
X0193102Y0110815D01*
X0192485Y0110198D01*
X0191250Y0110198D01*
X0190633Y0110815D01*
X0189419Y0110815D02*
X0189419Y0111432D01*
X0188802Y0112050D01*
X0186950Y0112050D01*
X0186950Y0113901D02*
X0186950Y0110198D01*
X0188802Y0110198D01*
X0189419Y0110815D01*
X0188802Y0112050D02*
X0189419Y0112667D01*
X0189419Y0113284D01*
X0188802Y0113901D01*
X0186950Y0113901D01*
X0192485Y0113901D02*
X0193102Y0113284D01*
X0192485Y0103901D02*
X0191250Y0103901D01*
X0190633Y0103284D01*
X0190633Y0102667D01*
X0191250Y0102050D01*
X0192485Y0102050D01*
X0193102Y0101432D01*
X0193102Y0100815D01*
X0192485Y0100198D01*
X0191250Y0100198D01*
X0190633Y0100815D01*
X0190633Y0101432D01*
X0191250Y0102050D01*
X0192485Y0102050D02*
X0193102Y0102667D01*
X0193102Y0103284D01*
X0192485Y0103901D01*
X0189419Y0103284D02*
X0189419Y0102667D01*
X0188802Y0102050D01*
X0186950Y0102050D01*
X0186950Y0103901D02*
X0186950Y0100198D01*
X0188802Y0100198D01*
X0189419Y0100815D01*
X0189419Y0101432D01*
X0188802Y0102050D01*
X0189419Y0103284D02*
X0188802Y0103901D01*
X0186950Y0103901D01*
X0186950Y0093901D02*
X0188802Y0093901D01*
X0189419Y0093284D01*
X0189419Y0092667D01*
X0188802Y0092050D01*
X0186950Y0092050D01*
X0186950Y0093901D02*
X0186950Y0090198D01*
X0188802Y0090198D01*
X0189419Y0090815D01*
X0189419Y0091432D01*
X0188802Y0092050D01*
X0190633Y0090815D02*
X0190633Y0090198D01*
X0190633Y0090815D02*
X0193102Y0093284D01*
X0193102Y0093901D01*
X0190633Y0093901D01*
X0190633Y0083901D02*
X0190633Y0081432D01*
X0191868Y0080198D01*
X0193102Y0081432D01*
X0193102Y0083901D01*
X0189419Y0083901D02*
X0186950Y0083901D01*
X0186950Y0082050D01*
X0188184Y0082667D01*
X0188802Y0082667D01*
X0189419Y0082050D01*
X0189419Y0080815D01*
X0188802Y0080198D01*
X0187567Y0080198D01*
X0186950Y0080815D01*
X0186883Y0073901D02*
X0189352Y0070198D01*
X0189352Y0073901D01*
X0190566Y0073901D02*
X0192418Y0073901D01*
X0193035Y0073284D01*
X0193035Y0070815D01*
X0192418Y0070198D01*
X0190566Y0070198D01*
X0190566Y0073901D01*
X0186883Y0073901D02*
X0186883Y0070198D01*
X0185669Y0070815D02*
X0185669Y0072050D01*
X0184434Y0072050D01*
X0183200Y0073284D02*
X0183200Y0070815D01*
X0183817Y0070198D01*
X0185052Y0070198D01*
X0185669Y0070815D01*
X0185669Y0073284D02*
X0185052Y0073901D01*
X0183817Y0073901D01*
X0183200Y0073284D01*
X0157618Y0034901D02*
X0156384Y0034901D01*
X0155767Y0034284D01*
X0154552Y0034284D02*
X0152084Y0031815D01*
X0152701Y0031198D01*
X0153935Y0031198D01*
X0154552Y0031815D01*
X0154552Y0034284D01*
X0153935Y0034901D01*
X0152701Y0034901D01*
X0152084Y0034284D01*
X0152084Y0031815D01*
X0150869Y0034284D02*
X0148401Y0031815D01*
X0148401Y0031198D01*
X0147186Y0031198D02*
X0144717Y0031198D01*
X0145952Y0031198D02*
X0145952Y0034901D01*
X0144717Y0033667D01*
X0143503Y0034284D02*
X0143503Y0033050D01*
X0142886Y0032432D01*
X0141034Y0032432D01*
X0141034Y0031198D02*
X0141034Y0034901D01*
X0142886Y0034901D01*
X0143503Y0034284D01*
X0139820Y0034284D02*
X0139203Y0034901D01*
X0137968Y0034901D01*
X0137351Y0034284D01*
X0137351Y0031815D01*
X0137968Y0031198D01*
X0139203Y0031198D01*
X0139820Y0031815D01*
X0136137Y0031198D02*
X0136137Y0034901D01*
X0134902Y0033667D01*
X0133668Y0034901D01*
X0133668Y0031198D01*
X0124736Y0033401D02*
X0122267Y0033401D01*
X0122267Y0029698D01*
X0121052Y0029698D02*
X0121052Y0032167D01*
X0122267Y0031550D02*
X0123501Y0031550D01*
X0121052Y0029698D02*
X0119201Y0029698D01*
X0118584Y0030315D01*
X0118584Y0032167D01*
X0116135Y0033401D02*
X0116135Y0029698D01*
X0114901Y0029698D02*
X0117369Y0029698D01*
X0114901Y0032167D02*
X0116135Y0033401D01*
X0113676Y0030315D02*
X0113676Y0029698D01*
X0113059Y0029698D01*
X0113059Y0030315D01*
X0113676Y0030315D01*
X0111845Y0030315D02*
X0111845Y0032784D01*
X0109376Y0030315D01*
X0109993Y0029698D01*
X0111227Y0029698D01*
X0111845Y0030315D01*
X0111845Y0032784D02*
X0111227Y0033401D01*
X0109993Y0033401D01*
X0109376Y0032784D01*
X0109376Y0030315D01*
X0131947Y0045432D02*
X0135650Y0045432D01*
X0135650Y0044198D02*
X0135650Y0046667D01*
X0135033Y0047881D02*
X0132564Y0050350D01*
X0135033Y0050350D01*
X0135650Y0049733D01*
X0135650Y0048498D01*
X0135033Y0047881D01*
X0132564Y0047881D01*
X0131947Y0048498D01*
X0131947Y0049733D01*
X0132564Y0050350D01*
X0133181Y0051564D02*
X0135033Y0051564D01*
X0135650Y0052182D01*
X0135650Y0054033D01*
X0133181Y0054033D01*
X0133798Y0055247D02*
X0133798Y0056482D01*
X0131947Y0057716D02*
X0131947Y0055247D01*
X0135650Y0055247D01*
X0131947Y0045432D02*
X0133181Y0044198D01*
X0148401Y0034901D02*
X0150869Y0034901D01*
X0150869Y0034284D01*
X0155767Y0031198D02*
X0158236Y0033667D01*
X0158236Y0034284D01*
X0157618Y0034901D01*
X0158236Y0031198D02*
X0155767Y0031198D01*
X0083501Y0081550D02*
X0082267Y0081550D01*
X0081052Y0082167D02*
X0081052Y0079698D01*
X0079201Y0079698D01*
X0078584Y0080315D01*
X0078584Y0082167D01*
X0076135Y0083401D02*
X0076135Y0079698D01*
X0074901Y0079698D02*
X0077369Y0079698D01*
X0074901Y0082167D02*
X0076135Y0083401D01*
X0073676Y0080315D02*
X0073676Y0079698D01*
X0073059Y0079698D01*
X0073059Y0080315D01*
X0073676Y0080315D01*
X0071845Y0080315D02*
X0071845Y0082784D01*
X0069376Y0080315D01*
X0069993Y0079698D01*
X0071227Y0079698D01*
X0071845Y0080315D01*
X0071845Y0082784D02*
X0071227Y0083401D01*
X0069993Y0083401D01*
X0069376Y0082784D01*
X0069376Y0080315D01*
X0065650Y0076630D02*
X0064416Y0074779D01*
X0063181Y0076630D01*
X0061947Y0074779D02*
X0065650Y0074779D01*
X0065033Y0073564D02*
X0065650Y0072947D01*
X0065650Y0071713D01*
X0065033Y0071096D01*
X0062564Y0073564D01*
X0065033Y0073564D01*
X0062564Y0073564D02*
X0061947Y0072947D01*
X0061947Y0071713D01*
X0062564Y0071096D01*
X0065033Y0071096D01*
X0065650Y0069881D02*
X0065650Y0067412D01*
X0065650Y0068647D02*
X0061947Y0068647D01*
X0063181Y0067412D01*
X0050650Y0067412D02*
X0050650Y0069881D01*
X0050650Y0068647D02*
X0046947Y0068647D01*
X0048181Y0067412D01*
X0047564Y0071096D02*
X0046947Y0071713D01*
X0046947Y0072947D01*
X0047564Y0073564D01*
X0050033Y0071096D01*
X0050650Y0071713D01*
X0050650Y0072947D01*
X0050033Y0073564D01*
X0047564Y0073564D01*
X0046947Y0074779D02*
X0050650Y0074779D01*
X0049416Y0074779D02*
X0048181Y0076630D01*
X0049416Y0074779D02*
X0050650Y0076630D01*
X0050033Y0071096D02*
X0047564Y0071096D01*
X0028035Y0070815D02*
X0028035Y0073284D01*
X0027418Y0073901D01*
X0025566Y0073901D01*
X0025566Y0070198D01*
X0027418Y0070198D01*
X0028035Y0070815D01*
X0024352Y0070198D02*
X0024352Y0073901D01*
X0021883Y0073901D02*
X0024352Y0070198D01*
X0021883Y0070198D02*
X0021883Y0073901D01*
X0020669Y0073284D02*
X0020052Y0073901D01*
X0018817Y0073901D01*
X0018200Y0073284D01*
X0018200Y0070815D01*
X0018817Y0070198D01*
X0020052Y0070198D01*
X0020669Y0070815D01*
X0020669Y0072050D01*
X0019434Y0072050D01*
X0018817Y0080198D02*
X0018200Y0080815D01*
X0018817Y0080198D02*
X0020052Y0080198D01*
X0020669Y0080815D01*
X0020669Y0081432D01*
X0020052Y0082050D01*
X0019434Y0082050D01*
X0020052Y0082050D02*
X0020669Y0082667D01*
X0020669Y0083284D01*
X0020052Y0083901D01*
X0018817Y0083901D01*
X0018200Y0083284D01*
X0021883Y0080815D02*
X0022500Y0080815D01*
X0022500Y0080198D01*
X0021883Y0080198D01*
X0021883Y0080815D01*
X0023725Y0080815D02*
X0024342Y0080198D01*
X0025576Y0080198D01*
X0026193Y0080815D01*
X0026193Y0081432D01*
X0025576Y0082050D01*
X0024959Y0082050D01*
X0025576Y0082050D02*
X0026193Y0082667D01*
X0026193Y0083284D01*
X0025576Y0083901D01*
X0024342Y0083901D01*
X0023725Y0083284D01*
X0027408Y0083901D02*
X0027408Y0081432D01*
X0028642Y0080198D01*
X0029877Y0081432D01*
X0029877Y0083901D01*
X0029249Y0090198D02*
X0031718Y0090198D01*
X0032933Y0090198D02*
X0032933Y0093901D01*
X0035401Y0093901D01*
X0036616Y0093901D02*
X0036616Y0090198D01*
X0038467Y0090198D01*
X0039084Y0090815D01*
X0039084Y0093284D01*
X0038467Y0093901D01*
X0036616Y0093901D01*
X0035401Y0090198D02*
X0032933Y0090198D01*
X0032933Y0092050D02*
X0034167Y0092050D01*
X0029249Y0093901D02*
X0029249Y0090198D01*
X0025566Y0090198D02*
X0028035Y0093901D01*
X0024352Y0092050D02*
X0021883Y0092050D01*
X0023735Y0093901D01*
X0023735Y0090198D01*
X0020669Y0090198D02*
X0020669Y0092667D01*
X0019434Y0093901D01*
X0018200Y0092667D01*
X0018200Y0090198D01*
X0018200Y0092050D02*
X0020669Y0092050D01*
X0020052Y0101448D02*
X0018200Y0101448D01*
X0018200Y0105151D01*
X0020052Y0105151D01*
X0020669Y0104534D01*
X0020669Y0103917D01*
X0020052Y0103300D01*
X0018200Y0103300D01*
X0020052Y0103300D02*
X0020669Y0102682D01*
X0020669Y0102065D01*
X0020052Y0101448D01*
X0021883Y0103300D02*
X0024352Y0103300D01*
X0023735Y0105151D02*
X0023735Y0101448D01*
X0025566Y0101448D02*
X0028035Y0105151D01*
X0029249Y0105151D02*
X0029249Y0102065D01*
X0029867Y0101448D01*
X0031101Y0101448D01*
X0031718Y0102065D01*
X0031718Y0105151D01*
X0032933Y0104534D02*
X0032933Y0103917D01*
X0033550Y0103300D01*
X0034784Y0103300D01*
X0035401Y0102682D01*
X0035401Y0102065D01*
X0034784Y0101448D01*
X0033550Y0101448D01*
X0032933Y0102065D01*
X0032933Y0104534D02*
X0033550Y0105151D01*
X0034784Y0105151D01*
X0035401Y0104534D01*
X0036616Y0105151D02*
X0036616Y0101448D01*
X0039084Y0101448D01*
X0040299Y0101448D02*
X0040299Y0105151D01*
X0042150Y0105151D01*
X0042768Y0104534D01*
X0042768Y0103300D01*
X0042150Y0102682D01*
X0040299Y0102682D01*
X0041533Y0102682D02*
X0042768Y0101448D01*
X0039084Y0105151D02*
X0036616Y0105151D01*
X0036616Y0103300D02*
X0037850Y0103300D01*
X0023735Y0105151D02*
X0021883Y0103300D01*
X0022500Y0111448D02*
X0021883Y0112065D01*
X0022500Y0111448D02*
X0023735Y0111448D01*
X0024352Y0112065D01*
X0024352Y0112682D01*
X0023735Y0113300D01*
X0023118Y0113300D01*
X0023735Y0113300D02*
X0024352Y0113917D01*
X0024352Y0114534D01*
X0023735Y0115151D01*
X0022500Y0115151D01*
X0021883Y0114534D01*
X0020669Y0114534D02*
X0020052Y0115151D01*
X0018200Y0115151D01*
X0018200Y0111448D01*
X0020052Y0111448D01*
X0020669Y0112065D01*
X0020669Y0112682D01*
X0020052Y0113300D01*
X0018200Y0113300D01*
X0020052Y0113300D02*
X0020669Y0113917D01*
X0020669Y0114534D01*
X0020052Y0121448D02*
X0018200Y0121448D01*
X0018200Y0125151D01*
X0020052Y0125151D01*
X0020669Y0124534D01*
X0020669Y0123917D01*
X0020052Y0123300D01*
X0018200Y0123300D01*
X0020052Y0123300D02*
X0020669Y0122682D01*
X0020669Y0122065D01*
X0020052Y0121448D01*
X0021883Y0121448D02*
X0024352Y0123917D01*
X0024352Y0124534D01*
X0023735Y0125151D01*
X0022500Y0125151D01*
X0021883Y0124534D01*
X0021883Y0121448D02*
X0024352Y0121448D01*
X0024352Y0131448D02*
X0021883Y0131448D01*
X0020669Y0131448D02*
X0020669Y0133917D01*
X0019434Y0135151D01*
X0018200Y0133917D01*
X0018200Y0131448D01*
X0018200Y0133300D02*
X0020669Y0133300D01*
X0021883Y0133917D02*
X0023118Y0135151D01*
X0023118Y0131448D01*
X0023735Y0141448D02*
X0022500Y0141448D01*
X0021883Y0142065D01*
X0024352Y0144534D01*
X0024352Y0142065D01*
X0023735Y0141448D01*
X0021883Y0142065D02*
X0021883Y0144534D01*
X0022500Y0145151D01*
X0023735Y0145151D01*
X0024352Y0144534D01*
X0020669Y0143917D02*
X0020669Y0141448D01*
X0020669Y0143300D02*
X0018200Y0143300D01*
X0018200Y0143917D02*
X0019434Y0145151D01*
X0020669Y0143917D01*
X0018200Y0143917D02*
X0018200Y0141448D01*
X0018447Y0167698D02*
X0018447Y0169550D01*
X0019064Y0170167D01*
X0020298Y0170167D01*
X0020916Y0169550D01*
X0020916Y0167698D01*
X0022150Y0167698D02*
X0018447Y0167698D01*
X0018447Y0171381D02*
X0018447Y0172616D01*
X0018447Y0171998D02*
X0022150Y0171998D01*
X0022150Y0171381D02*
X0022150Y0172616D01*
X0021533Y0173837D02*
X0022150Y0174454D01*
X0022150Y0175688D01*
X0021533Y0176305D01*
X0022150Y0177520D02*
X0018447Y0177520D01*
X0019064Y0176305D02*
X0018447Y0175688D01*
X0018447Y0174454D01*
X0019064Y0173837D01*
X0021533Y0173837D01*
X0020916Y0177520D02*
X0018447Y0179989D01*
X0018447Y0181203D02*
X0018447Y0182437D01*
X0018447Y0181820D02*
X0022150Y0181820D01*
X0022150Y0181203D02*
X0022150Y0182437D01*
X0022150Y0184893D02*
X0018447Y0184893D01*
X0018447Y0186127D02*
X0018447Y0183658D01*
X0022150Y0179989D02*
X0020298Y0178137D01*
X0030684Y0193315D02*
X0030684Y0195784D01*
X0029450Y0194550D02*
X0031919Y0194550D01*
X0050697Y0195033D02*
X0054400Y0195033D01*
X0053166Y0193799D01*
X0054400Y0192564D01*
X0050697Y0192564D01*
X0051314Y0191350D02*
X0050697Y0190733D01*
X0050697Y0189498D01*
X0051314Y0188881D01*
X0053783Y0188881D01*
X0054400Y0189498D01*
X0054400Y0190733D01*
X0053783Y0191350D01*
X0051314Y0191350D01*
X0051314Y0187667D02*
X0050697Y0187050D01*
X0050697Y0185198D01*
X0054400Y0185198D01*
X0053166Y0185198D02*
X0053166Y0187050D01*
X0052548Y0187667D01*
X0051314Y0187667D01*
X0056934Y0193315D02*
X0056934Y0195784D01*
X0055700Y0194550D02*
X0058169Y0194550D01*
X0054400Y0196247D02*
X0054400Y0198716D01*
X0054400Y0199931D02*
X0050697Y0199931D01*
X0050697Y0201782D01*
X0051314Y0202399D01*
X0052548Y0202399D01*
X0053166Y0201782D01*
X0053166Y0199931D01*
X0053166Y0201165D02*
X0054400Y0202399D01*
X0050697Y0198716D02*
X0050697Y0196247D01*
X0054400Y0196247D01*
X0052548Y0196247D02*
X0052548Y0197482D01*
X0075697Y0197533D02*
X0075697Y0195064D01*
X0079400Y0195064D01*
X0079400Y0197533D01*
X0079400Y0198747D02*
X0075697Y0198747D01*
X0075697Y0200599D01*
X0076314Y0201216D01*
X0077548Y0201216D01*
X0078166Y0200599D01*
X0078166Y0198747D01*
X0078166Y0199982D02*
X0079400Y0201216D01*
X0077548Y0196299D02*
X0077548Y0195064D01*
X0078166Y0193850D02*
X0078783Y0193850D01*
X0079400Y0193233D01*
X0079400Y0191998D01*
X0078783Y0191381D01*
X0078783Y0190167D02*
X0075697Y0190167D01*
X0076314Y0191381D02*
X0076931Y0191381D01*
X0077548Y0191998D01*
X0077548Y0193233D01*
X0078166Y0193850D01*
X0076314Y0193850D02*
X0075697Y0193233D01*
X0075697Y0191998D01*
X0076314Y0191381D01*
X0078783Y0190167D02*
X0079400Y0189550D01*
X0079400Y0188315D01*
X0078783Y0187698D01*
X0075697Y0187698D01*
X0078564Y0167383D02*
X0081033Y0164914D01*
X0081650Y0165532D01*
X0081650Y0166766D01*
X0081033Y0167383D01*
X0078564Y0167383D01*
X0077947Y0166766D01*
X0077947Y0165532D01*
X0078564Y0164914D01*
X0081033Y0164914D01*
X0081033Y0163700D02*
X0081650Y0163083D01*
X0081650Y0161848D01*
X0081033Y0161231D01*
X0081033Y0160017D02*
X0081650Y0159400D01*
X0081650Y0158165D01*
X0081033Y0157548D01*
X0079798Y0158782D02*
X0079798Y0159400D01*
X0080416Y0160017D01*
X0081033Y0160017D01*
X0079798Y0159400D02*
X0079181Y0160017D01*
X0078564Y0160017D01*
X0077947Y0159400D01*
X0077947Y0158165D01*
X0078564Y0157548D01*
X0078564Y0161231D02*
X0077947Y0161848D01*
X0077947Y0163083D01*
X0078564Y0163700D01*
X0079181Y0163700D01*
X0079798Y0163083D01*
X0080416Y0163700D01*
X0081033Y0163700D01*
X0079798Y0163083D02*
X0079798Y0162466D01*
X0056650Y0163083D02*
X0056650Y0161848D01*
X0056033Y0161231D01*
X0056033Y0160017D02*
X0055416Y0160017D01*
X0054798Y0159400D01*
X0054798Y0158782D01*
X0054798Y0159400D02*
X0054181Y0160017D01*
X0053564Y0160017D01*
X0052947Y0159400D01*
X0052947Y0158165D01*
X0053564Y0157548D01*
X0056033Y0157548D02*
X0056650Y0158165D01*
X0056650Y0159400D01*
X0056033Y0160017D01*
X0054798Y0162466D02*
X0054798Y0163083D01*
X0055416Y0163700D01*
X0056033Y0163700D01*
X0056650Y0163083D01*
X0054798Y0163083D02*
X0054181Y0163700D01*
X0053564Y0163700D01*
X0052947Y0163083D01*
X0052947Y0161848D01*
X0053564Y0161231D01*
X0053564Y0164914D02*
X0052947Y0165532D01*
X0052947Y0166766D01*
X0053564Y0167383D01*
X0056033Y0164914D01*
X0056650Y0165532D01*
X0056650Y0166766D01*
X0056033Y0167383D01*
X0053564Y0167383D01*
X0053564Y0164914D02*
X0056033Y0164914D01*
X0082267Y0083401D02*
X0084736Y0083401D01*
X0082267Y0083401D02*
X0082267Y0079698D01*
X0077197Y0054234D02*
X0077197Y0051765D01*
X0080900Y0051765D01*
X0080900Y0050551D02*
X0078431Y0050551D01*
X0079048Y0051765D02*
X0079048Y0052999D01*
X0080900Y0050551D02*
X0080900Y0048699D01*
X0080283Y0048082D01*
X0078431Y0048082D01*
X0077197Y0045633D02*
X0080900Y0045633D01*
X0080900Y0044399D02*
X0080900Y0046867D01*
X0078431Y0044399D02*
X0077197Y0045633D01*
X0080283Y0043174D02*
X0080900Y0043174D01*
X0080900Y0042557D01*
X0080283Y0042557D01*
X0080283Y0043174D01*
X0080283Y0041343D02*
X0077814Y0041343D01*
X0080283Y0038874D01*
X0080900Y0039491D01*
X0080900Y0040725D01*
X0080283Y0041343D01*
X0077814Y0041343D02*
X0077197Y0040725D01*
X0077197Y0039491D01*
X0077814Y0038874D01*
X0080283Y0038874D01*
X0159447Y0116682D02*
X0163150Y0116682D01*
X0163150Y0115448D02*
X0163150Y0117917D01*
X0162533Y0119131D02*
X0160064Y0121600D01*
X0162533Y0121600D01*
X0163150Y0120983D01*
X0163150Y0119748D01*
X0162533Y0119131D01*
X0160064Y0119131D01*
X0159447Y0119748D01*
X0159447Y0120983D01*
X0160064Y0121600D01*
X0160681Y0122814D02*
X0162533Y0122814D01*
X0163150Y0123432D01*
X0163150Y0125283D01*
X0160681Y0125283D01*
X0161298Y0126497D02*
X0161298Y0127732D01*
X0159447Y0128966D02*
X0159447Y0126497D01*
X0163150Y0126497D01*
X0159447Y0116682D02*
X0160681Y0115448D01*
X0150283Y0178874D02*
X0147814Y0178874D01*
X0147197Y0179491D01*
X0147197Y0180725D01*
X0147814Y0181343D01*
X0150283Y0178874D01*
X0150900Y0179491D01*
X0150900Y0180725D01*
X0150283Y0181343D01*
X0147814Y0181343D01*
X0150283Y0182557D02*
X0150283Y0183174D01*
X0150900Y0183174D01*
X0150900Y0182557D01*
X0150283Y0182557D01*
X0150900Y0184399D02*
X0150900Y0186867D01*
X0150900Y0185633D02*
X0147197Y0185633D01*
X0148431Y0184399D01*
X0148431Y0188082D02*
X0150283Y0188082D01*
X0150900Y0188699D01*
X0150900Y0190551D01*
X0148431Y0190551D01*
X0149048Y0191765D02*
X0149048Y0192999D01*
X0147197Y0191765D02*
X0147197Y0194234D01*
X0147197Y0191765D02*
X0150900Y0191765D01*
D13*
X0145550Y0196048D02*
X0145550Y0179048D01*
X0145548Y0178988D01*
X0145543Y0178927D01*
X0145534Y0178868D01*
X0145521Y0178809D01*
X0145505Y0178750D01*
X0145485Y0178693D01*
X0145462Y0178638D01*
X0145435Y0178583D01*
X0145406Y0178531D01*
X0145373Y0178480D01*
X0145337Y0178431D01*
X0145299Y0178385D01*
X0145257Y0178341D01*
X0145213Y0178299D01*
X0145167Y0178261D01*
X0145118Y0178225D01*
X0145067Y0178192D01*
X0145015Y0178163D01*
X0144960Y0178136D01*
X0144905Y0178113D01*
X0144848Y0178093D01*
X0144789Y0178077D01*
X0144730Y0178064D01*
X0144671Y0178055D01*
X0144610Y0178050D01*
X0144550Y0178048D01*
X0136550Y0178048D01*
X0136490Y0178050D01*
X0136429Y0178055D01*
X0136370Y0178064D01*
X0136311Y0178077D01*
X0136252Y0178093D01*
X0136195Y0178113D01*
X0136140Y0178136D01*
X0136085Y0178163D01*
X0136033Y0178192D01*
X0135982Y0178225D01*
X0135933Y0178261D01*
X0135887Y0178299D01*
X0135843Y0178341D01*
X0135801Y0178385D01*
X0135763Y0178431D01*
X0135727Y0178480D01*
X0135694Y0178531D01*
X0135665Y0178583D01*
X0135638Y0178638D01*
X0135615Y0178693D01*
X0135595Y0178750D01*
X0135579Y0178809D01*
X0135566Y0178868D01*
X0135557Y0178927D01*
X0135552Y0178988D01*
X0135550Y0179048D01*
X0135550Y0196048D01*
X0135552Y0196108D01*
X0135557Y0196169D01*
X0135566Y0196228D01*
X0135579Y0196287D01*
X0135595Y0196346D01*
X0135615Y0196403D01*
X0135638Y0196458D01*
X0135665Y0196513D01*
X0135694Y0196565D01*
X0135727Y0196616D01*
X0135763Y0196665D01*
X0135801Y0196711D01*
X0135843Y0196755D01*
X0135887Y0196797D01*
X0135933Y0196835D01*
X0135982Y0196871D01*
X0136033Y0196904D01*
X0136085Y0196933D01*
X0136140Y0196960D01*
X0136195Y0196983D01*
X0136252Y0197003D01*
X0136311Y0197019D01*
X0136370Y0197032D01*
X0136429Y0197041D01*
X0136490Y0197046D01*
X0136550Y0197048D01*
X0144550Y0197048D01*
X0144610Y0197046D01*
X0144671Y0197041D01*
X0144730Y0197032D01*
X0144789Y0197019D01*
X0144848Y0197003D01*
X0144905Y0196983D01*
X0144960Y0196960D01*
X0145015Y0196933D01*
X0145067Y0196904D01*
X0145118Y0196871D01*
X0145167Y0196835D01*
X0145213Y0196797D01*
X0145257Y0196755D01*
X0145299Y0196711D01*
X0145337Y0196665D01*
X0145373Y0196616D01*
X0145406Y0196565D01*
X0145435Y0196513D01*
X0145462Y0196458D01*
X0145485Y0196403D01*
X0145505Y0196346D01*
X0145521Y0196287D01*
X0145534Y0196228D01*
X0145543Y0196169D01*
X0145548Y0196108D01*
X0145550Y0196048D01*
X0140550Y0189048D02*
X0140550Y0188548D01*
X0140550Y0186548D02*
X0140550Y0186048D01*
X0123300Y0197548D02*
X0115800Y0197548D01*
X0115798Y0197422D01*
X0115792Y0197297D01*
X0115782Y0197172D01*
X0115768Y0197047D01*
X0115751Y0196922D01*
X0115729Y0196798D01*
X0115704Y0196675D01*
X0115674Y0196553D01*
X0115641Y0196432D01*
X0115604Y0196312D01*
X0115564Y0196193D01*
X0115519Y0196076D01*
X0115471Y0195959D01*
X0115419Y0195845D01*
X0115364Y0195732D01*
X0115305Y0195621D01*
X0115243Y0195512D01*
X0115177Y0195405D01*
X0115108Y0195300D01*
X0115036Y0195197D01*
X0114961Y0195096D01*
X0114882Y0194998D01*
X0114800Y0194903D01*
X0114716Y0194810D01*
X0114628Y0194720D01*
X0114538Y0194632D01*
X0114445Y0194548D01*
X0114350Y0194466D01*
X0114252Y0194387D01*
X0114151Y0194312D01*
X0114048Y0194240D01*
X0113943Y0194171D01*
X0113836Y0194105D01*
X0113727Y0194043D01*
X0113616Y0193984D01*
X0113503Y0193929D01*
X0113389Y0193877D01*
X0113272Y0193829D01*
X0113155Y0193784D01*
X0113036Y0193744D01*
X0112916Y0193707D01*
X0112795Y0193674D01*
X0112673Y0193644D01*
X0112550Y0193619D01*
X0112426Y0193597D01*
X0112301Y0193580D01*
X0112176Y0193566D01*
X0112051Y0193556D01*
X0111926Y0193550D01*
X0111800Y0193548D01*
X0111674Y0193550D01*
X0111549Y0193556D01*
X0111424Y0193566D01*
X0111299Y0193580D01*
X0111174Y0193597D01*
X0111050Y0193619D01*
X0110927Y0193644D01*
X0110805Y0193674D01*
X0110684Y0193707D01*
X0110564Y0193744D01*
X0110445Y0193784D01*
X0110328Y0193829D01*
X0110211Y0193877D01*
X0110097Y0193929D01*
X0109984Y0193984D01*
X0109873Y0194043D01*
X0109764Y0194105D01*
X0109657Y0194171D01*
X0109552Y0194240D01*
X0109449Y0194312D01*
X0109348Y0194387D01*
X0109250Y0194466D01*
X0109155Y0194548D01*
X0109062Y0194632D01*
X0108972Y0194720D01*
X0108884Y0194810D01*
X0108800Y0194903D01*
X0108718Y0194998D01*
X0108639Y0195096D01*
X0108564Y0195197D01*
X0108492Y0195300D01*
X0108423Y0195405D01*
X0108357Y0195512D01*
X0108295Y0195621D01*
X0108236Y0195732D01*
X0108181Y0195845D01*
X0108129Y0195959D01*
X0108081Y0196076D01*
X0108036Y0196193D01*
X0107996Y0196312D01*
X0107959Y0196432D01*
X0107926Y0196553D01*
X0107896Y0196675D01*
X0107871Y0196798D01*
X0107849Y0196922D01*
X0107832Y0197047D01*
X0107818Y0197172D01*
X0107808Y0197297D01*
X0107802Y0197422D01*
X0107800Y0197548D01*
X0100300Y0197548D01*
X0100300Y0057548D01*
X0123300Y0057548D01*
X0123300Y0197548D01*
X0076300Y0174048D02*
X0076300Y0172548D01*
X0075800Y0172048D01*
X0075800Y0153048D01*
X0076300Y0152548D01*
X0076300Y0151048D01*
X0076298Y0150988D01*
X0076293Y0150927D01*
X0076284Y0150868D01*
X0076271Y0150809D01*
X0076255Y0150750D01*
X0076235Y0150693D01*
X0076212Y0150638D01*
X0076185Y0150583D01*
X0076156Y0150531D01*
X0076123Y0150480D01*
X0076087Y0150431D01*
X0076049Y0150385D01*
X0076007Y0150341D01*
X0075963Y0150299D01*
X0075917Y0150261D01*
X0075868Y0150225D01*
X0075817Y0150192D01*
X0075765Y0150163D01*
X0075710Y0150136D01*
X0075655Y0150113D01*
X0075598Y0150093D01*
X0075539Y0150077D01*
X0075480Y0150064D01*
X0075421Y0150055D01*
X0075360Y0150050D01*
X0075300Y0150048D01*
X0068300Y0150048D01*
X0068240Y0150050D01*
X0068179Y0150055D01*
X0068120Y0150064D01*
X0068061Y0150077D01*
X0068002Y0150093D01*
X0067945Y0150113D01*
X0067890Y0150136D01*
X0067835Y0150163D01*
X0067783Y0150192D01*
X0067732Y0150225D01*
X0067683Y0150261D01*
X0067637Y0150299D01*
X0067593Y0150341D01*
X0067551Y0150385D01*
X0067513Y0150431D01*
X0067477Y0150480D01*
X0067444Y0150531D01*
X0067415Y0150583D01*
X0067388Y0150638D01*
X0067365Y0150693D01*
X0067345Y0150750D01*
X0067329Y0150809D01*
X0067316Y0150868D01*
X0067307Y0150927D01*
X0067302Y0150988D01*
X0067300Y0151048D01*
X0067300Y0152548D01*
X0067800Y0153048D01*
X0067800Y0172048D01*
X0067300Y0172548D01*
X0067300Y0174048D01*
X0067302Y0174108D01*
X0067307Y0174169D01*
X0067316Y0174228D01*
X0067329Y0174287D01*
X0067345Y0174346D01*
X0067365Y0174403D01*
X0067388Y0174458D01*
X0067415Y0174513D01*
X0067444Y0174565D01*
X0067477Y0174616D01*
X0067513Y0174665D01*
X0067551Y0174711D01*
X0067593Y0174755D01*
X0067637Y0174797D01*
X0067683Y0174835D01*
X0067732Y0174871D01*
X0067783Y0174904D01*
X0067835Y0174933D01*
X0067890Y0174960D01*
X0067945Y0174983D01*
X0068002Y0175003D01*
X0068061Y0175019D01*
X0068120Y0175032D01*
X0068179Y0175041D01*
X0068240Y0175046D01*
X0068300Y0175048D01*
X0075300Y0175048D01*
X0075360Y0175046D01*
X0075421Y0175041D01*
X0075480Y0175032D01*
X0075539Y0175019D01*
X0075598Y0175003D01*
X0075655Y0174983D01*
X0075710Y0174960D01*
X0075765Y0174933D01*
X0075817Y0174904D01*
X0075868Y0174871D01*
X0075917Y0174835D01*
X0075963Y0174797D01*
X0076007Y0174755D01*
X0076049Y0174711D01*
X0076087Y0174665D01*
X0076123Y0174616D01*
X0076156Y0174565D01*
X0076185Y0174513D01*
X0076212Y0174458D01*
X0076235Y0174403D01*
X0076255Y0174346D01*
X0076271Y0174287D01*
X0076284Y0174228D01*
X0076293Y0174169D01*
X0076298Y0174108D01*
X0076300Y0174048D01*
X0066800Y0189048D02*
X0066648Y0189050D01*
X0066497Y0189056D01*
X0066346Y0189065D01*
X0066194Y0189079D01*
X0066044Y0189096D01*
X0065894Y0189117D01*
X0065744Y0189142D01*
X0065595Y0189170D01*
X0065447Y0189203D01*
X0065300Y0189239D01*
X0065153Y0189278D01*
X0065008Y0189322D01*
X0064864Y0189369D01*
X0064721Y0189420D01*
X0064580Y0189474D01*
X0064439Y0189532D01*
X0064301Y0189593D01*
X0064164Y0189658D01*
X0064028Y0189727D01*
X0063895Y0189798D01*
X0063763Y0189873D01*
X0063633Y0189952D01*
X0063506Y0190033D01*
X0063380Y0190118D01*
X0063256Y0190206D01*
X0063135Y0190297D01*
X0063016Y0190391D01*
X0062900Y0190489D01*
X0062786Y0190589D01*
X0062674Y0190691D01*
X0062566Y0190797D01*
X0062460Y0190905D01*
X0062356Y0191016D01*
X0062256Y0191130D01*
X0062158Y0191246D01*
X0062064Y0191365D01*
X0066800Y0201048D02*
X0066954Y0201046D01*
X0067108Y0201040D01*
X0067262Y0201030D01*
X0067416Y0201016D01*
X0067569Y0200999D01*
X0067721Y0200977D01*
X0067873Y0200951D01*
X0068025Y0200922D01*
X0068175Y0200888D01*
X0068325Y0200851D01*
X0068473Y0200810D01*
X0068621Y0200765D01*
X0068767Y0200716D01*
X0068912Y0200664D01*
X0069055Y0200608D01*
X0069198Y0200548D01*
X0069338Y0200485D01*
X0069477Y0200418D01*
X0069614Y0200347D01*
X0069749Y0200273D01*
X0069882Y0200196D01*
X0070014Y0200115D01*
X0070143Y0200031D01*
X0070270Y0199943D01*
X0070394Y0199852D01*
X0070516Y0199759D01*
X0070636Y0199661D01*
X0070753Y0199561D01*
X0070868Y0199458D01*
X0070980Y0199352D01*
X0071089Y0199244D01*
X0071195Y0199132D01*
X0071299Y0199018D01*
X0071399Y0198901D01*
X0071497Y0198782D01*
X0071591Y0198660D01*
X0071682Y0198535D01*
X0066800Y0201048D02*
X0066650Y0201046D01*
X0066499Y0201040D01*
X0066349Y0201031D01*
X0066200Y0201018D01*
X0066050Y0201001D01*
X0065901Y0200980D01*
X0065753Y0200956D01*
X0065605Y0200928D01*
X0065458Y0200896D01*
X0065312Y0200861D01*
X0065167Y0200821D01*
X0065023Y0200779D01*
X0064880Y0200732D01*
X0064738Y0200682D01*
X0064597Y0200629D01*
X0064458Y0200572D01*
X0064320Y0200512D01*
X0064184Y0200448D01*
X0064050Y0200381D01*
X0063917Y0200310D01*
X0063786Y0200236D01*
X0063657Y0200159D01*
X0063530Y0200078D01*
X0063405Y0199995D01*
X0063282Y0199908D01*
X0063161Y0199819D01*
X0063043Y0199726D01*
X0062927Y0199630D01*
X0062813Y0199532D01*
X0062702Y0199431D01*
X0062593Y0199326D01*
X0062488Y0199220D01*
X0062384Y0199110D01*
X0062284Y0198998D01*
X0062186Y0198884D01*
X0062092Y0198767D01*
X0062000Y0198648D01*
X0066800Y0189048D02*
X0066952Y0189050D01*
X0067103Y0189056D01*
X0067254Y0189065D01*
X0067406Y0189079D01*
X0067556Y0189096D01*
X0067706Y0189117D01*
X0067856Y0189142D01*
X0068005Y0189170D01*
X0068153Y0189203D01*
X0068300Y0189239D01*
X0068447Y0189278D01*
X0068592Y0189322D01*
X0068736Y0189369D01*
X0068879Y0189420D01*
X0069020Y0189474D01*
X0069161Y0189532D01*
X0069299Y0189593D01*
X0069436Y0189658D01*
X0069572Y0189727D01*
X0069705Y0189798D01*
X0069837Y0189873D01*
X0069967Y0189952D01*
X0070094Y0190033D01*
X0070220Y0190118D01*
X0070344Y0190206D01*
X0070465Y0190297D01*
X0070584Y0190391D01*
X0070700Y0190489D01*
X0070814Y0190589D01*
X0070926Y0190691D01*
X0071034Y0190797D01*
X0071140Y0190905D01*
X0071244Y0191016D01*
X0071344Y0191130D01*
X0071442Y0191246D01*
X0071536Y0191365D01*
X0051300Y0174048D02*
X0051300Y0172548D01*
X0050800Y0172048D01*
X0050800Y0153048D01*
X0051300Y0152548D01*
X0051300Y0151048D01*
X0051298Y0150988D01*
X0051293Y0150927D01*
X0051284Y0150868D01*
X0051271Y0150809D01*
X0051255Y0150750D01*
X0051235Y0150693D01*
X0051212Y0150638D01*
X0051185Y0150583D01*
X0051156Y0150531D01*
X0051123Y0150480D01*
X0051087Y0150431D01*
X0051049Y0150385D01*
X0051007Y0150341D01*
X0050963Y0150299D01*
X0050917Y0150261D01*
X0050868Y0150225D01*
X0050817Y0150192D01*
X0050765Y0150163D01*
X0050710Y0150136D01*
X0050655Y0150113D01*
X0050598Y0150093D01*
X0050539Y0150077D01*
X0050480Y0150064D01*
X0050421Y0150055D01*
X0050360Y0150050D01*
X0050300Y0150048D01*
X0043300Y0150048D01*
X0043240Y0150050D01*
X0043179Y0150055D01*
X0043120Y0150064D01*
X0043061Y0150077D01*
X0043002Y0150093D01*
X0042945Y0150113D01*
X0042890Y0150136D01*
X0042835Y0150163D01*
X0042783Y0150192D01*
X0042732Y0150225D01*
X0042683Y0150261D01*
X0042637Y0150299D01*
X0042593Y0150341D01*
X0042551Y0150385D01*
X0042513Y0150431D01*
X0042477Y0150480D01*
X0042444Y0150531D01*
X0042415Y0150583D01*
X0042388Y0150638D01*
X0042365Y0150693D01*
X0042345Y0150750D01*
X0042329Y0150809D01*
X0042316Y0150868D01*
X0042307Y0150927D01*
X0042302Y0150988D01*
X0042300Y0151048D01*
X0042300Y0152548D01*
X0042800Y0153048D01*
X0042800Y0172048D01*
X0042300Y0172548D01*
X0042300Y0174048D01*
X0042302Y0174108D01*
X0042307Y0174169D01*
X0042316Y0174228D01*
X0042329Y0174287D01*
X0042345Y0174346D01*
X0042365Y0174403D01*
X0042388Y0174458D01*
X0042415Y0174513D01*
X0042444Y0174565D01*
X0042477Y0174616D01*
X0042513Y0174665D01*
X0042551Y0174711D01*
X0042593Y0174755D01*
X0042637Y0174797D01*
X0042683Y0174835D01*
X0042732Y0174871D01*
X0042783Y0174904D01*
X0042835Y0174933D01*
X0042890Y0174960D01*
X0042945Y0174983D01*
X0043002Y0175003D01*
X0043061Y0175019D01*
X0043120Y0175032D01*
X0043179Y0175041D01*
X0043240Y0175046D01*
X0043300Y0175048D01*
X0050300Y0175048D01*
X0050360Y0175046D01*
X0050421Y0175041D01*
X0050480Y0175032D01*
X0050539Y0175019D01*
X0050598Y0175003D01*
X0050655Y0174983D01*
X0050710Y0174960D01*
X0050765Y0174933D01*
X0050817Y0174904D01*
X0050868Y0174871D01*
X0050917Y0174835D01*
X0050963Y0174797D01*
X0051007Y0174755D01*
X0051049Y0174711D01*
X0051087Y0174665D01*
X0051123Y0174616D01*
X0051156Y0174565D01*
X0051185Y0174513D01*
X0051212Y0174458D01*
X0051235Y0174403D01*
X0051255Y0174346D01*
X0051271Y0174287D01*
X0051284Y0174228D01*
X0051293Y0174169D01*
X0051298Y0174108D01*
X0051300Y0174048D01*
X0041800Y0189048D02*
X0041648Y0189050D01*
X0041497Y0189056D01*
X0041346Y0189065D01*
X0041194Y0189079D01*
X0041044Y0189096D01*
X0040894Y0189117D01*
X0040744Y0189142D01*
X0040595Y0189170D01*
X0040447Y0189203D01*
X0040300Y0189239D01*
X0040153Y0189278D01*
X0040008Y0189322D01*
X0039864Y0189369D01*
X0039721Y0189420D01*
X0039580Y0189474D01*
X0039439Y0189532D01*
X0039301Y0189593D01*
X0039164Y0189658D01*
X0039028Y0189727D01*
X0038895Y0189798D01*
X0038763Y0189873D01*
X0038633Y0189952D01*
X0038506Y0190033D01*
X0038380Y0190118D01*
X0038256Y0190206D01*
X0038135Y0190297D01*
X0038016Y0190391D01*
X0037900Y0190489D01*
X0037786Y0190589D01*
X0037674Y0190691D01*
X0037566Y0190797D01*
X0037460Y0190905D01*
X0037356Y0191016D01*
X0037256Y0191130D01*
X0037158Y0191246D01*
X0037064Y0191365D01*
X0041800Y0201048D02*
X0041954Y0201046D01*
X0042108Y0201040D01*
X0042262Y0201030D01*
X0042416Y0201016D01*
X0042569Y0200999D01*
X0042721Y0200977D01*
X0042873Y0200951D01*
X0043025Y0200922D01*
X0043175Y0200888D01*
X0043325Y0200851D01*
X0043473Y0200810D01*
X0043621Y0200765D01*
X0043767Y0200716D01*
X0043912Y0200664D01*
X0044055Y0200608D01*
X0044198Y0200548D01*
X0044338Y0200485D01*
X0044477Y0200418D01*
X0044614Y0200347D01*
X0044749Y0200273D01*
X0044882Y0200196D01*
X0045014Y0200115D01*
X0045143Y0200031D01*
X0045270Y0199943D01*
X0045394Y0199852D01*
X0045516Y0199759D01*
X0045636Y0199661D01*
X0045753Y0199561D01*
X0045868Y0199458D01*
X0045980Y0199352D01*
X0046089Y0199244D01*
X0046195Y0199132D01*
X0046299Y0199018D01*
X0046399Y0198901D01*
X0046497Y0198782D01*
X0046591Y0198660D01*
X0046682Y0198535D01*
X0041800Y0201048D02*
X0041650Y0201046D01*
X0041499Y0201040D01*
X0041349Y0201031D01*
X0041200Y0201018D01*
X0041050Y0201001D01*
X0040901Y0200980D01*
X0040753Y0200956D01*
X0040605Y0200928D01*
X0040458Y0200896D01*
X0040312Y0200861D01*
X0040167Y0200821D01*
X0040023Y0200779D01*
X0039880Y0200732D01*
X0039738Y0200682D01*
X0039597Y0200629D01*
X0039458Y0200572D01*
X0039320Y0200512D01*
X0039184Y0200448D01*
X0039050Y0200381D01*
X0038917Y0200310D01*
X0038786Y0200236D01*
X0038657Y0200159D01*
X0038530Y0200078D01*
X0038405Y0199995D01*
X0038282Y0199908D01*
X0038161Y0199819D01*
X0038043Y0199726D01*
X0037927Y0199630D01*
X0037813Y0199532D01*
X0037702Y0199431D01*
X0037593Y0199326D01*
X0037488Y0199220D01*
X0037384Y0199110D01*
X0037284Y0198998D01*
X0037186Y0198884D01*
X0037092Y0198767D01*
X0037000Y0198648D01*
X0041800Y0189048D02*
X0041952Y0189050D01*
X0042103Y0189056D01*
X0042254Y0189065D01*
X0042406Y0189079D01*
X0042556Y0189096D01*
X0042706Y0189117D01*
X0042856Y0189142D01*
X0043005Y0189170D01*
X0043153Y0189203D01*
X0043300Y0189239D01*
X0043447Y0189278D01*
X0043592Y0189322D01*
X0043736Y0189369D01*
X0043879Y0189420D01*
X0044020Y0189474D01*
X0044161Y0189532D01*
X0044299Y0189593D01*
X0044436Y0189658D01*
X0044572Y0189727D01*
X0044705Y0189798D01*
X0044837Y0189873D01*
X0044967Y0189952D01*
X0045094Y0190033D01*
X0045220Y0190118D01*
X0045344Y0190206D01*
X0045465Y0190297D01*
X0045584Y0190391D01*
X0045700Y0190489D01*
X0045814Y0190589D01*
X0045926Y0190691D01*
X0046034Y0190797D01*
X0046140Y0190905D01*
X0046244Y0191016D01*
X0046344Y0191130D01*
X0046442Y0191246D01*
X0046536Y0191365D01*
X0137300Y0135548D02*
X0137300Y0111048D01*
X0140300Y0108048D01*
X0153300Y0108048D01*
X0156300Y0111048D01*
X0156300Y0135548D01*
X0156298Y0135624D01*
X0156292Y0135700D01*
X0156283Y0135775D01*
X0156269Y0135850D01*
X0156252Y0135924D01*
X0156231Y0135997D01*
X0156207Y0136069D01*
X0156178Y0136140D01*
X0156147Y0136209D01*
X0156112Y0136276D01*
X0156073Y0136341D01*
X0156031Y0136405D01*
X0155986Y0136466D01*
X0155938Y0136525D01*
X0155887Y0136581D01*
X0155833Y0136635D01*
X0155777Y0136686D01*
X0155718Y0136734D01*
X0155657Y0136779D01*
X0155593Y0136821D01*
X0155528Y0136860D01*
X0155461Y0136895D01*
X0155392Y0136926D01*
X0155321Y0136955D01*
X0155249Y0136979D01*
X0155176Y0137000D01*
X0155102Y0137017D01*
X0155027Y0137031D01*
X0154952Y0137040D01*
X0154876Y0137046D01*
X0154800Y0137048D01*
X0138800Y0137048D01*
X0138724Y0137046D01*
X0138648Y0137040D01*
X0138573Y0137031D01*
X0138498Y0137017D01*
X0138424Y0137000D01*
X0138351Y0136979D01*
X0138279Y0136955D01*
X0138208Y0136926D01*
X0138139Y0136895D01*
X0138072Y0136860D01*
X0138007Y0136821D01*
X0137943Y0136779D01*
X0137882Y0136734D01*
X0137823Y0136686D01*
X0137767Y0136635D01*
X0137713Y0136581D01*
X0137662Y0136525D01*
X0137614Y0136466D01*
X0137569Y0136405D01*
X0137527Y0136341D01*
X0137488Y0136276D01*
X0137453Y0136209D01*
X0137422Y0136140D01*
X0137393Y0136069D01*
X0137369Y0135997D01*
X0137348Y0135924D01*
X0137331Y0135850D01*
X0137317Y0135775D01*
X0137308Y0135700D01*
X0137302Y0135624D01*
X0137300Y0135548D01*
X0146800Y0128548D02*
X0146800Y0125048D01*
X0146800Y0120048D02*
X0142000Y0120048D01*
X0142000Y0122048D01*
X0151600Y0122048D01*
X0151600Y0120048D01*
X0146800Y0120048D01*
X0146800Y0116548D01*
X0142700Y0115548D02*
X0140200Y0115548D01*
X0141400Y0116848D02*
X0141400Y0114248D01*
X0138800Y0067048D02*
X0154800Y0067048D01*
X0154876Y0067046D01*
X0154952Y0067040D01*
X0155027Y0067031D01*
X0155102Y0067017D01*
X0155176Y0067000D01*
X0155249Y0066979D01*
X0155321Y0066955D01*
X0155392Y0066926D01*
X0155461Y0066895D01*
X0155528Y0066860D01*
X0155593Y0066821D01*
X0155657Y0066779D01*
X0155718Y0066734D01*
X0155777Y0066686D01*
X0155833Y0066635D01*
X0155887Y0066581D01*
X0155938Y0066525D01*
X0155986Y0066466D01*
X0156031Y0066405D01*
X0156073Y0066341D01*
X0156112Y0066276D01*
X0156147Y0066209D01*
X0156178Y0066140D01*
X0156207Y0066069D01*
X0156231Y0065997D01*
X0156252Y0065924D01*
X0156269Y0065850D01*
X0156283Y0065775D01*
X0156292Y0065700D01*
X0156298Y0065624D01*
X0156300Y0065548D01*
X0156300Y0041048D01*
X0153300Y0038048D01*
X0140300Y0038048D01*
X0137300Y0041048D01*
X0137300Y0065548D01*
X0137302Y0065624D01*
X0137308Y0065700D01*
X0137317Y0065775D01*
X0137331Y0065850D01*
X0137348Y0065924D01*
X0137369Y0065997D01*
X0137393Y0066069D01*
X0137422Y0066140D01*
X0137453Y0066209D01*
X0137488Y0066276D01*
X0137527Y0066341D01*
X0137569Y0066405D01*
X0137614Y0066466D01*
X0137662Y0066525D01*
X0137713Y0066581D01*
X0137767Y0066635D01*
X0137823Y0066686D01*
X0137882Y0066734D01*
X0137943Y0066779D01*
X0138007Y0066821D01*
X0138072Y0066860D01*
X0138139Y0066895D01*
X0138208Y0066926D01*
X0138279Y0066955D01*
X0138351Y0066979D01*
X0138424Y0067000D01*
X0138498Y0067017D01*
X0138573Y0067031D01*
X0138648Y0067040D01*
X0138724Y0067046D01*
X0138800Y0067048D01*
X0146800Y0058548D02*
X0146800Y0055048D01*
X0142000Y0052048D02*
X0142000Y0050048D01*
X0146800Y0050048D01*
X0151600Y0050048D01*
X0151600Y0052048D01*
X0142000Y0052048D01*
X0146800Y0050048D02*
X0146800Y0046548D01*
X0142700Y0045548D02*
X0140200Y0045548D01*
X0141400Y0046848D02*
X0141400Y0044248D01*
X0125300Y0027548D02*
X0108300Y0027548D01*
X0108240Y0027546D01*
X0108179Y0027541D01*
X0108120Y0027532D01*
X0108061Y0027519D01*
X0108002Y0027503D01*
X0107945Y0027483D01*
X0107890Y0027460D01*
X0107835Y0027433D01*
X0107783Y0027404D01*
X0107732Y0027371D01*
X0107683Y0027335D01*
X0107637Y0027297D01*
X0107593Y0027255D01*
X0107551Y0027211D01*
X0107513Y0027165D01*
X0107477Y0027116D01*
X0107444Y0027065D01*
X0107415Y0027013D01*
X0107388Y0026958D01*
X0107365Y0026903D01*
X0107345Y0026846D01*
X0107329Y0026787D01*
X0107316Y0026728D01*
X0107307Y0026669D01*
X0107302Y0026608D01*
X0107300Y0026548D01*
X0107300Y0018548D01*
X0107302Y0018488D01*
X0107307Y0018427D01*
X0107316Y0018368D01*
X0107329Y0018309D01*
X0107345Y0018250D01*
X0107365Y0018193D01*
X0107388Y0018138D01*
X0107415Y0018083D01*
X0107444Y0018031D01*
X0107477Y0017980D01*
X0107513Y0017931D01*
X0107551Y0017885D01*
X0107593Y0017841D01*
X0107637Y0017799D01*
X0107683Y0017761D01*
X0107732Y0017725D01*
X0107783Y0017692D01*
X0107835Y0017663D01*
X0107890Y0017636D01*
X0107945Y0017613D01*
X0108002Y0017593D01*
X0108061Y0017577D01*
X0108120Y0017564D01*
X0108179Y0017555D01*
X0108240Y0017550D01*
X0108300Y0017548D01*
X0125300Y0017548D01*
X0125360Y0017550D01*
X0125421Y0017555D01*
X0125480Y0017564D01*
X0125539Y0017577D01*
X0125598Y0017593D01*
X0125655Y0017613D01*
X0125710Y0017636D01*
X0125765Y0017663D01*
X0125817Y0017692D01*
X0125868Y0017725D01*
X0125917Y0017761D01*
X0125963Y0017799D01*
X0126007Y0017841D01*
X0126049Y0017885D01*
X0126087Y0017931D01*
X0126123Y0017980D01*
X0126156Y0018031D01*
X0126185Y0018083D01*
X0126212Y0018138D01*
X0126235Y0018193D01*
X0126255Y0018250D01*
X0126271Y0018309D01*
X0126284Y0018368D01*
X0126293Y0018427D01*
X0126298Y0018488D01*
X0126300Y0018548D01*
X0126300Y0026548D01*
X0126298Y0026608D01*
X0126293Y0026669D01*
X0126284Y0026728D01*
X0126271Y0026787D01*
X0126255Y0026846D01*
X0126235Y0026903D01*
X0126212Y0026958D01*
X0126185Y0027013D01*
X0126156Y0027065D01*
X0126123Y0027116D01*
X0126087Y0027165D01*
X0126049Y0027211D01*
X0126007Y0027255D01*
X0125963Y0027297D01*
X0125917Y0027335D01*
X0125868Y0027371D01*
X0125817Y0027404D01*
X0125765Y0027433D01*
X0125710Y0027460D01*
X0125655Y0027483D01*
X0125598Y0027503D01*
X0125539Y0027519D01*
X0125480Y0027532D01*
X0125421Y0027541D01*
X0125360Y0027546D01*
X0125300Y0027548D01*
X0118300Y0022548D02*
X0117800Y0022548D01*
X0115800Y0022548D02*
X0115300Y0022548D01*
X0091800Y0039048D02*
X0091800Y0056048D01*
X0091798Y0056108D01*
X0091793Y0056169D01*
X0091784Y0056228D01*
X0091771Y0056287D01*
X0091755Y0056346D01*
X0091735Y0056403D01*
X0091712Y0056458D01*
X0091685Y0056513D01*
X0091656Y0056565D01*
X0091623Y0056616D01*
X0091587Y0056665D01*
X0091549Y0056711D01*
X0091507Y0056755D01*
X0091463Y0056797D01*
X0091417Y0056835D01*
X0091368Y0056871D01*
X0091317Y0056904D01*
X0091265Y0056933D01*
X0091210Y0056960D01*
X0091155Y0056983D01*
X0091098Y0057003D01*
X0091039Y0057019D01*
X0090980Y0057032D01*
X0090921Y0057041D01*
X0090860Y0057046D01*
X0090800Y0057048D01*
X0082800Y0057048D01*
X0082740Y0057046D01*
X0082679Y0057041D01*
X0082620Y0057032D01*
X0082561Y0057019D01*
X0082502Y0057003D01*
X0082445Y0056983D01*
X0082390Y0056960D01*
X0082335Y0056933D01*
X0082283Y0056904D01*
X0082232Y0056871D01*
X0082183Y0056835D01*
X0082137Y0056797D01*
X0082093Y0056755D01*
X0082051Y0056711D01*
X0082013Y0056665D01*
X0081977Y0056616D01*
X0081944Y0056565D01*
X0081915Y0056513D01*
X0081888Y0056458D01*
X0081865Y0056403D01*
X0081845Y0056346D01*
X0081829Y0056287D01*
X0081816Y0056228D01*
X0081807Y0056169D01*
X0081802Y0056108D01*
X0081800Y0056048D01*
X0081800Y0039048D01*
X0081802Y0038988D01*
X0081807Y0038927D01*
X0081816Y0038868D01*
X0081829Y0038809D01*
X0081845Y0038750D01*
X0081865Y0038693D01*
X0081888Y0038638D01*
X0081915Y0038583D01*
X0081944Y0038531D01*
X0081977Y0038480D01*
X0082013Y0038431D01*
X0082051Y0038385D01*
X0082093Y0038341D01*
X0082137Y0038299D01*
X0082183Y0038261D01*
X0082232Y0038225D01*
X0082283Y0038192D01*
X0082335Y0038163D01*
X0082390Y0038136D01*
X0082445Y0038113D01*
X0082502Y0038093D01*
X0082561Y0038077D01*
X0082620Y0038064D01*
X0082679Y0038055D01*
X0082740Y0038050D01*
X0082800Y0038048D01*
X0090800Y0038048D01*
X0090860Y0038050D01*
X0090921Y0038055D01*
X0090980Y0038064D01*
X0091039Y0038077D01*
X0091098Y0038093D01*
X0091155Y0038113D01*
X0091210Y0038136D01*
X0091265Y0038163D01*
X0091317Y0038192D01*
X0091368Y0038225D01*
X0091417Y0038261D01*
X0091463Y0038299D01*
X0091507Y0038341D01*
X0091549Y0038385D01*
X0091587Y0038431D01*
X0091623Y0038480D01*
X0091656Y0038531D01*
X0091685Y0038583D01*
X0091712Y0038638D01*
X0091735Y0038693D01*
X0091755Y0038750D01*
X0091771Y0038809D01*
X0091784Y0038868D01*
X0091793Y0038927D01*
X0091798Y0038988D01*
X0091800Y0039048D01*
X0086800Y0046048D02*
X0086800Y0046548D01*
X0086800Y0048548D02*
X0086800Y0049048D01*
X0085300Y0067548D02*
X0068300Y0067548D01*
X0068240Y0067550D01*
X0068179Y0067555D01*
X0068120Y0067564D01*
X0068061Y0067577D01*
X0068002Y0067593D01*
X0067945Y0067613D01*
X0067890Y0067636D01*
X0067835Y0067663D01*
X0067783Y0067692D01*
X0067732Y0067725D01*
X0067683Y0067761D01*
X0067637Y0067799D01*
X0067593Y0067841D01*
X0067551Y0067885D01*
X0067513Y0067931D01*
X0067477Y0067980D01*
X0067444Y0068031D01*
X0067415Y0068083D01*
X0067388Y0068138D01*
X0067365Y0068193D01*
X0067345Y0068250D01*
X0067329Y0068309D01*
X0067316Y0068368D01*
X0067307Y0068427D01*
X0067302Y0068488D01*
X0067300Y0068548D01*
X0067300Y0076548D01*
X0067302Y0076608D01*
X0067307Y0076669D01*
X0067316Y0076728D01*
X0067329Y0076787D01*
X0067345Y0076846D01*
X0067365Y0076903D01*
X0067388Y0076958D01*
X0067415Y0077013D01*
X0067444Y0077065D01*
X0067477Y0077116D01*
X0067513Y0077165D01*
X0067551Y0077211D01*
X0067593Y0077255D01*
X0067637Y0077297D01*
X0067683Y0077335D01*
X0067732Y0077371D01*
X0067783Y0077404D01*
X0067835Y0077433D01*
X0067890Y0077460D01*
X0067945Y0077483D01*
X0068002Y0077503D01*
X0068061Y0077519D01*
X0068120Y0077532D01*
X0068179Y0077541D01*
X0068240Y0077546D01*
X0068300Y0077548D01*
X0085300Y0077548D01*
X0085360Y0077546D01*
X0085421Y0077541D01*
X0085480Y0077532D01*
X0085539Y0077519D01*
X0085598Y0077503D01*
X0085655Y0077483D01*
X0085710Y0077460D01*
X0085765Y0077433D01*
X0085817Y0077404D01*
X0085868Y0077371D01*
X0085917Y0077335D01*
X0085963Y0077297D01*
X0086007Y0077255D01*
X0086049Y0077211D01*
X0086087Y0077165D01*
X0086123Y0077116D01*
X0086156Y0077065D01*
X0086185Y0077013D01*
X0086212Y0076958D01*
X0086235Y0076903D01*
X0086255Y0076846D01*
X0086271Y0076787D01*
X0086284Y0076728D01*
X0086293Y0076669D01*
X0086298Y0076608D01*
X0086300Y0076548D01*
X0086300Y0068548D01*
X0086298Y0068488D01*
X0086293Y0068427D01*
X0086284Y0068368D01*
X0086271Y0068309D01*
X0086255Y0068250D01*
X0086235Y0068193D01*
X0086212Y0068138D01*
X0086185Y0068083D01*
X0086156Y0068031D01*
X0086123Y0067980D01*
X0086087Y0067931D01*
X0086049Y0067885D01*
X0086007Y0067841D01*
X0085963Y0067799D01*
X0085917Y0067761D01*
X0085868Y0067725D01*
X0085817Y0067692D01*
X0085765Y0067663D01*
X0085710Y0067636D01*
X0085655Y0067613D01*
X0085598Y0067593D01*
X0085539Y0067577D01*
X0085480Y0067564D01*
X0085421Y0067555D01*
X0085360Y0067550D01*
X0085300Y0067548D01*
X0078300Y0072548D02*
X0077800Y0072548D01*
X0075800Y0072548D02*
X0075300Y0072548D01*
X0061300Y0062548D02*
X0061300Y0061048D01*
X0061298Y0060988D01*
X0061293Y0060927D01*
X0061284Y0060868D01*
X0061271Y0060809D01*
X0061255Y0060750D01*
X0061235Y0060693D01*
X0061212Y0060638D01*
X0061185Y0060583D01*
X0061156Y0060531D01*
X0061123Y0060480D01*
X0061087Y0060431D01*
X0061049Y0060385D01*
X0061007Y0060341D01*
X0060963Y0060299D01*
X0060917Y0060261D01*
X0060868Y0060225D01*
X0060817Y0060192D01*
X0060765Y0060163D01*
X0060710Y0060136D01*
X0060655Y0060113D01*
X0060598Y0060093D01*
X0060539Y0060077D01*
X0060480Y0060064D01*
X0060421Y0060055D01*
X0060360Y0060050D01*
X0060300Y0060048D01*
X0053300Y0060048D01*
X0053240Y0060050D01*
X0053179Y0060055D01*
X0053120Y0060064D01*
X0053061Y0060077D01*
X0053002Y0060093D01*
X0052945Y0060113D01*
X0052890Y0060136D01*
X0052835Y0060163D01*
X0052783Y0060192D01*
X0052732Y0060225D01*
X0052683Y0060261D01*
X0052637Y0060299D01*
X0052593Y0060341D01*
X0052551Y0060385D01*
X0052513Y0060431D01*
X0052477Y0060480D01*
X0052444Y0060531D01*
X0052415Y0060583D01*
X0052388Y0060638D01*
X0052365Y0060693D01*
X0052345Y0060750D01*
X0052329Y0060809D01*
X0052316Y0060868D01*
X0052307Y0060927D01*
X0052302Y0060988D01*
X0052300Y0061048D01*
X0052300Y0062548D01*
X0052800Y0063048D01*
X0052800Y0082048D01*
X0052300Y0082548D01*
X0052300Y0084048D01*
X0052302Y0084108D01*
X0052307Y0084169D01*
X0052316Y0084228D01*
X0052329Y0084287D01*
X0052345Y0084346D01*
X0052365Y0084403D01*
X0052388Y0084458D01*
X0052415Y0084513D01*
X0052444Y0084565D01*
X0052477Y0084616D01*
X0052513Y0084665D01*
X0052551Y0084711D01*
X0052593Y0084755D01*
X0052637Y0084797D01*
X0052683Y0084835D01*
X0052732Y0084871D01*
X0052783Y0084904D01*
X0052835Y0084933D01*
X0052890Y0084960D01*
X0052945Y0084983D01*
X0053002Y0085003D01*
X0053061Y0085019D01*
X0053120Y0085032D01*
X0053179Y0085041D01*
X0053240Y0085046D01*
X0053300Y0085048D01*
X0060300Y0085048D01*
X0060360Y0085046D01*
X0060421Y0085041D01*
X0060480Y0085032D01*
X0060539Y0085019D01*
X0060598Y0085003D01*
X0060655Y0084983D01*
X0060710Y0084960D01*
X0060765Y0084933D01*
X0060817Y0084904D01*
X0060868Y0084871D01*
X0060917Y0084835D01*
X0060963Y0084797D01*
X0061007Y0084755D01*
X0061049Y0084711D01*
X0061087Y0084665D01*
X0061123Y0084616D01*
X0061156Y0084565D01*
X0061185Y0084513D01*
X0061212Y0084458D01*
X0061235Y0084403D01*
X0061255Y0084346D01*
X0061271Y0084287D01*
X0061284Y0084228D01*
X0061293Y0084169D01*
X0061298Y0084108D01*
X0061300Y0084048D01*
X0061300Y0082548D01*
X0060800Y0082048D01*
X0060800Y0063048D01*
X0061300Y0062548D01*
X0046300Y0062548D02*
X0046300Y0061048D01*
X0046298Y0060988D01*
X0046293Y0060927D01*
X0046284Y0060868D01*
X0046271Y0060809D01*
X0046255Y0060750D01*
X0046235Y0060693D01*
X0046212Y0060638D01*
X0046185Y0060583D01*
X0046156Y0060531D01*
X0046123Y0060480D01*
X0046087Y0060431D01*
X0046049Y0060385D01*
X0046007Y0060341D01*
X0045963Y0060299D01*
X0045917Y0060261D01*
X0045868Y0060225D01*
X0045817Y0060192D01*
X0045765Y0060163D01*
X0045710Y0060136D01*
X0045655Y0060113D01*
X0045598Y0060093D01*
X0045539Y0060077D01*
X0045480Y0060064D01*
X0045421Y0060055D01*
X0045360Y0060050D01*
X0045300Y0060048D01*
X0038300Y0060048D01*
X0038240Y0060050D01*
X0038179Y0060055D01*
X0038120Y0060064D01*
X0038061Y0060077D01*
X0038002Y0060093D01*
X0037945Y0060113D01*
X0037890Y0060136D01*
X0037835Y0060163D01*
X0037783Y0060192D01*
X0037732Y0060225D01*
X0037683Y0060261D01*
X0037637Y0060299D01*
X0037593Y0060341D01*
X0037551Y0060385D01*
X0037513Y0060431D01*
X0037477Y0060480D01*
X0037444Y0060531D01*
X0037415Y0060583D01*
X0037388Y0060638D01*
X0037365Y0060693D01*
X0037345Y0060750D01*
X0037329Y0060809D01*
X0037316Y0060868D01*
X0037307Y0060927D01*
X0037302Y0060988D01*
X0037300Y0061048D01*
X0037300Y0062548D01*
X0037800Y0063048D01*
X0037800Y0082048D01*
X0037300Y0082548D01*
X0037300Y0084048D01*
X0037302Y0084108D01*
X0037307Y0084169D01*
X0037316Y0084228D01*
X0037329Y0084287D01*
X0037345Y0084346D01*
X0037365Y0084403D01*
X0037388Y0084458D01*
X0037415Y0084513D01*
X0037444Y0084565D01*
X0037477Y0084616D01*
X0037513Y0084665D01*
X0037551Y0084711D01*
X0037593Y0084755D01*
X0037637Y0084797D01*
X0037683Y0084835D01*
X0037732Y0084871D01*
X0037783Y0084904D01*
X0037835Y0084933D01*
X0037890Y0084960D01*
X0037945Y0084983D01*
X0038002Y0085003D01*
X0038061Y0085019D01*
X0038120Y0085032D01*
X0038179Y0085041D01*
X0038240Y0085046D01*
X0038300Y0085048D01*
X0045300Y0085048D01*
X0045360Y0085046D01*
X0045421Y0085041D01*
X0045480Y0085032D01*
X0045539Y0085019D01*
X0045598Y0085003D01*
X0045655Y0084983D01*
X0045710Y0084960D01*
X0045765Y0084933D01*
X0045817Y0084904D01*
X0045868Y0084871D01*
X0045917Y0084835D01*
X0045963Y0084797D01*
X0046007Y0084755D01*
X0046049Y0084711D01*
X0046087Y0084665D01*
X0046123Y0084616D01*
X0046156Y0084565D01*
X0046185Y0084513D01*
X0046212Y0084458D01*
X0046235Y0084403D01*
X0046255Y0084346D01*
X0046271Y0084287D01*
X0046284Y0084228D01*
X0046293Y0084169D01*
X0046298Y0084108D01*
X0046300Y0084048D01*
X0046300Y0082548D01*
X0045800Y0082048D01*
X0045800Y0063048D01*
X0046300Y0062548D01*
D14*
X0075800Y0069548D02*
X0075800Y0072548D01*
X0075800Y0075548D01*
X0077800Y0075548D02*
X0077800Y0072548D01*
X0077800Y0069548D01*
X0083800Y0048548D02*
X0086800Y0048548D01*
X0089800Y0048548D01*
X0089800Y0046548D02*
X0086800Y0046548D01*
X0083800Y0046548D01*
X0115800Y0025548D02*
X0115800Y0022548D01*
X0115800Y0019548D01*
X0117800Y0019548D02*
X0117800Y0022548D01*
X0117800Y0025548D01*
X0137550Y0186548D02*
X0140550Y0186548D01*
X0143550Y0186548D01*
X0143550Y0188548D02*
X0140550Y0188548D01*
X0137550Y0188548D01*
X0066800Y0203048D02*
X0066608Y0203046D01*
X0066416Y0203039D01*
X0066224Y0203027D01*
X0066032Y0203011D01*
X0065841Y0202990D01*
X0065651Y0202965D01*
X0065461Y0202935D01*
X0065272Y0202901D01*
X0065084Y0202862D01*
X0064897Y0202818D01*
X0064711Y0202770D01*
X0064526Y0202718D01*
X0064342Y0202661D01*
X0064160Y0202600D01*
X0063980Y0202534D01*
X0063801Y0202464D01*
X0063623Y0202390D01*
X0063448Y0202312D01*
X0063274Y0202229D01*
X0063103Y0202142D01*
X0062934Y0202052D01*
X0062767Y0201957D01*
X0062602Y0201858D01*
X0062439Y0201755D01*
X0062280Y0201648D01*
X0062122Y0201538D01*
X0061968Y0201424D01*
X0061816Y0201306D01*
X0061667Y0201184D01*
X0061521Y0201059D01*
X0061379Y0200931D01*
X0061239Y0200799D01*
X0061102Y0200664D01*
X0060969Y0200525D01*
X0060839Y0200384D01*
X0060713Y0200239D01*
X0060590Y0200091D01*
X0060471Y0199941D01*
X0060355Y0199787D01*
X0060243Y0199631D01*
X0060135Y0199472D01*
X0060030Y0199311D01*
X0059930Y0199147D01*
X0059834Y0198981D01*
X0059741Y0198813D01*
X0059854Y0191079D02*
X0059953Y0190910D01*
X0060057Y0190744D01*
X0060164Y0190580D01*
X0060275Y0190419D01*
X0060390Y0190261D01*
X0060509Y0190106D01*
X0060632Y0189953D01*
X0060758Y0189804D01*
X0060888Y0189658D01*
X0061022Y0189515D01*
X0061159Y0189375D01*
X0061299Y0189239D01*
X0061443Y0189106D01*
X0061590Y0188977D01*
X0061740Y0188851D01*
X0061893Y0188730D01*
X0062049Y0188611D01*
X0062208Y0188497D01*
X0062369Y0188387D01*
X0062534Y0188281D01*
X0062700Y0188178D01*
X0062870Y0188080D01*
X0063041Y0187986D01*
X0063215Y0187896D01*
X0063391Y0187811D01*
X0063569Y0187729D01*
X0063749Y0187653D01*
X0063931Y0187580D01*
X0064114Y0187512D01*
X0064299Y0187449D01*
X0064486Y0187390D01*
X0064674Y0187336D01*
X0064863Y0187286D01*
X0065053Y0187241D01*
X0065245Y0187201D01*
X0065437Y0187165D01*
X0065630Y0187134D01*
X0065824Y0187108D01*
X0066019Y0187086D01*
X0066214Y0187070D01*
X0066409Y0187058D01*
X0066605Y0187050D01*
X0066800Y0187048D01*
X0066993Y0187050D01*
X0067186Y0187057D01*
X0067378Y0187069D01*
X0067571Y0187085D01*
X0067763Y0187106D01*
X0067954Y0187132D01*
X0068144Y0187162D01*
X0068334Y0187197D01*
X0068523Y0187236D01*
X0068711Y0187280D01*
X0068898Y0187328D01*
X0069084Y0187381D01*
X0069268Y0187438D01*
X0069451Y0187500D01*
X0069632Y0187566D01*
X0069812Y0187637D01*
X0069990Y0187711D01*
X0070166Y0187790D01*
X0070340Y0187874D01*
X0070512Y0187961D01*
X0070682Y0188053D01*
X0070849Y0188149D01*
X0071015Y0188248D01*
X0071178Y0188352D01*
X0071338Y0188459D01*
X0071495Y0188571D01*
X0071650Y0188686D01*
X0071802Y0188805D01*
X0071951Y0188927D01*
X0072098Y0189053D01*
X0072241Y0189183D01*
X0072381Y0189316D01*
X0072517Y0189452D01*
X0072651Y0189592D01*
X0072780Y0189734D01*
X0072907Y0189880D01*
X0072946Y0200170D02*
X0072819Y0200318D01*
X0072689Y0200463D01*
X0072556Y0200604D01*
X0072419Y0200743D01*
X0072279Y0200878D01*
X0072135Y0201009D01*
X0071988Y0201137D01*
X0071839Y0201262D01*
X0071686Y0201383D01*
X0071531Y0201500D01*
X0071372Y0201613D01*
X0071211Y0201722D01*
X0071047Y0201827D01*
X0070881Y0201929D01*
X0070712Y0202026D01*
X0070542Y0202119D01*
X0070368Y0202208D01*
X0070193Y0202293D01*
X0070016Y0202373D01*
X0069837Y0202449D01*
X0069656Y0202521D01*
X0069473Y0202588D01*
X0069289Y0202651D01*
X0069103Y0202709D01*
X0068916Y0202763D01*
X0068728Y0202812D01*
X0068538Y0202857D01*
X0068348Y0202897D01*
X0068156Y0202932D01*
X0067964Y0202963D01*
X0067771Y0202989D01*
X0067577Y0203010D01*
X0067383Y0203027D01*
X0067189Y0203039D01*
X0066995Y0203046D01*
X0066800Y0203048D01*
X0041800Y0203048D02*
X0041608Y0203046D01*
X0041416Y0203039D01*
X0041224Y0203027D01*
X0041032Y0203011D01*
X0040841Y0202990D01*
X0040651Y0202965D01*
X0040461Y0202935D01*
X0040272Y0202901D01*
X0040084Y0202862D01*
X0039897Y0202818D01*
X0039711Y0202770D01*
X0039526Y0202718D01*
X0039342Y0202661D01*
X0039160Y0202600D01*
X0038980Y0202534D01*
X0038801Y0202464D01*
X0038623Y0202390D01*
X0038448Y0202312D01*
X0038274Y0202229D01*
X0038103Y0202142D01*
X0037934Y0202052D01*
X0037767Y0201957D01*
X0037602Y0201858D01*
X0037439Y0201755D01*
X0037280Y0201648D01*
X0037122Y0201538D01*
X0036968Y0201424D01*
X0036816Y0201306D01*
X0036667Y0201184D01*
X0036521Y0201059D01*
X0036379Y0200931D01*
X0036239Y0200799D01*
X0036102Y0200664D01*
X0035969Y0200525D01*
X0035839Y0200384D01*
X0035713Y0200239D01*
X0035590Y0200091D01*
X0035471Y0199941D01*
X0035355Y0199787D01*
X0035243Y0199631D01*
X0035135Y0199472D01*
X0035030Y0199311D01*
X0034930Y0199147D01*
X0034834Y0198981D01*
X0034741Y0198813D01*
X0034854Y0191079D02*
X0034953Y0190910D01*
X0035057Y0190744D01*
X0035164Y0190580D01*
X0035275Y0190419D01*
X0035390Y0190261D01*
X0035509Y0190106D01*
X0035632Y0189953D01*
X0035758Y0189804D01*
X0035888Y0189658D01*
X0036022Y0189515D01*
X0036159Y0189375D01*
X0036299Y0189239D01*
X0036443Y0189106D01*
X0036590Y0188977D01*
X0036740Y0188851D01*
X0036893Y0188730D01*
X0037049Y0188611D01*
X0037208Y0188497D01*
X0037369Y0188387D01*
X0037534Y0188281D01*
X0037700Y0188178D01*
X0037870Y0188080D01*
X0038041Y0187986D01*
X0038215Y0187896D01*
X0038391Y0187811D01*
X0038569Y0187729D01*
X0038749Y0187653D01*
X0038931Y0187580D01*
X0039114Y0187512D01*
X0039299Y0187449D01*
X0039486Y0187390D01*
X0039674Y0187336D01*
X0039863Y0187286D01*
X0040053Y0187241D01*
X0040245Y0187201D01*
X0040437Y0187165D01*
X0040630Y0187134D01*
X0040824Y0187108D01*
X0041019Y0187086D01*
X0041214Y0187070D01*
X0041409Y0187058D01*
X0041605Y0187050D01*
X0041800Y0187048D01*
X0041993Y0187050D01*
X0042186Y0187057D01*
X0042378Y0187069D01*
X0042571Y0187085D01*
X0042763Y0187106D01*
X0042954Y0187132D01*
X0043144Y0187162D01*
X0043334Y0187197D01*
X0043523Y0187236D01*
X0043711Y0187280D01*
X0043898Y0187328D01*
X0044084Y0187381D01*
X0044268Y0187438D01*
X0044451Y0187500D01*
X0044632Y0187566D01*
X0044812Y0187637D01*
X0044990Y0187711D01*
X0045166Y0187790D01*
X0045340Y0187874D01*
X0045512Y0187961D01*
X0045682Y0188053D01*
X0045849Y0188149D01*
X0046015Y0188248D01*
X0046178Y0188352D01*
X0046338Y0188459D01*
X0046495Y0188571D01*
X0046650Y0188686D01*
X0046802Y0188805D01*
X0046951Y0188927D01*
X0047098Y0189053D01*
X0047241Y0189183D01*
X0047381Y0189316D01*
X0047517Y0189452D01*
X0047651Y0189592D01*
X0047780Y0189734D01*
X0047907Y0189880D01*
X0047946Y0200170D02*
X0047819Y0200318D01*
X0047689Y0200463D01*
X0047556Y0200604D01*
X0047419Y0200743D01*
X0047279Y0200878D01*
X0047135Y0201009D01*
X0046988Y0201137D01*
X0046839Y0201262D01*
X0046686Y0201383D01*
X0046531Y0201500D01*
X0046372Y0201613D01*
X0046211Y0201722D01*
X0046047Y0201827D01*
X0045881Y0201929D01*
X0045712Y0202026D01*
X0045542Y0202119D01*
X0045368Y0202208D01*
X0045193Y0202293D01*
X0045016Y0202373D01*
X0044837Y0202449D01*
X0044656Y0202521D01*
X0044473Y0202588D01*
X0044289Y0202651D01*
X0044103Y0202709D01*
X0043916Y0202763D01*
X0043728Y0202812D01*
X0043538Y0202857D01*
X0043348Y0202897D01*
X0043156Y0202932D01*
X0042964Y0202963D01*
X0042771Y0202989D01*
X0042577Y0203010D01*
X0042383Y0203027D01*
X0042189Y0203039D01*
X0041995Y0203046D01*
X0041800Y0203048D01*
D15*
X0046800Y0176748D03*
X0071800Y0176748D03*
X0071800Y0148348D03*
X0046800Y0148348D03*
X0041800Y0086748D03*
X0056800Y0086748D03*
X0056800Y0058348D03*
X0041800Y0058348D03*
D16*
X0045550Y0030048D02*
X0030550Y0030048D01*
X0023050Y0022548D01*
X0023050Y0017548D01*
X0030550Y0010048D01*
X0045550Y0010048D01*
X0053050Y0017548D01*
X0053050Y0022548D01*
X0045550Y0030048D01*
X0066800Y0022548D02*
X0066800Y0017548D01*
X0074300Y0010048D01*
X0089300Y0010048D01*
X0096800Y0017548D01*
X0096800Y0022548D01*
X0089300Y0030048D01*
X0074300Y0030048D01*
X0066800Y0022548D01*
X0079300Y0092548D02*
X0084300Y0092548D01*
X0086800Y0095048D01*
X0086800Y0100048D01*
X0084300Y0102548D01*
X0086800Y0105048D01*
X0086800Y0110048D01*
X0084300Y0112548D01*
X0086800Y0115048D01*
X0086800Y0120048D01*
X0084300Y0122548D01*
X0079300Y0122548D01*
X0076800Y0120048D01*
X0076800Y0115048D01*
X0079300Y0112548D01*
X0076800Y0110048D01*
X0076800Y0105048D01*
X0079300Y0102548D01*
X0076800Y0100048D01*
X0076800Y0095048D01*
X0079300Y0092548D01*
D17*
X0074850Y0092587D02*
X0074850Y0091853D01*
X0074483Y0091486D01*
X0074116Y0091486D01*
X0073749Y0091853D01*
X0073749Y0092587D01*
X0074116Y0092954D01*
X0074483Y0092954D01*
X0074850Y0092587D01*
X0073749Y0092587D02*
X0073382Y0092954D01*
X0073015Y0092954D01*
X0072648Y0092587D01*
X0072648Y0091853D01*
X0073015Y0091486D01*
X0073382Y0091486D01*
X0073749Y0091853D01*
X0072648Y0093696D02*
X0073382Y0094430D01*
X0072648Y0095164D01*
X0074850Y0095164D01*
X0074850Y0095906D02*
X0072648Y0095906D01*
X0073749Y0095906D02*
X0073749Y0097374D01*
X0074483Y0098116D02*
X0074850Y0098116D01*
X0074850Y0099584D01*
X0075217Y0100326D02*
X0075217Y0101794D01*
X0074483Y0102536D02*
X0074850Y0102903D01*
X0074850Y0103637D01*
X0074483Y0104004D01*
X0073015Y0104004D01*
X0072648Y0103637D01*
X0072648Y0102903D01*
X0073015Y0102536D01*
X0074483Y0102536D01*
X0073015Y0099584D02*
X0074483Y0098116D01*
X0074850Y0097374D02*
X0072648Y0097374D01*
X0072648Y0098116D02*
X0072648Y0099584D01*
X0073015Y0099584D01*
X0073015Y0104746D02*
X0073382Y0104746D01*
X0073749Y0105113D01*
X0073749Y0105847D01*
X0074116Y0106214D01*
X0074483Y0106214D01*
X0074850Y0105847D01*
X0074850Y0105113D01*
X0074483Y0104746D01*
X0073015Y0104746D02*
X0072648Y0105113D01*
X0072648Y0105847D01*
X0073015Y0106214D01*
X0073015Y0106955D02*
X0074483Y0106955D01*
X0074850Y0107322D01*
X0074850Y0108056D01*
X0074483Y0108423D01*
X0074850Y0109165D02*
X0074850Y0109899D01*
X0074850Y0109532D02*
X0072648Y0109532D01*
X0072648Y0109165D02*
X0072648Y0109899D01*
X0072648Y0110639D02*
X0074850Y0110639D01*
X0074850Y0112107D01*
X0074850Y0112848D02*
X0074850Y0114316D01*
X0074850Y0115058D02*
X0073382Y0115058D01*
X0072648Y0115792D01*
X0073382Y0116526D01*
X0074850Y0116526D01*
X0073749Y0116526D02*
X0073749Y0115058D01*
X0072648Y0112848D02*
X0074850Y0112848D01*
X0073015Y0108423D02*
X0072648Y0108056D01*
X0072648Y0107322D01*
X0073015Y0106955D01*
X0072648Y0117268D02*
X0072648Y0118736D01*
X0072648Y0118002D02*
X0074850Y0118002D01*
X0074483Y0119478D02*
X0074850Y0119845D01*
X0074850Y0120579D01*
X0074483Y0120946D01*
X0073015Y0120946D01*
X0072648Y0120579D01*
X0072648Y0119845D01*
X0073015Y0119478D01*
X0074483Y0119478D01*
X0074116Y0121688D02*
X0074116Y0122789D01*
X0073749Y0123156D01*
X0073015Y0123156D01*
X0072648Y0122789D01*
X0072648Y0121688D01*
X0074850Y0121688D01*
X0074116Y0122422D02*
X0074850Y0123156D01*
X0074850Y0093696D02*
X0072648Y0093696D01*
D18*
X0164871Y0026013D02*
X0164871Y0009083D01*
X0198729Y0009083D01*
X0198729Y0026013D01*
X0164871Y0026013D01*
X0173926Y0007706D02*
X0173926Y0001800D01*
X0175894Y0001800D01*
X0177863Y0003769D01*
X0179831Y0001800D01*
X0181800Y0001800D01*
X0181800Y0007706D01*
D19*
X0157252Y0023548D02*
X0155673Y0023548D01*
X0155046Y0029048D02*
X0138554Y0029048D01*
X0137927Y0023548D02*
X0136348Y0023548D01*
X0145673Y0023548D02*
X0147927Y0023548D01*
X0155046Y0029048D02*
X0155199Y0028849D01*
X0155347Y0028647D01*
X0155490Y0028442D01*
X0155628Y0028233D01*
X0155761Y0028021D01*
X0155889Y0027806D01*
X0156011Y0027588D01*
X0156129Y0027367D01*
X0156241Y0027143D01*
X0156348Y0026917D01*
X0156449Y0026688D01*
X0156545Y0026457D01*
X0156636Y0026223D01*
X0156721Y0025988D01*
X0156800Y0025750D01*
X0156873Y0025511D01*
X0156941Y0025270D01*
X0157003Y0025028D01*
X0157059Y0024784D01*
X0157110Y0024538D01*
X0157154Y0024292D01*
X0157193Y0024045D01*
X0157225Y0023797D01*
X0157252Y0023548D01*
X0143704Y0012515D02*
X0143462Y0012593D01*
X0143222Y0012677D01*
X0142984Y0012766D01*
X0142748Y0012862D01*
X0142514Y0012963D01*
X0142283Y0013069D01*
X0142055Y0013182D01*
X0141829Y0013299D01*
X0141606Y0013422D01*
X0141387Y0013551D01*
X0141170Y0013685D01*
X0140957Y0013824D01*
X0140747Y0013968D01*
X0140541Y0014117D01*
X0140339Y0014271D01*
X0140140Y0014430D01*
X0139945Y0014594D01*
X0139754Y0014763D01*
X0139568Y0014936D01*
X0139385Y0015113D01*
X0139207Y0015295D01*
X0139034Y0015481D01*
X0138865Y0015672D01*
X0138701Y0015866D01*
X0138541Y0016064D01*
X0138386Y0016266D01*
X0138237Y0016472D01*
X0138092Y0016681D01*
X0137952Y0016894D01*
X0137818Y0017110D01*
X0137689Y0017330D01*
X0137565Y0017552D01*
X0137446Y0017777D01*
X0137334Y0018005D01*
X0137226Y0018236D01*
X0137125Y0018469D01*
X0137029Y0018705D01*
X0136938Y0018943D01*
X0136854Y0019183D01*
X0136775Y0019425D01*
X0136702Y0019669D01*
X0136636Y0019915D01*
X0136575Y0020162D01*
X0136520Y0020410D01*
X0136471Y0020660D01*
X0136428Y0020911D01*
X0136392Y0021163D01*
X0136361Y0021415D01*
X0136337Y0021669D01*
X0136319Y0021922D01*
X0136307Y0022177D01*
X0136301Y0022431D01*
X0136301Y0022686D01*
X0136307Y0022940D01*
X0136320Y0023194D01*
X0136339Y0023448D01*
X0136364Y0023701D01*
X0136395Y0023954D01*
X0136432Y0024206D01*
X0136475Y0024456D01*
X0136524Y0024706D01*
X0136579Y0024955D01*
X0136641Y0025202D01*
X0136708Y0025447D01*
X0136781Y0025691D01*
X0136860Y0025933D01*
X0136945Y0026172D01*
X0137036Y0026410D01*
X0137133Y0026646D01*
X0137235Y0026879D01*
X0137343Y0027109D01*
X0137456Y0027337D01*
X0137575Y0027562D01*
X0137699Y0027784D01*
X0137828Y0028003D01*
X0137963Y0028219D01*
X0138103Y0028432D01*
X0138249Y0028641D01*
X0138399Y0028846D01*
X0138554Y0029048D01*
X0157252Y0023548D02*
X0157274Y0023293D01*
X0157289Y0023037D01*
X0157297Y0022781D01*
X0157300Y0022524D01*
X0157296Y0022268D01*
X0157286Y0022012D01*
X0157270Y0021756D01*
X0157248Y0021501D01*
X0157219Y0021246D01*
X0157184Y0020992D01*
X0157143Y0020739D01*
X0157096Y0020487D01*
X0157042Y0020237D01*
X0156983Y0019988D01*
X0156917Y0019740D01*
X0156846Y0019494D01*
X0156768Y0019249D01*
X0156685Y0019007D01*
X0156596Y0018767D01*
X0156500Y0018529D01*
X0156399Y0018293D01*
X0156293Y0018060D01*
X0156180Y0017830D01*
X0156062Y0017602D01*
X0155939Y0017378D01*
X0155810Y0017156D01*
X0155676Y0016938D01*
X0155536Y0016723D01*
X0155391Y0016512D01*
X0155241Y0016304D01*
X0155087Y0016100D01*
X0154927Y0015899D01*
X0154762Y0015703D01*
X0154593Y0015511D01*
X0154418Y0015322D01*
X0154240Y0015139D01*
X0154057Y0014959D01*
X0153869Y0014784D01*
X0153678Y0014614D01*
X0153482Y0014449D01*
X0153282Y0014288D01*
X0153079Y0014132D01*
X0152872Y0013982D01*
X0152661Y0013836D01*
X0152446Y0013695D01*
X0152229Y0013560D01*
X0152008Y0013430D01*
X0151784Y0013306D01*
X0151557Y0013187D01*
X0151327Y0013074D01*
X0151094Y0012966D01*
X0150859Y0012864D01*
X0150621Y0012768D01*
X0150382Y0012678D01*
X0150140Y0012593D01*
X0149896Y0012515D01*
X0086800Y0020048D02*
X0084300Y0020048D01*
X0084300Y0017548D02*
X0081800Y0020048D01*
X0076800Y0020048D01*
X0043050Y0020048D02*
X0040550Y0020048D01*
X0040550Y0017548D02*
X0038050Y0020048D01*
X0033050Y0020048D01*
X0021800Y0192548D02*
X0021800Y0202548D01*
X0016800Y0197548D01*
X0021800Y0192548D01*
X0021800Y0192994D02*
X0021354Y0192994D01*
X0021800Y0193493D02*
X0020855Y0193493D01*
X0020357Y0193991D02*
X0021800Y0193991D01*
X0021800Y0194490D02*
X0019858Y0194490D01*
X0019360Y0194988D02*
X0021800Y0194988D01*
X0021800Y0195487D02*
X0018861Y0195487D01*
X0018363Y0195985D02*
X0021800Y0195985D01*
X0021800Y0196484D02*
X0017864Y0196484D01*
X0017366Y0196982D02*
X0021800Y0196982D01*
X0021800Y0197481D02*
X0016867Y0197481D01*
X0017231Y0197979D02*
X0021800Y0197979D01*
X0021800Y0198478D02*
X0017730Y0198478D01*
X0018228Y0198976D02*
X0021800Y0198976D01*
X0021800Y0199475D02*
X0018727Y0199475D01*
X0019225Y0199973D02*
X0021800Y0199973D01*
X0021800Y0200472D02*
X0019724Y0200472D01*
X0020222Y0200970D02*
X0021800Y0200970D01*
X0021800Y0201469D02*
X0020721Y0201469D01*
X0021219Y0201967D02*
X0021800Y0201967D01*
X0021800Y0202466D02*
X0021718Y0202466D01*
D20*
X0146800Y0124548D03*
X0146800Y0054548D03*
M02*
