%
M48
M72
T01C0.02362
T02C0.03150
T03C0.03200
T04C0.03937
T05C0.04000
T06C0.07480
%
T01
X21800Y62548
X71800Y62548
X126800Y37548
X86800Y152548
X61800Y172548
T02
X164221Y53847
X168946Y50698
X164221Y47548
X168946Y44398
X164221Y41249
X173926Y17548
X181800Y17548
X189674Y17548
T03
X41800Y52548
X56800Y52548
X71800Y72548
X81800Y72548
X96800Y72548
X96800Y62548
X86800Y52548
X86800Y42548
X111800Y22548
X121800Y22548
X141800Y22548
X146800Y15048
X151800Y22548
X146800Y42548
X146800Y62548
X126800Y62548
X126800Y72548
X126800Y82548
X126800Y92548
X126800Y102548
X126800Y112548
X126800Y122548
X126800Y132548
X126800Y142548
X126800Y152548
X126800Y162548
X126800Y172548
X126800Y182548
X126800Y192548
X140550Y192548
X140550Y182548
X96800Y182548
X96800Y192548
X96800Y172548
X96800Y162548
X96800Y152548
X96800Y142548
X96800Y132548
X96800Y122548
X96800Y112548
X96800Y102548
X96800Y92548
X96800Y82548
X56800Y92548
X41800Y92548
X46800Y142548
X71800Y142548
X71800Y182548
X71800Y195048
X61800Y195048
X46800Y195048
X36800Y195048
X46800Y182548
X146800Y132548
X146800Y112548
T04
X166052Y17548
X197548Y17548
T05
X28050Y20048
X48050Y20048
X71800Y20048
X91800Y20048
X81800Y97548
X81800Y107548
X81800Y117548
X11800Y112548
X11800Y102548
X11800Y92548
X11800Y82548
X11800Y72548
X11800Y122548
X11800Y132548
X11800Y142548
X11800Y157548
X11800Y167548
X11800Y177548
X11800Y187548
X11800Y197548
X198800Y142548
X198800Y132548
X198800Y122548
X198800Y112548
X198800Y102548
X198800Y92548
X198800Y82548
X198800Y72548
T06
X184300Y33178
X184300Y61918
M30
