G75*
%MOIN*%
%OFA0B0*%
%FSLAX25Y25*%
%IPPOS*%
%LPD*%
%AMOC8*
5,1,8,0,0,1.08239X$1,22.5*
%
%ADD10C,0.00000*%
%ADD11OC8,0.05200*%
%ADD12C,0.05200*%
%ADD13C,0.07400*%
%ADD14C,0.05150*%
%ADD15C,0.11220*%
%ADD16C,0.05937*%
%ADD17C,0.05200*%
%ADD18C,0.01600*%
%ADD19C,0.03562*%
D10*
X0006800Y0007548D02*
X0006800Y0204398D01*
X0203650Y0204398D01*
X0203650Y0007548D01*
X0006800Y0007548D01*
D11*
X0041800Y0052548D03*
X0056800Y0052548D03*
X0071800Y0072548D03*
X0081800Y0072548D03*
X0086800Y0052548D03*
X0086800Y0042548D03*
X0111800Y0022548D03*
X0121800Y0022548D03*
X0141800Y0022548D03*
X0146800Y0015048D03*
X0151800Y0022548D03*
X0146800Y0062548D03*
X0146800Y0132548D03*
X0140550Y0182548D03*
X0140550Y0192548D03*
X0071800Y0195048D03*
X0061800Y0195048D03*
X0071800Y0182548D03*
X0046800Y0182548D03*
X0046800Y0195048D03*
X0036800Y0195048D03*
X0046800Y0142548D03*
X0071800Y0142548D03*
X0056800Y0092548D03*
X0041800Y0092548D03*
D12*
X0094200Y0092548D02*
X0099400Y0092548D01*
X0099400Y0102548D02*
X0094200Y0102548D01*
X0094200Y0112548D02*
X0099400Y0112548D01*
X0099400Y0122548D02*
X0094200Y0122548D01*
X0094200Y0132548D02*
X0099400Y0132548D01*
X0099400Y0142548D02*
X0094200Y0142548D01*
X0094200Y0152548D02*
X0099400Y0152548D01*
X0099400Y0162548D02*
X0094200Y0162548D01*
X0094200Y0172548D02*
X0099400Y0172548D01*
X0099400Y0182548D02*
X0094200Y0182548D01*
X0094200Y0192548D02*
X0099400Y0192548D01*
X0124200Y0192548D02*
X0129400Y0192548D01*
X0129400Y0182548D02*
X0124200Y0182548D01*
X0124200Y0172548D02*
X0129400Y0172548D01*
X0129400Y0162548D02*
X0124200Y0162548D01*
X0124200Y0152548D02*
X0129400Y0152548D01*
X0129400Y0142548D02*
X0124200Y0142548D01*
X0124200Y0132548D02*
X0129400Y0132548D01*
X0129400Y0122548D02*
X0124200Y0122548D01*
X0124200Y0112548D02*
X0129400Y0112548D01*
X0129400Y0102548D02*
X0124200Y0102548D01*
X0124200Y0092548D02*
X0129400Y0092548D01*
X0129400Y0082548D02*
X0124200Y0082548D01*
X0124200Y0072548D02*
X0129400Y0072548D01*
X0129400Y0062548D02*
X0124200Y0062548D01*
X0099400Y0062548D02*
X0094200Y0062548D01*
X0094200Y0072548D02*
X0099400Y0072548D01*
X0099400Y0082548D02*
X0094200Y0082548D01*
D13*
X0081800Y0097548D03*
X0081800Y0107548D03*
X0081800Y0117548D03*
X0011800Y0112548D03*
X0011800Y0102548D03*
X0011800Y0092548D03*
X0011800Y0082548D03*
X0011800Y0072548D03*
X0011800Y0122548D03*
X0011800Y0132548D03*
X0011800Y0142548D03*
X0011800Y0157548D03*
X0011800Y0167548D03*
X0011800Y0177548D03*
X0011800Y0187548D03*
X0011800Y0197548D03*
X0028050Y0020048D03*
X0048050Y0020048D03*
X0071800Y0020048D03*
X0091800Y0020048D03*
X0198800Y0072548D03*
X0198800Y0082548D03*
X0198800Y0092548D03*
X0198800Y0102548D03*
X0198800Y0112548D03*
X0198800Y0122548D03*
X0198800Y0132548D03*
X0198800Y0142548D03*
D14*
X0164221Y0053847D03*
X0168946Y0050698D03*
X0164221Y0047548D03*
X0168946Y0044398D03*
X0164221Y0041249D03*
X0173926Y0017548D03*
X0181800Y0017548D03*
X0189674Y0017548D03*
D15*
X0184300Y0033178D03*
X0184300Y0061918D03*
D16*
X0197548Y0017548D03*
X0166052Y0017548D03*
D17*
X0146800Y0042548D03*
X0146800Y0112548D03*
D18*
X0148454Y0108254D02*
X0195033Y0108254D01*
X0195571Y0107716D02*
X0195976Y0107548D01*
X0195571Y0107380D01*
X0193968Y0105777D01*
X0193100Y0103682D01*
X0193100Y0101414D01*
X0193968Y0099319D01*
X0195571Y0097716D01*
X0195976Y0097548D01*
X0195571Y0097380D01*
X0193968Y0095777D01*
X0193100Y0093682D01*
X0193100Y0091414D01*
X0193968Y0089319D01*
X0195571Y0087716D01*
X0195976Y0087548D01*
X0195571Y0087380D01*
X0193968Y0085777D01*
X0193100Y0083682D01*
X0193100Y0081414D01*
X0193968Y0079319D01*
X0195571Y0077716D01*
X0196264Y0077429D01*
X0195917Y0077252D01*
X0195217Y0076743D01*
X0194605Y0076131D01*
X0194096Y0075431D01*
X0193703Y0074659D01*
X0193435Y0073836D01*
X0193300Y0072981D01*
X0193300Y0072748D01*
X0198600Y0072748D01*
X0198600Y0072348D01*
X0199000Y0072348D01*
X0199000Y0067048D01*
X0199233Y0067048D01*
X0200088Y0067183D01*
X0200911Y0067451D01*
X0201650Y0067828D01*
X0201650Y0020472D01*
X0200362Y0021760D01*
X0198536Y0022517D01*
X0196560Y0022517D01*
X0194734Y0021760D01*
X0193336Y0020362D01*
X0193334Y0020358D01*
X0192265Y0021426D01*
X0190584Y0022123D01*
X0188764Y0022123D01*
X0187083Y0021426D01*
X0185796Y0020139D01*
X0185737Y0019998D01*
X0185678Y0020139D01*
X0184391Y0021426D01*
X0182710Y0022123D01*
X0181185Y0022123D01*
X0167021Y0036287D01*
X0167021Y0037579D01*
X0168100Y0038657D01*
X0168583Y0039824D01*
X0169856Y0039824D01*
X0171537Y0040520D01*
X0172824Y0041807D01*
X0173520Y0043488D01*
X0173520Y0045308D01*
X0172824Y0046990D01*
X0172266Y0047548D01*
X0172824Y0048106D01*
X0173520Y0049788D01*
X0173520Y0051608D01*
X0172824Y0053289D01*
X0171537Y0054576D01*
X0169856Y0055272D01*
X0168358Y0055272D01*
X0168276Y0055527D01*
X0167963Y0056140D01*
X0167558Y0056697D01*
X0167071Y0057184D01*
X0166514Y0057589D01*
X0165901Y0057902D01*
X0165246Y0058114D01*
X0164566Y0058222D01*
X0164221Y0058222D01*
X0163877Y0058222D01*
X0163197Y0058114D01*
X0162542Y0057902D01*
X0161928Y0057589D01*
X0161371Y0057184D01*
X0160884Y0056697D01*
X0160480Y0056140D01*
X0160167Y0055527D01*
X0159954Y0054872D01*
X0159846Y0054192D01*
X0159846Y0053847D01*
X0159846Y0053503D01*
X0159954Y0052823D01*
X0160167Y0052168D01*
X0160480Y0051554D01*
X0160884Y0050997D01*
X0161043Y0050839D01*
X0160343Y0050139D01*
X0159646Y0048458D01*
X0159646Y0046638D01*
X0160343Y0044957D01*
X0160901Y0044398D01*
X0160343Y0043840D01*
X0159646Y0042159D01*
X0159646Y0040339D01*
X0160343Y0038657D01*
X0161421Y0037579D01*
X0161421Y0034570D01*
X0161848Y0033541D01*
X0173265Y0022123D01*
X0173016Y0022123D01*
X0171335Y0021426D01*
X0170266Y0020358D01*
X0170264Y0020362D01*
X0168866Y0021760D01*
X0167040Y0022517D01*
X0165064Y0022517D01*
X0163238Y0021760D01*
X0161840Y0020362D01*
X0161083Y0018536D01*
X0161083Y0016560D01*
X0161840Y0014734D01*
X0163238Y0013336D01*
X0165064Y0012580D01*
X0167040Y0012580D01*
X0168866Y0013336D01*
X0170264Y0014734D01*
X0170266Y0014738D01*
X0171335Y0013670D01*
X0173016Y0012973D01*
X0174836Y0012973D01*
X0176517Y0013670D01*
X0177804Y0014957D01*
X0177863Y0015098D01*
X0177922Y0014957D01*
X0179209Y0013670D01*
X0180890Y0012973D01*
X0182710Y0012973D01*
X0184391Y0013670D01*
X0185678Y0014957D01*
X0185737Y0015098D01*
X0185796Y0014957D01*
X0187083Y0013670D01*
X0188764Y0012973D01*
X0190584Y0012973D01*
X0192265Y0013670D01*
X0193334Y0014738D01*
X0193336Y0014734D01*
X0194734Y0013336D01*
X0196560Y0012580D01*
X0198536Y0012580D01*
X0200362Y0013336D01*
X0201650Y0014624D01*
X0201650Y0009548D01*
X0008800Y0009548D01*
X0008800Y0067929D01*
X0008917Y0067844D01*
X0009689Y0067451D01*
X0010512Y0067183D01*
X0011367Y0067048D01*
X0011600Y0067048D01*
X0011600Y0072348D01*
X0012000Y0072348D01*
X0012000Y0067048D01*
X0012233Y0067048D01*
X0013088Y0067183D01*
X0013911Y0067451D01*
X0014683Y0067844D01*
X0015383Y0068353D01*
X0015995Y0068965D01*
X0016504Y0069665D01*
X0016897Y0070437D01*
X0017165Y0071260D01*
X0017300Y0072115D01*
X0017300Y0072348D01*
X0012000Y0072348D01*
X0012000Y0072748D01*
X0017300Y0072748D01*
X0017300Y0072981D01*
X0017165Y0073836D01*
X0016897Y0074659D01*
X0016504Y0075431D01*
X0015995Y0076131D01*
X0015383Y0076743D01*
X0014683Y0077252D01*
X0014336Y0077429D01*
X0015029Y0077716D01*
X0016632Y0079319D01*
X0017500Y0081414D01*
X0017500Y0083682D01*
X0016632Y0085777D01*
X0015029Y0087380D01*
X0014624Y0087548D01*
X0015029Y0087716D01*
X0016632Y0089319D01*
X0017500Y0091414D01*
X0017500Y0093682D01*
X0016632Y0095777D01*
X0016558Y0095851D01*
X0018686Y0097979D01*
X0019474Y0098767D01*
X0019900Y0099796D01*
X0019900Y0126688D01*
X0061979Y0168767D01*
X0062552Y0168767D01*
X0063942Y0169343D01*
X0065005Y0170406D01*
X0065581Y0171796D01*
X0065581Y0173300D01*
X0065005Y0174690D01*
X0063942Y0175753D01*
X0062552Y0176329D01*
X0061048Y0176329D01*
X0059658Y0175753D01*
X0058595Y0174690D01*
X0058019Y0173300D01*
X0058019Y0172727D01*
X0017500Y0132208D01*
X0017500Y0133682D01*
X0016632Y0135777D01*
X0015029Y0137380D01*
X0014624Y0137548D01*
X0015029Y0137716D01*
X0016632Y0139319D01*
X0017500Y0141414D01*
X0017500Y0143682D01*
X0016632Y0145777D01*
X0015029Y0147380D01*
X0012934Y0148248D01*
X0010666Y0148248D01*
X0008800Y0147475D01*
X0008800Y0152621D01*
X0010666Y0151848D01*
X0012934Y0151848D01*
X0015029Y0152716D01*
X0016632Y0154319D01*
X0017500Y0156414D01*
X0017500Y0158682D01*
X0016632Y0160777D01*
X0015029Y0162380D01*
X0014624Y0162548D01*
X0015029Y0162716D01*
X0016632Y0164319D01*
X0017500Y0166414D01*
X0017500Y0168682D01*
X0016632Y0170777D01*
X0015029Y0172380D01*
X0014336Y0172667D01*
X0014683Y0172844D01*
X0015383Y0173353D01*
X0015995Y0173965D01*
X0016504Y0174665D01*
X0016897Y0175437D01*
X0017165Y0176260D01*
X0017300Y0177115D01*
X0017300Y0177348D01*
X0012000Y0177348D01*
X0012000Y0177748D01*
X0017300Y0177748D01*
X0017300Y0177981D01*
X0017165Y0178836D01*
X0016897Y0179659D01*
X0016504Y0180431D01*
X0015995Y0181131D01*
X0015383Y0181743D01*
X0014683Y0182252D01*
X0014336Y0182429D01*
X0015029Y0182716D01*
X0016632Y0184319D01*
X0017500Y0186414D01*
X0017500Y0188682D01*
X0017322Y0189111D01*
X0017960Y0189748D01*
X0034857Y0189748D01*
X0035886Y0190174D01*
X0036160Y0190448D01*
X0037440Y0190448D01*
X0041914Y0185974D01*
X0042943Y0185548D01*
X0043295Y0185548D01*
X0042200Y0184453D01*
X0042200Y0180643D01*
X0044895Y0177948D01*
X0048705Y0177948D01*
X0051400Y0180643D01*
X0051400Y0184453D01*
X0050305Y0185548D01*
X0068295Y0185548D01*
X0067200Y0184453D01*
X0067200Y0180643D01*
X0069895Y0177948D01*
X0073705Y0177948D01*
X0076400Y0180643D01*
X0076400Y0184453D01*
X0075305Y0185548D01*
X0090695Y0185548D01*
X0090300Y0185154D01*
X0089600Y0183463D01*
X0089600Y0181633D01*
X0090281Y0179989D01*
X0085214Y0174922D01*
X0084426Y0174134D01*
X0084000Y0173105D01*
X0084000Y0155095D01*
X0083595Y0154690D01*
X0083019Y0153300D01*
X0083019Y0151796D01*
X0083595Y0150406D01*
X0084658Y0149343D01*
X0086048Y0148767D01*
X0087552Y0148767D01*
X0088942Y0149343D01*
X0090005Y0150406D01*
X0090057Y0150530D01*
X0090300Y0149942D01*
X0091594Y0148648D01*
X0093285Y0147948D01*
X0100315Y0147948D01*
X0102006Y0148648D01*
X0103300Y0149942D01*
X0104000Y0151633D01*
X0104000Y0153463D01*
X0103300Y0155154D01*
X0102006Y0156448D01*
X0100315Y0157148D01*
X0093285Y0157148D01*
X0091594Y0156448D01*
X0090300Y0155154D01*
X0090057Y0154566D01*
X0090005Y0154690D01*
X0089600Y0155095D01*
X0089600Y0171388D01*
X0089672Y0171460D01*
X0090300Y0169942D01*
X0091594Y0168648D01*
X0093285Y0167948D01*
X0100315Y0167948D01*
X0102006Y0168648D01*
X0103300Y0169942D01*
X0104000Y0171633D01*
X0104000Y0173463D01*
X0103300Y0175154D01*
X0102006Y0176448D01*
X0100315Y0177148D01*
X0095360Y0177148D01*
X0096160Y0177948D01*
X0100315Y0177948D01*
X0102006Y0178648D01*
X0103300Y0179942D01*
X0104000Y0181633D01*
X0104000Y0183463D01*
X0103300Y0185154D01*
X0102551Y0185902D01*
X0102726Y0185974D01*
X0103513Y0186762D01*
X0106500Y0189748D01*
X0120495Y0189748D01*
X0121594Y0188648D01*
X0123285Y0187948D01*
X0130315Y0187948D01*
X0132006Y0188648D01*
X0133300Y0189942D01*
X0134000Y0191633D01*
X0134000Y0193463D01*
X0133300Y0195154D01*
X0132006Y0196448D01*
X0130315Y0197148D01*
X0123285Y0197148D01*
X0121594Y0196448D01*
X0120495Y0195348D01*
X0104783Y0195348D01*
X0103754Y0194922D01*
X0103501Y0194669D01*
X0103300Y0195154D01*
X0102006Y0196448D01*
X0100315Y0197148D01*
X0096160Y0197148D01*
X0092474Y0200834D01*
X0091686Y0201622D01*
X0090657Y0202048D01*
X0015361Y0202048D01*
X0015029Y0202380D01*
X0014985Y0202398D01*
X0201650Y0202398D01*
X0201650Y0147537D01*
X0199934Y0148248D01*
X0197666Y0148248D01*
X0195571Y0147380D01*
X0193968Y0145777D01*
X0193100Y0143682D01*
X0193100Y0141414D01*
X0193968Y0139319D01*
X0195571Y0137716D01*
X0195976Y0137548D01*
X0195571Y0137380D01*
X0193968Y0135777D01*
X0193100Y0133682D01*
X0193100Y0131414D01*
X0193968Y0129319D01*
X0195571Y0127716D01*
X0195976Y0127548D01*
X0195571Y0127380D01*
X0193968Y0125777D01*
X0193100Y0123682D01*
X0193100Y0121414D01*
X0193968Y0119319D01*
X0195571Y0117716D01*
X0195976Y0117548D01*
X0195571Y0117380D01*
X0193968Y0115777D01*
X0193100Y0113682D01*
X0193100Y0111414D01*
X0193968Y0109319D01*
X0195571Y0107716D01*
X0194847Y0106656D02*
X0130996Y0106656D01*
X0131089Y0106626D02*
X0130430Y0106840D01*
X0129746Y0106948D01*
X0126800Y0106948D01*
X0126800Y0102548D01*
X0126800Y0098148D01*
X0129746Y0098148D01*
X0130430Y0098256D01*
X0131089Y0098470D01*
X0131706Y0098785D01*
X0132266Y0099192D01*
X0132756Y0099682D01*
X0133163Y0100242D01*
X0133478Y0100859D01*
X0133692Y0101518D01*
X0133800Y0102202D01*
X0133800Y0102548D01*
X0126800Y0102548D01*
X0126800Y0102548D01*
X0126800Y0098148D01*
X0123854Y0098148D01*
X0123170Y0098256D01*
X0122511Y0098470D01*
X0121894Y0098785D01*
X0121334Y0099192D01*
X0120844Y0099682D01*
X0120437Y0100242D01*
X0120122Y0100859D01*
X0119908Y0101518D01*
X0119800Y0102202D01*
X0119800Y0102548D01*
X0126800Y0102548D01*
X0126800Y0102548D01*
X0126800Y0102548D01*
X0133800Y0102548D01*
X0133800Y0102894D01*
X0133692Y0103578D01*
X0133478Y0104237D01*
X0133163Y0104854D01*
X0132756Y0105414D01*
X0132266Y0105904D01*
X0131706Y0106311D01*
X0131089Y0106626D01*
X0130315Y0107948D02*
X0132006Y0108648D01*
X0133300Y0109942D01*
X0134000Y0111633D01*
X0134000Y0113463D01*
X0133300Y0115154D01*
X0132006Y0116448D01*
X0130315Y0117148D01*
X0123285Y0117148D01*
X0121594Y0116448D01*
X0120300Y0115154D01*
X0119600Y0113463D01*
X0119600Y0111633D01*
X0120300Y0109942D01*
X0121594Y0108648D01*
X0123285Y0107948D01*
X0130315Y0107948D01*
X0131054Y0108254D02*
X0145146Y0108254D01*
X0145885Y0107948D02*
X0144194Y0108648D01*
X0142900Y0109942D01*
X0142200Y0111633D01*
X0142200Y0113463D01*
X0142900Y0115154D01*
X0144194Y0116448D01*
X0145885Y0117148D01*
X0147715Y0117148D01*
X0149406Y0116448D01*
X0150700Y0115154D01*
X0151400Y0113463D01*
X0151400Y0111633D01*
X0150700Y0109942D01*
X0149406Y0108648D01*
X0147715Y0107948D01*
X0145885Y0107948D01*
X0142990Y0109853D02*
X0133210Y0109853D01*
X0133925Y0111451D02*
X0142275Y0111451D01*
X0142200Y0113050D02*
X0134000Y0113050D01*
X0133509Y0114648D02*
X0142691Y0114648D01*
X0143993Y0116247D02*
X0132207Y0116247D01*
X0132006Y0118648D02*
X0133300Y0119942D01*
X0134000Y0121633D01*
X0134000Y0123463D01*
X0133300Y0125154D01*
X0132006Y0126448D01*
X0130315Y0127148D01*
X0123285Y0127148D01*
X0121594Y0126448D01*
X0120300Y0125154D01*
X0119600Y0123463D01*
X0119600Y0121633D01*
X0120300Y0119942D01*
X0121594Y0118648D01*
X0123285Y0117948D01*
X0130315Y0117948D01*
X0132006Y0118648D01*
X0132801Y0119444D02*
X0193916Y0119444D01*
X0193254Y0121042D02*
X0133755Y0121042D01*
X0134000Y0122641D02*
X0193100Y0122641D01*
X0193331Y0124239D02*
X0133678Y0124239D01*
X0132616Y0125838D02*
X0194029Y0125838D01*
X0195707Y0127436D02*
X0020648Y0127436D01*
X0019900Y0125838D02*
X0091267Y0125838D01*
X0091334Y0125904D02*
X0090844Y0125414D01*
X0090437Y0124854D01*
X0090122Y0124237D01*
X0089908Y0123578D01*
X0089800Y0122894D01*
X0089800Y0122548D01*
X0089800Y0122202D01*
X0089908Y0121518D01*
X0090122Y0120859D01*
X0090437Y0120242D01*
X0090844Y0119682D01*
X0091334Y0119192D01*
X0091894Y0118785D01*
X0092511Y0118470D01*
X0093170Y0118256D01*
X0093854Y0118148D01*
X0096800Y0118148D01*
X0099746Y0118148D01*
X0100430Y0118256D01*
X0101089Y0118470D01*
X0101706Y0118785D01*
X0102266Y0119192D01*
X0102756Y0119682D01*
X0103163Y0120242D01*
X0103478Y0120859D01*
X0103692Y0121518D01*
X0103800Y0122202D01*
X0103800Y0122548D01*
X0096800Y0122548D01*
X0096800Y0118148D01*
X0096800Y0122548D01*
X0096800Y0122548D01*
X0096800Y0122548D01*
X0089800Y0122548D01*
X0096800Y0122548D01*
X0096800Y0122548D01*
X0103800Y0122548D01*
X0103800Y0122894D01*
X0103692Y0123578D01*
X0103478Y0124237D01*
X0103163Y0124854D01*
X0102756Y0125414D01*
X0102266Y0125904D01*
X0101706Y0126311D01*
X0101089Y0126626D01*
X0100430Y0126840D01*
X0099746Y0126948D01*
X0096800Y0126948D01*
X0096800Y0122548D01*
X0096800Y0122548D01*
X0096800Y0126948D01*
X0093854Y0126948D01*
X0093170Y0126840D01*
X0092511Y0126626D01*
X0091894Y0126311D01*
X0091334Y0125904D01*
X0090124Y0124239D02*
X0019900Y0124239D01*
X0019900Y0122641D02*
X0079200Y0122641D01*
X0078571Y0122380D02*
X0080666Y0123248D01*
X0082934Y0123248D01*
X0085029Y0122380D01*
X0086632Y0120777D01*
X0087500Y0118682D01*
X0087500Y0116414D01*
X0086632Y0114319D01*
X0085029Y0112716D01*
X0084336Y0112429D01*
X0084683Y0112252D01*
X0085383Y0111743D01*
X0085995Y0111131D01*
X0086504Y0110431D01*
X0086897Y0109659D01*
X0087165Y0108836D01*
X0087300Y0107981D01*
X0087300Y0107748D01*
X0082000Y0107748D01*
X0082000Y0107348D01*
X0087300Y0107348D01*
X0087300Y0107115D01*
X0087165Y0106260D01*
X0086897Y0105437D01*
X0086504Y0104665D01*
X0085995Y0103965D01*
X0085383Y0103353D01*
X0084683Y0102844D01*
X0084336Y0102667D01*
X0085029Y0102380D01*
X0086632Y0100777D01*
X0087500Y0098682D01*
X0087500Y0096414D01*
X0086632Y0094319D01*
X0085029Y0092716D01*
X0082934Y0091848D01*
X0080666Y0091848D01*
X0078571Y0092716D01*
X0076968Y0094319D01*
X0076100Y0096414D01*
X0076100Y0098682D01*
X0076968Y0100777D01*
X0078571Y0102380D01*
X0079264Y0102667D01*
X0078917Y0102844D01*
X0078217Y0103353D01*
X0077605Y0103965D01*
X0077096Y0104665D01*
X0076703Y0105437D01*
X0076435Y0106260D01*
X0076300Y0107115D01*
X0076300Y0107348D01*
X0081600Y0107348D01*
X0081600Y0107748D01*
X0076300Y0107748D01*
X0076300Y0107981D01*
X0076435Y0108836D01*
X0076703Y0109659D01*
X0077096Y0110431D01*
X0077605Y0111131D01*
X0078217Y0111743D01*
X0078917Y0112252D01*
X0079264Y0112429D01*
X0078571Y0112716D01*
X0076968Y0114319D01*
X0076100Y0116414D01*
X0076100Y0118682D01*
X0076968Y0120777D01*
X0078571Y0122380D01*
X0077233Y0121042D02*
X0019900Y0121042D01*
X0019900Y0119444D02*
X0076416Y0119444D01*
X0076100Y0117845D02*
X0019900Y0117845D01*
X0019900Y0116247D02*
X0076169Y0116247D01*
X0076831Y0114648D02*
X0019900Y0114648D01*
X0019900Y0113050D02*
X0078237Y0113050D01*
X0077925Y0111451D02*
X0019900Y0111451D01*
X0019900Y0109853D02*
X0076802Y0109853D01*
X0076343Y0108254D02*
X0019900Y0108254D01*
X0019900Y0106656D02*
X0076373Y0106656D01*
X0076896Y0105057D02*
X0019900Y0105057D01*
X0019900Y0103459D02*
X0078111Y0103459D01*
X0078051Y0101860D02*
X0019900Y0101860D01*
X0019900Y0100262D02*
X0076754Y0100262D01*
X0076100Y0098663D02*
X0019370Y0098663D01*
X0017772Y0097065D02*
X0039811Y0097065D01*
X0039895Y0097148D02*
X0037200Y0094453D01*
X0037200Y0090643D01*
X0039000Y0088843D01*
X0039000Y0083708D01*
X0021621Y0066329D01*
X0021048Y0066329D01*
X0019658Y0065753D01*
X0018595Y0064690D01*
X0018019Y0063300D01*
X0018019Y0061796D01*
X0018595Y0060406D01*
X0019658Y0059343D01*
X0021048Y0058767D01*
X0022552Y0058767D01*
X0023942Y0059343D01*
X0025005Y0060406D01*
X0025581Y0061796D01*
X0025581Y0062369D01*
X0043386Y0080174D01*
X0044174Y0080962D01*
X0044600Y0081991D01*
X0044600Y0088843D01*
X0046400Y0090643D01*
X0046400Y0094453D01*
X0043705Y0097148D01*
X0039895Y0097148D01*
X0038213Y0095466D02*
X0016761Y0095466D01*
X0017423Y0093868D02*
X0037200Y0093868D01*
X0037200Y0092269D02*
X0017500Y0092269D01*
X0017192Y0090671D02*
X0037200Y0090671D01*
X0038771Y0089072D02*
X0016385Y0089072D01*
X0014803Y0087474D02*
X0039000Y0087474D01*
X0039000Y0085875D02*
X0016534Y0085875D01*
X0017254Y0084277D02*
X0039000Y0084277D01*
X0037970Y0082678D02*
X0017500Y0082678D01*
X0017361Y0081080D02*
X0036372Y0081080D01*
X0034773Y0079481D02*
X0016699Y0079481D01*
X0015196Y0077883D02*
X0033175Y0077883D01*
X0031576Y0076284D02*
X0015842Y0076284D01*
X0016884Y0074686D02*
X0029978Y0074686D01*
X0028379Y0073087D02*
X0017283Y0073087D01*
X0017201Y0071488D02*
X0026781Y0071488D01*
X0025182Y0069890D02*
X0016618Y0069890D01*
X0015298Y0068291D02*
X0023584Y0068291D01*
X0021985Y0066693D02*
X0008800Y0066693D01*
X0008800Y0065094D02*
X0018999Y0065094D01*
X0018100Y0063496D02*
X0008800Y0063496D01*
X0008800Y0061897D02*
X0018019Y0061897D01*
X0018702Y0060299D02*
X0008800Y0060299D01*
X0008800Y0058700D02*
X0091542Y0058700D01*
X0091594Y0058648D02*
X0093285Y0057948D01*
X0100315Y0057948D01*
X0102006Y0058648D01*
X0103300Y0059942D01*
X0104000Y0061633D01*
X0104000Y0063463D01*
X0103300Y0065154D01*
X0102006Y0066448D01*
X0100315Y0067148D01*
X0093285Y0067148D01*
X0091594Y0066448D01*
X0090300Y0065154D01*
X0089600Y0063463D01*
X0089600Y0061633D01*
X0090300Y0059942D01*
X0091594Y0058648D01*
X0090153Y0060299D02*
X0074898Y0060299D01*
X0075005Y0060406D02*
X0075581Y0061796D01*
X0075581Y0063300D01*
X0075005Y0064690D01*
X0073942Y0065753D01*
X0072552Y0066329D01*
X0071979Y0066329D01*
X0070160Y0068148D01*
X0071800Y0068148D01*
X0073623Y0068148D01*
X0076200Y0070725D01*
X0076200Y0072548D01*
X0071800Y0072548D01*
X0071800Y0068148D01*
X0071800Y0072548D01*
X0071800Y0072548D01*
X0071800Y0072548D01*
X0067400Y0072548D01*
X0067400Y0070908D01*
X0059600Y0078708D01*
X0059600Y0088843D01*
X0061400Y0090643D01*
X0061400Y0094453D01*
X0058705Y0097148D01*
X0054895Y0097148D01*
X0052200Y0094453D01*
X0052200Y0090643D01*
X0054000Y0088843D01*
X0054000Y0076991D01*
X0054426Y0075962D01*
X0055214Y0075174D01*
X0068019Y0062369D01*
X0068019Y0061796D01*
X0068595Y0060406D01*
X0069658Y0059343D01*
X0071048Y0058767D01*
X0072552Y0058767D01*
X0073942Y0059343D01*
X0075005Y0060406D01*
X0075581Y0061897D02*
X0089600Y0061897D01*
X0089614Y0063496D02*
X0075500Y0063496D01*
X0074601Y0065094D02*
X0090276Y0065094D01*
X0092186Y0066693D02*
X0071615Y0066693D01*
X0071800Y0068291D02*
X0071800Y0068291D01*
X0071800Y0069890D02*
X0071800Y0069890D01*
X0071800Y0071488D02*
X0071800Y0071488D01*
X0071800Y0072548D02*
X0071800Y0072548D01*
X0076200Y0072548D01*
X0076200Y0074371D01*
X0073623Y0076948D01*
X0071800Y0076948D01*
X0071800Y0072548D01*
X0067400Y0072548D01*
X0067400Y0074371D01*
X0069977Y0076948D01*
X0071800Y0076948D01*
X0071800Y0072548D01*
X0071800Y0072548D01*
X0071800Y0073087D02*
X0071800Y0073087D01*
X0071800Y0074686D02*
X0071800Y0074686D01*
X0071800Y0076284D02*
X0071800Y0076284D01*
X0074287Y0076284D02*
X0079031Y0076284D01*
X0079895Y0077148D02*
X0077200Y0074453D01*
X0077200Y0070643D01*
X0079895Y0067948D01*
X0083705Y0067948D01*
X0086400Y0070643D01*
X0086400Y0074453D01*
X0083705Y0077148D01*
X0079895Y0077148D01*
X0077432Y0074686D02*
X0075885Y0074686D01*
X0076200Y0073087D02*
X0077200Y0073087D01*
X0077200Y0071488D02*
X0076200Y0071488D01*
X0075364Y0069890D02*
X0077953Y0069890D01*
X0079551Y0068291D02*
X0073766Y0068291D01*
X0071800Y0062548D02*
X0056800Y0077548D01*
X0056800Y0092548D01*
X0061400Y0092269D02*
X0079650Y0092269D01*
X0077419Y0093868D02*
X0061400Y0093868D01*
X0060387Y0095466D02*
X0076493Y0095466D01*
X0076100Y0097065D02*
X0058789Y0097065D01*
X0054811Y0097065D02*
X0043789Y0097065D01*
X0045387Y0095466D02*
X0053213Y0095466D01*
X0052200Y0093868D02*
X0046400Y0093868D01*
X0046400Y0092269D02*
X0052200Y0092269D01*
X0052200Y0090671D02*
X0046400Y0090671D01*
X0044829Y0089072D02*
X0053771Y0089072D01*
X0054000Y0087474D02*
X0044600Y0087474D01*
X0044600Y0085875D02*
X0054000Y0085875D01*
X0054000Y0084277D02*
X0044600Y0084277D01*
X0044600Y0082678D02*
X0054000Y0082678D01*
X0054000Y0081080D02*
X0044222Y0081080D01*
X0042693Y0079481D02*
X0054000Y0079481D01*
X0054000Y0077883D02*
X0041094Y0077883D01*
X0039496Y0076284D02*
X0054293Y0076284D01*
X0055703Y0074686D02*
X0037897Y0074686D01*
X0036299Y0073087D02*
X0057301Y0073087D01*
X0058900Y0071488D02*
X0034700Y0071488D01*
X0033102Y0069890D02*
X0060498Y0069890D01*
X0062097Y0068291D02*
X0031503Y0068291D01*
X0029905Y0066693D02*
X0063695Y0066693D01*
X0065294Y0065094D02*
X0028306Y0065094D01*
X0026708Y0063496D02*
X0066892Y0063496D01*
X0068019Y0061897D02*
X0025581Y0061897D01*
X0024898Y0060299D02*
X0068702Y0060299D01*
X0061400Y0054453D02*
X0061400Y0050643D01*
X0058705Y0047948D01*
X0054895Y0047948D01*
X0052200Y0050643D01*
X0052200Y0054453D01*
X0054895Y0057148D01*
X0058705Y0057148D01*
X0061400Y0054453D01*
X0061400Y0053905D02*
X0082200Y0053905D01*
X0082200Y0054453D02*
X0082200Y0050643D01*
X0084895Y0047948D01*
X0087440Y0047948D01*
X0088440Y0046948D01*
X0086800Y0046948D01*
X0086800Y0042548D01*
X0086800Y0038148D01*
X0088623Y0038148D01*
X0091200Y0040725D01*
X0091200Y0042548D01*
X0086800Y0042548D01*
X0086800Y0042548D01*
X0086800Y0042548D01*
X0086800Y0038148D01*
X0084977Y0038148D01*
X0082400Y0040725D01*
X0082400Y0042548D01*
X0086800Y0042548D01*
X0086800Y0042548D01*
X0091200Y0042548D01*
X0091200Y0044188D01*
X0109209Y0026179D01*
X0107400Y0024371D01*
X0107400Y0022548D01*
X0107400Y0020725D01*
X0109977Y0018148D01*
X0111800Y0018148D01*
X0113623Y0018148D01*
X0116200Y0020725D01*
X0116200Y0022548D01*
X0111800Y0022548D01*
X0111800Y0018148D01*
X0111800Y0022548D01*
X0111800Y0022548D01*
X0111800Y0022548D01*
X0107400Y0022548D01*
X0111800Y0022548D01*
X0111800Y0022548D01*
X0116200Y0022548D01*
X0116200Y0023748D01*
X0117200Y0023748D01*
X0117200Y0020643D01*
X0119895Y0017948D01*
X0123705Y0017948D01*
X0125914Y0020156D01*
X0126900Y0019748D01*
X0138095Y0019748D01*
X0139895Y0017948D01*
X0143195Y0017948D01*
X0142200Y0016953D01*
X0142200Y0013143D01*
X0144895Y0010448D01*
X0148705Y0010448D01*
X0151400Y0013143D01*
X0151400Y0016953D01*
X0150205Y0018148D01*
X0151800Y0018148D01*
X0153623Y0018148D01*
X0156200Y0020725D01*
X0156200Y0022548D01*
X0151800Y0022548D01*
X0151800Y0018148D01*
X0151800Y0022548D01*
X0151800Y0022548D01*
X0151800Y0022548D01*
X0147400Y0022548D01*
X0147400Y0020725D01*
X0148477Y0019648D01*
X0145405Y0019648D01*
X0146400Y0020643D01*
X0146400Y0024453D01*
X0144600Y0026253D01*
X0144600Y0036388D01*
X0146160Y0037948D01*
X0147715Y0037948D01*
X0149406Y0038648D01*
X0150700Y0039942D01*
X0151400Y0041633D01*
X0151400Y0043463D01*
X0150700Y0045154D01*
X0149406Y0046448D01*
X0147715Y0047148D01*
X0145885Y0047148D01*
X0144194Y0046448D01*
X0142900Y0045154D01*
X0142200Y0043463D01*
X0142200Y0041908D01*
X0139426Y0039134D01*
X0139000Y0038105D01*
X0139000Y0026253D01*
X0138095Y0025348D01*
X0128617Y0025348D01*
X0125831Y0028134D01*
X0125043Y0028922D01*
X0124014Y0029348D01*
X0113960Y0029348D01*
X0091400Y0051908D01*
X0091400Y0054453D01*
X0088705Y0057148D01*
X0084895Y0057148D01*
X0082200Y0054453D01*
X0083250Y0055503D02*
X0060350Y0055503D01*
X0058752Y0057102D02*
X0084848Y0057102D01*
X0088752Y0057102D02*
X0124000Y0057102D01*
X0124000Y0057948D02*
X0124000Y0040095D01*
X0123595Y0039690D01*
X0123019Y0038300D01*
X0123019Y0036796D01*
X0123595Y0035406D01*
X0124658Y0034343D01*
X0126048Y0033767D01*
X0127552Y0033767D01*
X0128942Y0034343D01*
X0130005Y0035406D01*
X0130581Y0036796D01*
X0130581Y0038300D01*
X0130005Y0039690D01*
X0129600Y0040095D01*
X0129600Y0057948D01*
X0130315Y0057948D01*
X0132006Y0058648D01*
X0133300Y0059942D01*
X0134000Y0061633D01*
X0134000Y0063463D01*
X0133300Y0065154D01*
X0132006Y0066448D01*
X0130315Y0067148D01*
X0123285Y0067148D01*
X0121594Y0066448D01*
X0120300Y0065154D01*
X0119600Y0063463D01*
X0119600Y0061633D01*
X0120300Y0059942D01*
X0121594Y0058648D01*
X0123285Y0057948D01*
X0124000Y0057948D01*
X0124000Y0055503D02*
X0090350Y0055503D01*
X0091400Y0053905D02*
X0124000Y0053905D01*
X0124000Y0052306D02*
X0091400Y0052306D01*
X0092600Y0050708D02*
X0124000Y0050708D01*
X0124000Y0049109D02*
X0094198Y0049109D01*
X0095797Y0047511D02*
X0124000Y0047511D01*
X0124000Y0045912D02*
X0097396Y0045912D01*
X0098994Y0044314D02*
X0124000Y0044314D01*
X0124000Y0042715D02*
X0100593Y0042715D01*
X0102191Y0041117D02*
X0124000Y0041117D01*
X0123523Y0039518D02*
X0103790Y0039518D01*
X0105388Y0037920D02*
X0123019Y0037920D01*
X0123216Y0036321D02*
X0106987Y0036321D01*
X0108585Y0034723D02*
X0124278Y0034723D01*
X0126800Y0037548D02*
X0126800Y0062548D01*
X0129600Y0057102D02*
X0161289Y0057102D01*
X0160159Y0055503D02*
X0129600Y0055503D01*
X0129600Y0053905D02*
X0159846Y0053905D01*
X0159846Y0053847D02*
X0164221Y0053847D01*
X0159846Y0053847D01*
X0160122Y0052306D02*
X0129600Y0052306D01*
X0129600Y0050708D02*
X0160911Y0050708D01*
X0159916Y0049109D02*
X0129600Y0049109D01*
X0129600Y0047511D02*
X0159646Y0047511D01*
X0159947Y0045912D02*
X0149941Y0045912D01*
X0151048Y0044314D02*
X0160816Y0044314D01*
X0159877Y0042715D02*
X0151400Y0042715D01*
X0151186Y0041117D02*
X0159646Y0041117D01*
X0159986Y0039518D02*
X0150276Y0039518D01*
X0146132Y0037920D02*
X0161081Y0037920D01*
X0161421Y0036321D02*
X0144600Y0036321D01*
X0144600Y0034723D02*
X0161421Y0034723D01*
X0162264Y0033124D02*
X0144600Y0033124D01*
X0144600Y0031526D02*
X0163863Y0031526D01*
X0165461Y0029927D02*
X0144600Y0029927D01*
X0144600Y0028329D02*
X0167060Y0028329D01*
X0168658Y0026730D02*
X0153840Y0026730D01*
X0153623Y0026948D02*
X0156200Y0024371D01*
X0156200Y0022548D01*
X0151800Y0022548D01*
X0151800Y0022548D01*
X0147400Y0022548D01*
X0147400Y0024371D01*
X0149977Y0026948D01*
X0151800Y0026948D01*
X0151800Y0022548D01*
X0151800Y0022548D01*
X0151800Y0026948D01*
X0153623Y0026948D01*
X0151800Y0026730D02*
X0151800Y0026730D01*
X0151800Y0025132D02*
X0151800Y0025132D01*
X0151800Y0023533D02*
X0151800Y0023533D01*
X0151800Y0021935D02*
X0151800Y0021935D01*
X0151800Y0020336D02*
X0151800Y0020336D01*
X0151800Y0018738D02*
X0151800Y0018738D01*
X0151214Y0017139D02*
X0161083Y0017139D01*
X0161167Y0018738D02*
X0154212Y0018738D01*
X0155811Y0020336D02*
X0161829Y0020336D01*
X0163659Y0021935D02*
X0156200Y0021935D01*
X0156200Y0023533D02*
X0171855Y0023533D01*
X0172562Y0021935D02*
X0168445Y0021935D01*
X0170257Y0025132D02*
X0155439Y0025132D01*
X0149760Y0026730D02*
X0144600Y0026730D01*
X0145722Y0025132D02*
X0148161Y0025132D01*
X0147400Y0023533D02*
X0146400Y0023533D01*
X0146400Y0021935D02*
X0147400Y0021935D01*
X0147789Y0020336D02*
X0146093Y0020336D01*
X0141800Y0022548D02*
X0127457Y0022548D01*
X0123457Y0026548D01*
X0112800Y0026548D01*
X0086800Y0052548D01*
X0082200Y0052306D02*
X0061400Y0052306D01*
X0061400Y0050708D02*
X0082200Y0050708D01*
X0083733Y0049109D02*
X0059867Y0049109D01*
X0053733Y0049109D02*
X0044867Y0049109D01*
X0043705Y0047948D02*
X0046400Y0050643D01*
X0046400Y0054453D01*
X0043705Y0057148D01*
X0039895Y0057148D01*
X0037200Y0054453D01*
X0037200Y0050643D01*
X0039895Y0047948D01*
X0043705Y0047948D01*
X0046400Y0050708D02*
X0052200Y0050708D01*
X0052200Y0052306D02*
X0046400Y0052306D01*
X0046400Y0053905D02*
X0052200Y0053905D01*
X0053250Y0055503D02*
X0045350Y0055503D01*
X0043752Y0057102D02*
X0054848Y0057102D01*
X0039848Y0057102D02*
X0008800Y0057102D01*
X0008800Y0055503D02*
X0038250Y0055503D01*
X0037200Y0053905D02*
X0008800Y0053905D01*
X0008800Y0052306D02*
X0037200Y0052306D01*
X0037200Y0050708D02*
X0008800Y0050708D01*
X0008800Y0049109D02*
X0038733Y0049109D01*
X0021800Y0062548D02*
X0041800Y0082548D01*
X0041800Y0092548D01*
X0059600Y0087474D02*
X0195797Y0087474D01*
X0194215Y0089072D02*
X0132429Y0089072D01*
X0132006Y0088648D02*
X0133300Y0089942D01*
X0134000Y0091633D01*
X0134000Y0093463D01*
X0133300Y0095154D01*
X0132006Y0096448D01*
X0130315Y0097148D01*
X0123285Y0097148D01*
X0121594Y0096448D01*
X0120300Y0095154D01*
X0119600Y0093463D01*
X0119600Y0091633D01*
X0120300Y0089942D01*
X0121594Y0088648D01*
X0123285Y0087948D01*
X0130315Y0087948D01*
X0132006Y0088648D01*
X0132006Y0086448D02*
X0130315Y0087148D01*
X0123285Y0087148D01*
X0121594Y0086448D01*
X0120300Y0085154D01*
X0119600Y0083463D01*
X0119600Y0081633D01*
X0120300Y0079942D01*
X0121594Y0078648D01*
X0123285Y0077948D01*
X0130315Y0077948D01*
X0132006Y0078648D01*
X0133300Y0079942D01*
X0134000Y0081633D01*
X0134000Y0083463D01*
X0133300Y0085154D01*
X0132006Y0086448D01*
X0132578Y0085875D02*
X0194066Y0085875D01*
X0193346Y0084277D02*
X0133663Y0084277D01*
X0134000Y0082678D02*
X0193100Y0082678D01*
X0193239Y0081080D02*
X0133771Y0081080D01*
X0132838Y0079481D02*
X0193901Y0079481D01*
X0195404Y0077883D02*
X0060425Y0077883D01*
X0059600Y0079481D02*
X0090762Y0079481D01*
X0090300Y0079942D02*
X0091594Y0078648D01*
X0093285Y0077948D01*
X0100315Y0077948D01*
X0102006Y0078648D01*
X0103300Y0079942D01*
X0104000Y0081633D01*
X0104000Y0083463D01*
X0103300Y0085154D01*
X0102006Y0086448D01*
X0100315Y0087148D01*
X0093285Y0087148D01*
X0091594Y0086448D01*
X0090300Y0085154D01*
X0089600Y0083463D01*
X0089600Y0081633D01*
X0090300Y0079942D01*
X0089829Y0081080D02*
X0059600Y0081080D01*
X0059600Y0082678D02*
X0089600Y0082678D01*
X0089937Y0084277D02*
X0059600Y0084277D01*
X0059600Y0085875D02*
X0091022Y0085875D01*
X0091594Y0088648D02*
X0093285Y0087948D01*
X0100315Y0087948D01*
X0102006Y0088648D01*
X0103300Y0089942D01*
X0104000Y0091633D01*
X0104000Y0093463D01*
X0103300Y0095154D01*
X0102006Y0096448D01*
X0100315Y0097148D01*
X0093285Y0097148D01*
X0091594Y0096448D01*
X0090300Y0095154D01*
X0089600Y0093463D01*
X0089600Y0091633D01*
X0090300Y0089942D01*
X0091594Y0088648D01*
X0091171Y0089072D02*
X0059829Y0089072D01*
X0061400Y0090671D02*
X0089999Y0090671D01*
X0089600Y0092269D02*
X0083950Y0092269D01*
X0086181Y0093868D02*
X0089768Y0093868D01*
X0090613Y0095466D02*
X0087107Y0095466D01*
X0087500Y0097065D02*
X0093084Y0097065D01*
X0093285Y0097948D02*
X0100315Y0097948D01*
X0102006Y0098648D01*
X0103300Y0099942D01*
X0104000Y0101633D01*
X0104000Y0103463D01*
X0103300Y0105154D01*
X0102006Y0106448D01*
X0100315Y0107148D01*
X0093285Y0107148D01*
X0091594Y0106448D01*
X0090300Y0105154D01*
X0089600Y0103463D01*
X0089600Y0101633D01*
X0090300Y0099942D01*
X0091594Y0098648D01*
X0093285Y0097948D01*
X0091579Y0098663D02*
X0087500Y0098663D01*
X0086846Y0100262D02*
X0090168Y0100262D01*
X0089600Y0101860D02*
X0085549Y0101860D01*
X0085489Y0103459D02*
X0089600Y0103459D01*
X0090260Y0105057D02*
X0086704Y0105057D01*
X0087227Y0106656D02*
X0092097Y0106656D01*
X0092546Y0108254D02*
X0087257Y0108254D01*
X0086798Y0109853D02*
X0090390Y0109853D01*
X0090300Y0109942D02*
X0091594Y0108648D01*
X0093285Y0107948D01*
X0100315Y0107948D01*
X0102006Y0108648D01*
X0103300Y0109942D01*
X0104000Y0111633D01*
X0104000Y0113463D01*
X0103300Y0115154D01*
X0102006Y0116448D01*
X0100315Y0117148D01*
X0093285Y0117148D01*
X0091594Y0116448D01*
X0090300Y0115154D01*
X0089600Y0113463D01*
X0089600Y0111633D01*
X0090300Y0109942D01*
X0089675Y0111451D02*
X0085675Y0111451D01*
X0085363Y0113050D02*
X0089600Y0113050D01*
X0090091Y0114648D02*
X0086769Y0114648D01*
X0087431Y0116247D02*
X0091393Y0116247D01*
X0091082Y0119444D02*
X0087184Y0119444D01*
X0087500Y0117845D02*
X0195442Y0117845D01*
X0194438Y0116247D02*
X0149607Y0116247D01*
X0150909Y0114648D02*
X0193500Y0114648D01*
X0193100Y0113050D02*
X0151400Y0113050D01*
X0151325Y0111451D02*
X0193100Y0111451D01*
X0193747Y0109853D02*
X0150610Y0109853D01*
X0133711Y0103459D02*
X0193100Y0103459D01*
X0193100Y0101860D02*
X0133746Y0101860D01*
X0133173Y0100262D02*
X0193577Y0100262D01*
X0194624Y0098663D02*
X0131467Y0098663D01*
X0130516Y0097065D02*
X0195256Y0097065D01*
X0193839Y0095466D02*
X0132987Y0095466D01*
X0133832Y0093868D02*
X0193177Y0093868D01*
X0193100Y0092269D02*
X0134000Y0092269D01*
X0133601Y0090671D02*
X0193408Y0090671D01*
X0193670Y0105057D02*
X0133016Y0105057D01*
X0126800Y0105057D02*
X0126800Y0105057D01*
X0126800Y0103459D02*
X0126800Y0103459D01*
X0126800Y0102548D02*
X0126800Y0106948D01*
X0123854Y0106948D01*
X0123170Y0106840D01*
X0122511Y0106626D01*
X0121894Y0106311D01*
X0121334Y0105904D01*
X0120844Y0105414D01*
X0120437Y0104854D01*
X0120122Y0104237D01*
X0119908Y0103578D01*
X0119800Y0102894D01*
X0119800Y0102548D01*
X0126800Y0102548D01*
X0126800Y0102548D01*
X0126800Y0101860D02*
X0126800Y0101860D01*
X0126800Y0100262D02*
X0126800Y0100262D01*
X0126800Y0098663D02*
X0126800Y0098663D01*
X0123084Y0097065D02*
X0100516Y0097065D01*
X0102021Y0098663D02*
X0122133Y0098663D01*
X0120427Y0100262D02*
X0103432Y0100262D01*
X0104000Y0101860D02*
X0119854Y0101860D01*
X0119889Y0103459D02*
X0104000Y0103459D01*
X0103340Y0105057D02*
X0120584Y0105057D01*
X0122604Y0106656D02*
X0101503Y0106656D01*
X0101054Y0108254D02*
X0122546Y0108254D01*
X0120390Y0109853D02*
X0103210Y0109853D01*
X0103925Y0111451D02*
X0119675Y0111451D01*
X0119600Y0113050D02*
X0104000Y0113050D01*
X0103509Y0114648D02*
X0120091Y0114648D01*
X0121393Y0116247D02*
X0102207Y0116247D01*
X0102518Y0119444D02*
X0120799Y0119444D01*
X0119845Y0121042D02*
X0103537Y0121042D01*
X0103800Y0122641D02*
X0119600Y0122641D01*
X0119922Y0124239D02*
X0103476Y0124239D01*
X0102333Y0125838D02*
X0120984Y0125838D01*
X0121594Y0128648D02*
X0123285Y0127948D01*
X0130315Y0127948D01*
X0132006Y0128648D01*
X0133300Y0129942D01*
X0134000Y0131633D01*
X0134000Y0133463D01*
X0133300Y0135154D01*
X0132006Y0136448D01*
X0130315Y0137148D01*
X0123285Y0137148D01*
X0121594Y0136448D01*
X0120300Y0135154D01*
X0119600Y0133463D01*
X0119600Y0131633D01*
X0120300Y0129942D01*
X0121594Y0128648D01*
X0121208Y0129035D02*
X0102392Y0129035D01*
X0102006Y0128648D02*
X0103300Y0129942D01*
X0104000Y0131633D01*
X0104000Y0133463D01*
X0103300Y0135154D01*
X0102006Y0136448D01*
X0100315Y0137148D01*
X0093285Y0137148D01*
X0091594Y0136448D01*
X0090300Y0135154D01*
X0089600Y0133463D01*
X0089600Y0131633D01*
X0090300Y0129942D01*
X0091594Y0128648D01*
X0093285Y0127948D01*
X0100315Y0127948D01*
X0102006Y0128648D01*
X0103586Y0130633D02*
X0120014Y0130633D01*
X0119600Y0132232D02*
X0104000Y0132232D01*
X0103848Y0133830D02*
X0119752Y0133830D01*
X0120576Y0135429D02*
X0103024Y0135429D01*
X0100606Y0137027D02*
X0122994Y0137027D01*
X0123285Y0137948D02*
X0130315Y0137948D01*
X0132006Y0138648D01*
X0133300Y0139942D01*
X0134000Y0141633D01*
X0134000Y0143463D01*
X0133300Y0145154D01*
X0132006Y0146448D01*
X0130315Y0147148D01*
X0123285Y0147148D01*
X0121594Y0146448D01*
X0120300Y0145154D01*
X0119600Y0143463D01*
X0119600Y0141633D01*
X0120300Y0139942D01*
X0121594Y0138648D01*
X0123285Y0137948D01*
X0121648Y0138626D02*
X0101952Y0138626D01*
X0102006Y0138648D02*
X0103300Y0139942D01*
X0104000Y0141633D01*
X0104000Y0143463D01*
X0103300Y0145154D01*
X0102006Y0146448D01*
X0100315Y0147148D01*
X0093285Y0147148D01*
X0091594Y0146448D01*
X0090300Y0145154D01*
X0089600Y0143463D01*
X0089600Y0141633D01*
X0090300Y0139942D01*
X0091594Y0138648D01*
X0093285Y0137948D01*
X0100315Y0137948D01*
X0102006Y0138648D01*
X0103417Y0140224D02*
X0120183Y0140224D01*
X0119600Y0141823D02*
X0104000Y0141823D01*
X0104000Y0143421D02*
X0119600Y0143421D01*
X0120245Y0145020D02*
X0103355Y0145020D01*
X0101593Y0146619D02*
X0122007Y0146619D01*
X0122636Y0148217D02*
X0100964Y0148217D01*
X0103173Y0149816D02*
X0120427Y0149816D01*
X0120300Y0149942D02*
X0121594Y0148648D01*
X0123285Y0147948D01*
X0130315Y0147948D01*
X0132006Y0148648D01*
X0133300Y0149942D01*
X0134000Y0151633D01*
X0134000Y0153463D01*
X0133300Y0155154D01*
X0132006Y0156448D01*
X0130315Y0157148D01*
X0123285Y0157148D01*
X0121594Y0156448D01*
X0120300Y0155154D01*
X0119600Y0153463D01*
X0119600Y0151633D01*
X0120300Y0149942D01*
X0119691Y0151414D02*
X0103909Y0151414D01*
X0104000Y0153013D02*
X0119600Y0153013D01*
X0120076Y0154611D02*
X0103524Y0154611D01*
X0102244Y0156210D02*
X0121356Y0156210D01*
X0121594Y0158648D02*
X0123285Y0157948D01*
X0130315Y0157948D01*
X0132006Y0158648D01*
X0133300Y0159942D01*
X0134000Y0161633D01*
X0134000Y0163463D01*
X0133300Y0165154D01*
X0132006Y0166448D01*
X0130315Y0167148D01*
X0123285Y0167148D01*
X0121594Y0166448D01*
X0120300Y0165154D01*
X0119600Y0163463D01*
X0119600Y0161633D01*
X0120300Y0159942D01*
X0121594Y0158648D01*
X0120836Y0159407D02*
X0102764Y0159407D01*
X0103300Y0159942D02*
X0104000Y0161633D01*
X0104000Y0163463D01*
X0103300Y0165154D01*
X0102006Y0166448D01*
X0100315Y0167148D01*
X0093285Y0167148D01*
X0091594Y0166448D01*
X0090300Y0165154D01*
X0089600Y0163463D01*
X0089600Y0161633D01*
X0090300Y0159942D01*
X0091594Y0158648D01*
X0093285Y0157948D01*
X0100315Y0157948D01*
X0102006Y0158648D01*
X0103300Y0159942D01*
X0103740Y0161005D02*
X0119860Y0161005D01*
X0119600Y0162604D02*
X0104000Y0162604D01*
X0103694Y0164202D02*
X0119906Y0164202D01*
X0120947Y0165801D02*
X0102653Y0165801D01*
X0102355Y0168998D02*
X0121245Y0168998D01*
X0121594Y0168648D02*
X0123285Y0167948D01*
X0130315Y0167948D01*
X0132006Y0168648D01*
X0133300Y0169942D01*
X0134000Y0171633D01*
X0134000Y0173463D01*
X0133300Y0175154D01*
X0132006Y0176448D01*
X0130315Y0177148D01*
X0123285Y0177148D01*
X0121594Y0176448D01*
X0120300Y0175154D01*
X0119600Y0173463D01*
X0119600Y0171633D01*
X0120300Y0169942D01*
X0121594Y0168648D01*
X0120029Y0170596D02*
X0103571Y0170596D01*
X0104000Y0172195D02*
X0119600Y0172195D01*
X0119737Y0173793D02*
X0103863Y0173793D01*
X0103062Y0175392D02*
X0120538Y0175392D01*
X0122904Y0176990D02*
X0100696Y0176990D01*
X0101862Y0178589D02*
X0122279Y0178589D01*
X0122511Y0178470D02*
X0123170Y0178256D01*
X0123854Y0178148D01*
X0126800Y0178148D01*
X0129746Y0178148D01*
X0130430Y0178256D01*
X0131089Y0178470D01*
X0131706Y0178785D01*
X0132266Y0179192D01*
X0132756Y0179682D01*
X0133163Y0180242D01*
X0133478Y0180859D01*
X0133692Y0181518D01*
X0133800Y0182202D01*
X0133800Y0182548D01*
X0126800Y0182548D01*
X0126800Y0178148D01*
X0126800Y0182548D01*
X0126800Y0182548D01*
X0126800Y0182548D01*
X0119800Y0182548D01*
X0119800Y0182202D01*
X0119908Y0181518D01*
X0120122Y0180859D01*
X0120437Y0180242D01*
X0120844Y0179682D01*
X0121334Y0179192D01*
X0121894Y0178785D01*
X0122511Y0178470D01*
X0120477Y0180187D02*
X0103401Y0180187D01*
X0104000Y0181786D02*
X0119866Y0181786D01*
X0119800Y0182548D02*
X0126800Y0182548D01*
X0126800Y0182548D01*
X0133800Y0182548D01*
X0133800Y0182894D01*
X0133692Y0183578D01*
X0133478Y0184237D01*
X0133163Y0184854D01*
X0132756Y0185414D01*
X0132266Y0185904D01*
X0131706Y0186311D01*
X0131089Y0186626D01*
X0130430Y0186840D01*
X0129746Y0186948D01*
X0126800Y0186948D01*
X0126800Y0182548D01*
X0126800Y0182548D01*
X0126800Y0186948D01*
X0123854Y0186948D01*
X0123170Y0186840D01*
X0122511Y0186626D01*
X0121894Y0186311D01*
X0121334Y0185904D01*
X0120844Y0185414D01*
X0120437Y0184854D01*
X0120122Y0184237D01*
X0119908Y0183578D01*
X0119800Y0182894D01*
X0119800Y0182548D01*
X0119878Y0183384D02*
X0104000Y0183384D01*
X0103370Y0184983D02*
X0120530Y0184983D01*
X0122424Y0186581D02*
X0103333Y0186581D01*
X0104931Y0188180D02*
X0122725Y0188180D01*
X0126800Y0186581D02*
X0126800Y0186581D01*
X0126800Y0184983D02*
X0126800Y0184983D01*
X0126800Y0183384D02*
X0126800Y0183384D01*
X0126800Y0181786D02*
X0126800Y0181786D01*
X0126800Y0180187D02*
X0126800Y0180187D01*
X0126800Y0178589D02*
X0126800Y0178589D01*
X0130696Y0176990D02*
X0201650Y0176990D01*
X0201650Y0175392D02*
X0133062Y0175392D01*
X0133863Y0173793D02*
X0201650Y0173793D01*
X0201650Y0172195D02*
X0134000Y0172195D01*
X0133571Y0170596D02*
X0201650Y0170596D01*
X0201650Y0168998D02*
X0132355Y0168998D01*
X0132653Y0165801D02*
X0201650Y0165801D01*
X0201650Y0167399D02*
X0089600Y0167399D01*
X0089600Y0165801D02*
X0090947Y0165801D01*
X0089906Y0164202D02*
X0089600Y0164202D01*
X0089600Y0162604D02*
X0089600Y0162604D01*
X0089600Y0161005D02*
X0089860Y0161005D01*
X0089600Y0159407D02*
X0090836Y0159407D01*
X0089600Y0157808D02*
X0201650Y0157808D01*
X0201650Y0156210D02*
X0132244Y0156210D01*
X0133524Y0154611D02*
X0201650Y0154611D01*
X0201650Y0153013D02*
X0134000Y0153013D01*
X0133909Y0151414D02*
X0201650Y0151414D01*
X0201650Y0149816D02*
X0133173Y0149816D01*
X0130964Y0148217D02*
X0197591Y0148217D01*
X0200009Y0148217D02*
X0201650Y0148217D01*
X0194809Y0146619D02*
X0131593Y0146619D01*
X0133355Y0145020D02*
X0193654Y0145020D01*
X0193100Y0143421D02*
X0134000Y0143421D01*
X0134000Y0141823D02*
X0193100Y0141823D01*
X0193593Y0140224D02*
X0133417Y0140224D01*
X0131952Y0138626D02*
X0194661Y0138626D01*
X0195218Y0137027D02*
X0130606Y0137027D01*
X0133024Y0135429D02*
X0143458Y0135429D01*
X0142400Y0134371D02*
X0142400Y0132548D01*
X0142400Y0130725D01*
X0144977Y0128148D01*
X0146800Y0128148D01*
X0148623Y0128148D01*
X0151200Y0130725D01*
X0151200Y0132548D01*
X0146800Y0132548D01*
X0146800Y0128148D01*
X0146800Y0132548D01*
X0146800Y0132548D01*
X0146800Y0132548D01*
X0142400Y0132548D01*
X0146800Y0132548D01*
X0146800Y0132548D01*
X0151200Y0132548D01*
X0151200Y0134371D01*
X0148623Y0136948D01*
X0146800Y0136948D01*
X0146800Y0132548D01*
X0146800Y0132548D01*
X0146800Y0136948D01*
X0144977Y0136948D01*
X0142400Y0134371D01*
X0142400Y0133830D02*
X0133848Y0133830D01*
X0134000Y0132232D02*
X0142400Y0132232D01*
X0142492Y0130633D02*
X0133586Y0130633D01*
X0132392Y0129035D02*
X0144091Y0129035D01*
X0146800Y0129035D02*
X0146800Y0129035D01*
X0146800Y0130633D02*
X0146800Y0130633D01*
X0146800Y0132232D02*
X0146800Y0132232D01*
X0146800Y0133830D02*
X0146800Y0133830D01*
X0146800Y0135429D02*
X0146800Y0135429D01*
X0150142Y0135429D02*
X0193824Y0135429D01*
X0193162Y0133830D02*
X0151200Y0133830D01*
X0151200Y0132232D02*
X0193100Y0132232D01*
X0193423Y0130633D02*
X0151108Y0130633D01*
X0149509Y0129035D02*
X0194252Y0129035D01*
X0201650Y0159407D02*
X0132764Y0159407D01*
X0133740Y0161005D02*
X0201650Y0161005D01*
X0201650Y0162604D02*
X0134000Y0162604D01*
X0133694Y0164202D02*
X0201650Y0164202D01*
X0201650Y0178589D02*
X0142813Y0178589D01*
X0142373Y0178148D02*
X0144950Y0180725D01*
X0144950Y0182548D01*
X0140550Y0182548D01*
X0140550Y0178148D01*
X0142373Y0178148D01*
X0140550Y0178148D02*
X0140550Y0182548D01*
X0140550Y0182548D01*
X0140550Y0182548D01*
X0136150Y0182548D01*
X0136150Y0180725D01*
X0138727Y0178148D01*
X0140550Y0178148D01*
X0140550Y0178589D02*
X0140550Y0178589D01*
X0140550Y0180187D02*
X0140550Y0180187D01*
X0140550Y0181786D02*
X0140550Y0181786D01*
X0140550Y0182548D02*
X0140550Y0182548D01*
X0144950Y0182548D01*
X0144950Y0184371D01*
X0142373Y0186948D01*
X0140550Y0186948D01*
X0140550Y0182548D01*
X0136150Y0182548D01*
X0136150Y0184371D01*
X0138727Y0186948D01*
X0140550Y0186948D01*
X0140550Y0182548D01*
X0140550Y0182548D01*
X0140550Y0183384D02*
X0140550Y0183384D01*
X0140550Y0184983D02*
X0140550Y0184983D01*
X0140550Y0186581D02*
X0140550Y0186581D01*
X0142739Y0186581D02*
X0201650Y0186581D01*
X0201650Y0184983D02*
X0144338Y0184983D01*
X0144950Y0183384D02*
X0201650Y0183384D01*
X0201650Y0181786D02*
X0144950Y0181786D01*
X0144412Y0180187D02*
X0201650Y0180187D01*
X0201650Y0188180D02*
X0142687Y0188180D01*
X0142455Y0187948D02*
X0145150Y0190643D01*
X0145150Y0194453D01*
X0142455Y0197148D01*
X0138645Y0197148D01*
X0135950Y0194453D01*
X0135950Y0190643D01*
X0138645Y0187948D01*
X0142455Y0187948D01*
X0144286Y0189778D02*
X0201650Y0189778D01*
X0201650Y0191377D02*
X0145150Y0191377D01*
X0145150Y0192975D02*
X0201650Y0192975D01*
X0201650Y0194574D02*
X0145030Y0194574D01*
X0143431Y0196172D02*
X0201650Y0196172D01*
X0201650Y0197771D02*
X0095537Y0197771D01*
X0093938Y0199369D02*
X0201650Y0199369D01*
X0201650Y0200968D02*
X0092340Y0200968D01*
X0090100Y0199248D02*
X0013500Y0199248D01*
X0011800Y0197548D01*
X0016800Y0192548D02*
X0034300Y0192548D01*
X0036800Y0195048D01*
X0043500Y0188348D01*
X0101140Y0188348D01*
X0105340Y0192548D01*
X0126800Y0192548D01*
X0130875Y0188180D02*
X0138413Y0188180D01*
X0138361Y0186581D02*
X0131176Y0186581D01*
X0133070Y0184983D02*
X0136762Y0184983D01*
X0136150Y0183384D02*
X0133722Y0183384D01*
X0133734Y0181786D02*
X0136150Y0181786D01*
X0136688Y0180187D02*
X0133123Y0180187D01*
X0131321Y0178589D02*
X0138287Y0178589D01*
X0136814Y0189778D02*
X0133136Y0189778D01*
X0133894Y0191377D02*
X0135950Y0191377D01*
X0135950Y0192975D02*
X0134000Y0192975D01*
X0133540Y0194574D02*
X0136070Y0194574D01*
X0137669Y0196172D02*
X0132281Y0196172D01*
X0121319Y0196172D02*
X0102281Y0196172D01*
X0096800Y0192548D02*
X0090100Y0199248D01*
X0090230Y0184983D02*
X0075871Y0184983D01*
X0076400Y0183384D02*
X0089600Y0183384D01*
X0089600Y0181786D02*
X0076400Y0181786D01*
X0075945Y0180187D02*
X0090199Y0180187D01*
X0088881Y0178589D02*
X0074346Y0178589D01*
X0069254Y0178589D02*
X0049346Y0178589D01*
X0050945Y0180187D02*
X0067655Y0180187D01*
X0067200Y0181786D02*
X0051400Y0181786D01*
X0051400Y0183384D02*
X0067200Y0183384D01*
X0067729Y0184983D02*
X0050871Y0184983D01*
X0042729Y0184983D02*
X0016907Y0184983D01*
X0017500Y0186581D02*
X0041307Y0186581D01*
X0039708Y0188180D02*
X0017500Y0188180D01*
X0016800Y0192548D02*
X0011800Y0187548D01*
X0015697Y0183384D02*
X0042200Y0183384D01*
X0042200Y0181786D02*
X0015324Y0181786D01*
X0016628Y0180187D02*
X0042655Y0180187D01*
X0044254Y0178589D02*
X0017204Y0178589D01*
X0017280Y0176990D02*
X0087282Y0176990D01*
X0085684Y0175392D02*
X0064304Y0175392D01*
X0065377Y0173793D02*
X0084285Y0173793D01*
X0085214Y0174922D02*
X0085214Y0174922D01*
X0086800Y0172548D02*
X0086800Y0152548D01*
X0089415Y0149816D02*
X0090427Y0149816D01*
X0092636Y0148217D02*
X0041429Y0148217D01*
X0043027Y0149816D02*
X0084185Y0149816D01*
X0083177Y0151414D02*
X0044626Y0151414D01*
X0046224Y0153013D02*
X0083019Y0153013D01*
X0083562Y0154611D02*
X0047823Y0154611D01*
X0049421Y0156210D02*
X0084000Y0156210D01*
X0084000Y0157808D02*
X0051020Y0157808D01*
X0052618Y0159407D02*
X0084000Y0159407D01*
X0084000Y0161005D02*
X0054217Y0161005D01*
X0055815Y0162604D02*
X0084000Y0162604D01*
X0084000Y0164202D02*
X0057414Y0164202D01*
X0059012Y0165801D02*
X0084000Y0165801D01*
X0084000Y0167399D02*
X0060611Y0167399D01*
X0063109Y0168998D02*
X0084000Y0168998D01*
X0084000Y0170596D02*
X0065084Y0170596D01*
X0065581Y0172195D02*
X0084000Y0172195D01*
X0086800Y0172548D02*
X0096800Y0182548D01*
X0090029Y0170596D02*
X0089600Y0170596D01*
X0089600Y0168998D02*
X0091245Y0168998D01*
X0091356Y0156210D02*
X0089600Y0156210D01*
X0090038Y0154611D02*
X0090076Y0154611D01*
X0092007Y0146619D02*
X0073952Y0146619D01*
X0073623Y0146948D02*
X0071800Y0146948D01*
X0071800Y0142548D01*
X0071800Y0138148D01*
X0073623Y0138148D01*
X0076200Y0140725D01*
X0076200Y0142548D01*
X0071800Y0142548D01*
X0071800Y0142548D01*
X0071800Y0142548D01*
X0071800Y0138148D01*
X0069977Y0138148D01*
X0067400Y0140725D01*
X0067400Y0142548D01*
X0071800Y0142548D01*
X0071800Y0142548D01*
X0076200Y0142548D01*
X0076200Y0144371D01*
X0073623Y0146948D01*
X0071800Y0146948D02*
X0069977Y0146948D01*
X0067400Y0144371D01*
X0067400Y0142548D01*
X0071800Y0142548D01*
X0071800Y0142548D01*
X0071800Y0146948D01*
X0071800Y0146619D02*
X0071800Y0146619D01*
X0071800Y0145020D02*
X0071800Y0145020D01*
X0071800Y0143421D02*
X0071800Y0143421D01*
X0071800Y0141823D02*
X0071800Y0141823D01*
X0071800Y0140224D02*
X0071800Y0140224D01*
X0071800Y0138626D02*
X0071800Y0138626D01*
X0074100Y0138626D02*
X0091648Y0138626D01*
X0092994Y0137027D02*
X0030239Y0137027D01*
X0028641Y0135429D02*
X0090576Y0135429D01*
X0089752Y0133830D02*
X0027042Y0133830D01*
X0025444Y0132232D02*
X0089600Y0132232D01*
X0090014Y0130633D02*
X0023845Y0130633D01*
X0022247Y0129035D02*
X0091208Y0129035D01*
X0096800Y0125838D02*
X0096800Y0125838D01*
X0096800Y0124239D02*
X0096800Y0124239D01*
X0096800Y0122641D02*
X0096800Y0122641D01*
X0096800Y0121042D02*
X0096800Y0121042D01*
X0096800Y0119444D02*
X0096800Y0119444D01*
X0090063Y0121042D02*
X0086367Y0121042D01*
X0084400Y0122641D02*
X0089800Y0122641D01*
X0090183Y0140224D02*
X0075699Y0140224D01*
X0076200Y0141823D02*
X0089600Y0141823D01*
X0089600Y0143421D02*
X0076200Y0143421D01*
X0075551Y0145020D02*
X0090245Y0145020D01*
X0069648Y0146619D02*
X0048952Y0146619D01*
X0048623Y0146948D02*
X0046800Y0146948D01*
X0046800Y0142548D01*
X0046800Y0138148D01*
X0048623Y0138148D01*
X0051200Y0140725D01*
X0051200Y0142548D01*
X0046800Y0142548D01*
X0046800Y0142548D01*
X0046800Y0142548D01*
X0046800Y0138148D01*
X0044977Y0138148D01*
X0042400Y0140725D01*
X0042400Y0142548D01*
X0046800Y0142548D01*
X0046800Y0142548D01*
X0051200Y0142548D01*
X0051200Y0144371D01*
X0048623Y0146948D01*
X0046800Y0146948D02*
X0044977Y0146948D01*
X0042400Y0144371D01*
X0042400Y0142548D01*
X0046800Y0142548D01*
X0046800Y0142548D01*
X0046800Y0146948D01*
X0046800Y0146619D02*
X0046800Y0146619D01*
X0046800Y0145020D02*
X0046800Y0145020D01*
X0046800Y0143421D02*
X0046800Y0143421D01*
X0046800Y0141823D02*
X0046800Y0141823D01*
X0046800Y0140224D02*
X0046800Y0140224D01*
X0046800Y0138626D02*
X0046800Y0138626D01*
X0049100Y0138626D02*
X0069500Y0138626D01*
X0067901Y0140224D02*
X0050699Y0140224D01*
X0051200Y0141823D02*
X0067400Y0141823D01*
X0067400Y0143421D02*
X0051200Y0143421D01*
X0050551Y0145020D02*
X0068049Y0145020D01*
X0049494Y0164202D02*
X0016515Y0164202D01*
X0017246Y0165801D02*
X0051093Y0165801D01*
X0052691Y0167399D02*
X0017500Y0167399D01*
X0017369Y0168998D02*
X0054290Y0168998D01*
X0055888Y0170596D02*
X0016707Y0170596D01*
X0015214Y0172195D02*
X0057487Y0172195D01*
X0058223Y0173793D02*
X0015823Y0173793D01*
X0016874Y0175392D02*
X0059296Y0175392D01*
X0061800Y0172548D02*
X0017100Y0127848D01*
X0017100Y0100353D01*
X0011800Y0095053D01*
X0011800Y0092548D01*
X0011800Y0095053D01*
X0011600Y0071488D02*
X0012000Y0071488D01*
X0012000Y0069890D02*
X0011600Y0069890D01*
X0011600Y0068291D02*
X0012000Y0068291D01*
X0008800Y0047511D02*
X0087877Y0047511D01*
X0086800Y0046948D02*
X0084977Y0046948D01*
X0082400Y0044371D01*
X0082400Y0042548D01*
X0086800Y0042548D01*
X0086800Y0042548D01*
X0086800Y0046948D01*
X0086800Y0045912D02*
X0086800Y0045912D01*
X0086800Y0044314D02*
X0086800Y0044314D01*
X0086800Y0042715D02*
X0086800Y0042715D01*
X0086800Y0041117D02*
X0086800Y0041117D01*
X0086800Y0039518D02*
X0086800Y0039518D01*
X0083607Y0039518D02*
X0008800Y0039518D01*
X0008800Y0037920D02*
X0097468Y0037920D01*
X0095870Y0039518D02*
X0089993Y0039518D01*
X0091200Y0041117D02*
X0094271Y0041117D01*
X0092673Y0042715D02*
X0091200Y0042715D01*
X0083942Y0045912D02*
X0008800Y0045912D01*
X0008800Y0044314D02*
X0082400Y0044314D01*
X0082400Y0042715D02*
X0008800Y0042715D01*
X0008800Y0041117D02*
X0082400Y0041117D01*
X0089689Y0025145D02*
X0088917Y0024752D01*
X0088217Y0024243D01*
X0087605Y0023631D01*
X0087096Y0022931D01*
X0086703Y0022159D01*
X0086435Y0021336D01*
X0086300Y0020481D01*
X0086300Y0020248D01*
X0091600Y0020248D01*
X0091600Y0019848D01*
X0092000Y0019848D01*
X0092000Y0014548D01*
X0092233Y0014548D01*
X0093088Y0014683D01*
X0093911Y0014951D01*
X0094683Y0015344D01*
X0095383Y0015853D01*
X0095995Y0016465D01*
X0096504Y0017165D01*
X0096897Y0017937D01*
X0097165Y0018760D01*
X0097300Y0019615D01*
X0097300Y0019848D01*
X0092000Y0019848D01*
X0092000Y0020248D01*
X0097300Y0020248D01*
X0097300Y0020481D01*
X0097165Y0021336D01*
X0096897Y0022159D01*
X0096504Y0022931D01*
X0095995Y0023631D01*
X0095383Y0024243D01*
X0094683Y0024752D01*
X0093911Y0025145D01*
X0093088Y0025413D01*
X0092233Y0025548D01*
X0092000Y0025548D01*
X0092000Y0020248D01*
X0091600Y0020248D01*
X0091600Y0025548D01*
X0091367Y0025548D01*
X0090512Y0025413D01*
X0089689Y0025145D01*
X0089662Y0025132D02*
X0074422Y0025132D01*
X0075029Y0024880D02*
X0072934Y0025748D01*
X0070666Y0025748D01*
X0068571Y0024880D01*
X0066968Y0023277D01*
X0066100Y0021182D01*
X0066100Y0018914D01*
X0066968Y0016819D01*
X0068571Y0015216D01*
X0070666Y0014348D01*
X0072934Y0014348D01*
X0075029Y0015216D01*
X0076632Y0016819D01*
X0077500Y0018914D01*
X0077500Y0021182D01*
X0076632Y0023277D01*
X0075029Y0024880D01*
X0076376Y0023533D02*
X0087534Y0023533D01*
X0086630Y0021935D02*
X0077188Y0021935D01*
X0077500Y0020336D02*
X0086300Y0020336D01*
X0086300Y0019848D02*
X0086300Y0019615D01*
X0086435Y0018760D01*
X0086703Y0017937D01*
X0087096Y0017165D01*
X0087605Y0016465D01*
X0088217Y0015853D01*
X0088917Y0015344D01*
X0089689Y0014951D01*
X0090512Y0014683D01*
X0091367Y0014548D01*
X0091600Y0014548D01*
X0091600Y0019848D01*
X0086300Y0019848D01*
X0086443Y0018738D02*
X0077427Y0018738D01*
X0076765Y0017139D02*
X0087115Y0017139D01*
X0088647Y0015541D02*
X0075354Y0015541D01*
X0068246Y0015541D02*
X0051203Y0015541D01*
X0050933Y0015344D02*
X0051633Y0015853D01*
X0052245Y0016465D01*
X0052754Y0017165D01*
X0053147Y0017937D01*
X0053415Y0018760D01*
X0053550Y0019615D01*
X0053550Y0019848D01*
X0048250Y0019848D01*
X0048250Y0014548D01*
X0048483Y0014548D01*
X0049338Y0014683D01*
X0050161Y0014951D01*
X0050933Y0015344D01*
X0052735Y0017139D02*
X0066835Y0017139D01*
X0066173Y0018738D02*
X0053407Y0018738D01*
X0053550Y0020248D02*
X0053550Y0020481D01*
X0053415Y0021336D01*
X0053147Y0022159D01*
X0052754Y0022931D01*
X0052245Y0023631D01*
X0051633Y0024243D01*
X0050933Y0024752D01*
X0050161Y0025145D01*
X0049338Y0025413D01*
X0048483Y0025548D01*
X0048250Y0025548D01*
X0048250Y0020248D01*
X0053550Y0020248D01*
X0053550Y0020336D02*
X0066100Y0020336D01*
X0066412Y0021935D02*
X0053220Y0021935D01*
X0052316Y0023533D02*
X0067224Y0023533D01*
X0069178Y0025132D02*
X0050188Y0025132D01*
X0048250Y0025132D02*
X0047850Y0025132D01*
X0047850Y0025548D02*
X0047617Y0025548D01*
X0046762Y0025413D01*
X0045939Y0025145D01*
X0045167Y0024752D01*
X0044467Y0024243D01*
X0043855Y0023631D01*
X0043346Y0022931D01*
X0042953Y0022159D01*
X0042685Y0021336D01*
X0042550Y0020481D01*
X0042550Y0020248D01*
X0047850Y0020248D01*
X0047850Y0019848D01*
X0048250Y0019848D01*
X0048250Y0020248D01*
X0047850Y0020248D01*
X0047850Y0025548D01*
X0045912Y0025132D02*
X0030672Y0025132D01*
X0031279Y0024880D02*
X0029184Y0025748D01*
X0026916Y0025748D01*
X0024821Y0024880D01*
X0023218Y0023277D01*
X0022350Y0021182D01*
X0022350Y0018914D01*
X0023218Y0016819D01*
X0024821Y0015216D01*
X0026916Y0014348D01*
X0029184Y0014348D01*
X0031279Y0015216D01*
X0032882Y0016819D01*
X0033750Y0018914D01*
X0033750Y0021182D01*
X0032882Y0023277D01*
X0031279Y0024880D01*
X0032626Y0023533D02*
X0043784Y0023533D01*
X0042880Y0021935D02*
X0033438Y0021935D01*
X0033750Y0020336D02*
X0042550Y0020336D01*
X0042550Y0019848D02*
X0042550Y0019615D01*
X0042685Y0018760D01*
X0042953Y0017937D01*
X0043346Y0017165D01*
X0043855Y0016465D01*
X0044467Y0015853D01*
X0045167Y0015344D01*
X0045939Y0014951D01*
X0046762Y0014683D01*
X0047617Y0014548D01*
X0047850Y0014548D01*
X0047850Y0019848D01*
X0042550Y0019848D01*
X0042693Y0018738D02*
X0033677Y0018738D01*
X0033015Y0017139D02*
X0043365Y0017139D01*
X0044897Y0015541D02*
X0031604Y0015541D01*
X0024496Y0015541D02*
X0008800Y0015541D01*
X0008800Y0017139D02*
X0023085Y0017139D01*
X0022423Y0018738D02*
X0008800Y0018738D01*
X0008800Y0020336D02*
X0022350Y0020336D01*
X0022662Y0021935D02*
X0008800Y0021935D01*
X0008800Y0023533D02*
X0023474Y0023533D01*
X0025428Y0025132D02*
X0008800Y0025132D01*
X0008800Y0026730D02*
X0108658Y0026730D01*
X0108161Y0025132D02*
X0093938Y0025132D01*
X0092000Y0025132D02*
X0091600Y0025132D01*
X0091600Y0023533D02*
X0092000Y0023533D01*
X0092000Y0021935D02*
X0091600Y0021935D01*
X0091600Y0020336D02*
X0092000Y0020336D01*
X0092000Y0018738D02*
X0091600Y0018738D01*
X0091600Y0017139D02*
X0092000Y0017139D01*
X0092000Y0015541D02*
X0091600Y0015541D01*
X0094953Y0015541D02*
X0142200Y0015541D01*
X0142200Y0013942D02*
X0008800Y0013942D01*
X0008800Y0012344D02*
X0142999Y0012344D01*
X0144598Y0010745D02*
X0008800Y0010745D01*
X0008800Y0028329D02*
X0107060Y0028329D01*
X0105461Y0029927D02*
X0008800Y0029927D01*
X0008800Y0031526D02*
X0103863Y0031526D01*
X0102264Y0033124D02*
X0008800Y0033124D01*
X0008800Y0034723D02*
X0100666Y0034723D01*
X0099067Y0036321D02*
X0008800Y0036321D01*
X0047850Y0023533D02*
X0048250Y0023533D01*
X0048250Y0021935D02*
X0047850Y0021935D01*
X0047850Y0020336D02*
X0048250Y0020336D01*
X0048250Y0018738D02*
X0047850Y0018738D01*
X0047850Y0017139D02*
X0048250Y0017139D01*
X0048250Y0015541D02*
X0047850Y0015541D01*
X0096066Y0023533D02*
X0107400Y0023533D01*
X0107400Y0021935D02*
X0096970Y0021935D01*
X0097300Y0020336D02*
X0107789Y0020336D01*
X0109388Y0018738D02*
X0097157Y0018738D01*
X0096485Y0017139D02*
X0142386Y0017139D01*
X0139105Y0018738D02*
X0124495Y0018738D01*
X0119105Y0018738D02*
X0114212Y0018738D01*
X0115811Y0020336D02*
X0117507Y0020336D01*
X0117200Y0021935D02*
X0116200Y0021935D01*
X0116200Y0023533D02*
X0117200Y0023533D01*
X0111800Y0021935D02*
X0111800Y0021935D01*
X0111800Y0020336D02*
X0111800Y0020336D01*
X0111800Y0018738D02*
X0111800Y0018738D01*
X0113381Y0029927D02*
X0139000Y0029927D01*
X0139000Y0028329D02*
X0125636Y0028329D01*
X0127235Y0026730D02*
X0139000Y0026730D01*
X0141800Y0022548D02*
X0141800Y0037548D01*
X0146800Y0042548D01*
X0143659Y0045912D02*
X0129600Y0045912D01*
X0129600Y0044314D02*
X0142552Y0044314D01*
X0142200Y0042715D02*
X0129600Y0042715D01*
X0129600Y0041117D02*
X0141409Y0041117D01*
X0139810Y0039518D02*
X0130077Y0039518D01*
X0130581Y0037920D02*
X0139000Y0037920D01*
X0139000Y0036321D02*
X0130384Y0036321D01*
X0129322Y0034723D02*
X0139000Y0034723D01*
X0139000Y0033124D02*
X0110184Y0033124D01*
X0111782Y0031526D02*
X0139000Y0031526D01*
X0151400Y0015541D02*
X0161506Y0015541D01*
X0162631Y0013942D02*
X0151400Y0013942D01*
X0150601Y0012344D02*
X0201650Y0012344D01*
X0201650Y0013942D02*
X0200969Y0013942D01*
X0201650Y0010745D02*
X0149002Y0010745D01*
X0169473Y0013942D02*
X0171062Y0013942D01*
X0176790Y0013942D02*
X0178936Y0013942D01*
X0181800Y0017548D02*
X0164221Y0035127D01*
X0164221Y0041249D01*
X0168456Y0039518D02*
X0179878Y0039518D01*
X0179989Y0039630D02*
X0177848Y0037489D01*
X0176690Y0034692D01*
X0176690Y0031664D01*
X0177848Y0028867D01*
X0179989Y0026726D01*
X0182786Y0025568D01*
X0185814Y0025568D01*
X0188611Y0026726D01*
X0190752Y0028867D01*
X0191910Y0031664D01*
X0191910Y0034692D01*
X0190752Y0037489D01*
X0188611Y0039630D01*
X0185814Y0040788D01*
X0182786Y0040788D01*
X0179989Y0039630D01*
X0178279Y0037920D02*
X0167362Y0037920D01*
X0167021Y0036321D02*
X0177365Y0036321D01*
X0176703Y0034723D02*
X0168585Y0034723D01*
X0170184Y0033124D02*
X0176690Y0033124D01*
X0176747Y0031526D02*
X0171782Y0031526D01*
X0173381Y0029927D02*
X0177409Y0029927D01*
X0178387Y0028329D02*
X0174979Y0028329D01*
X0176578Y0026730D02*
X0179985Y0026730D01*
X0178176Y0025132D02*
X0201650Y0025132D01*
X0201650Y0026730D02*
X0188615Y0026730D01*
X0190213Y0028329D02*
X0201650Y0028329D01*
X0201650Y0029927D02*
X0191191Y0029927D01*
X0191853Y0031526D02*
X0201650Y0031526D01*
X0201650Y0033124D02*
X0191910Y0033124D01*
X0191897Y0034723D02*
X0201650Y0034723D01*
X0201650Y0036321D02*
X0191235Y0036321D01*
X0190321Y0037920D02*
X0201650Y0037920D01*
X0201650Y0039518D02*
X0188722Y0039518D01*
X0201650Y0041117D02*
X0172134Y0041117D01*
X0173200Y0042715D02*
X0201650Y0042715D01*
X0201650Y0044314D02*
X0173520Y0044314D01*
X0173270Y0045912D02*
X0201650Y0045912D01*
X0201650Y0047511D02*
X0172303Y0047511D01*
X0173239Y0049109D02*
X0201650Y0049109D01*
X0201650Y0050708D02*
X0173520Y0050708D01*
X0173231Y0052306D02*
X0201650Y0052306D01*
X0201650Y0053905D02*
X0172208Y0053905D01*
X0168283Y0055503D02*
X0179952Y0055503D01*
X0179989Y0055466D02*
X0182786Y0054308D01*
X0185814Y0054308D01*
X0188611Y0055466D01*
X0190752Y0057607D01*
X0191910Y0060404D01*
X0191910Y0063432D01*
X0190752Y0066229D01*
X0188611Y0068370D01*
X0185814Y0069528D01*
X0182786Y0069528D01*
X0179989Y0068370D01*
X0177848Y0066229D01*
X0176690Y0063432D01*
X0176690Y0060404D01*
X0177848Y0057607D01*
X0179989Y0055466D01*
X0178354Y0057102D02*
X0167154Y0057102D01*
X0164221Y0057102D02*
X0164221Y0057102D01*
X0164221Y0058222D02*
X0164221Y0053847D01*
X0164221Y0053847D01*
X0164221Y0053847D01*
X0164221Y0058222D01*
X0164221Y0055503D02*
X0164221Y0055503D01*
X0164221Y0053905D02*
X0164221Y0053905D01*
X0176733Y0060299D02*
X0150773Y0060299D01*
X0151200Y0060725D02*
X0148623Y0058148D01*
X0146800Y0058148D01*
X0146800Y0062548D01*
X0146800Y0062548D01*
X0146800Y0062548D01*
X0151200Y0062548D01*
X0151200Y0060725D01*
X0151200Y0061897D02*
X0176690Y0061897D01*
X0176716Y0063496D02*
X0151200Y0063496D01*
X0151200Y0064371D02*
X0148623Y0066948D01*
X0146800Y0066948D01*
X0146800Y0062548D01*
X0146800Y0058148D01*
X0144977Y0058148D01*
X0142400Y0060725D01*
X0142400Y0062548D01*
X0146800Y0062548D01*
X0146800Y0062548D01*
X0151200Y0062548D01*
X0151200Y0064371D01*
X0150476Y0065094D02*
X0177378Y0065094D01*
X0178312Y0066693D02*
X0148878Y0066693D01*
X0146800Y0066693D02*
X0146800Y0066693D01*
X0146800Y0066948D02*
X0144977Y0066948D01*
X0142400Y0064371D01*
X0142400Y0062548D01*
X0146800Y0062548D01*
X0146800Y0062548D01*
X0146800Y0066948D01*
X0146800Y0065094D02*
X0146800Y0065094D01*
X0146800Y0063496D02*
X0146800Y0063496D01*
X0146800Y0061897D02*
X0146800Y0061897D01*
X0146800Y0060299D02*
X0146800Y0060299D01*
X0146800Y0058700D02*
X0146800Y0058700D01*
X0149175Y0058700D02*
X0177396Y0058700D01*
X0179911Y0068291D02*
X0131144Y0068291D01*
X0130315Y0067948D02*
X0132006Y0068648D01*
X0133300Y0069942D01*
X0134000Y0071633D01*
X0134000Y0073463D01*
X0133300Y0075154D01*
X0132006Y0076448D01*
X0130315Y0077148D01*
X0123285Y0077148D01*
X0121594Y0076448D01*
X0120300Y0075154D01*
X0119600Y0073463D01*
X0119600Y0071633D01*
X0120300Y0069942D01*
X0121594Y0068648D01*
X0123285Y0067948D01*
X0130315Y0067948D01*
X0131414Y0066693D02*
X0144722Y0066693D01*
X0143124Y0065094D02*
X0133324Y0065094D01*
X0133986Y0063496D02*
X0142400Y0063496D01*
X0142400Y0061897D02*
X0134000Y0061897D01*
X0133447Y0060299D02*
X0142827Y0060299D01*
X0144425Y0058700D02*
X0132058Y0058700D01*
X0122186Y0066693D02*
X0101414Y0066693D01*
X0101144Y0068291D02*
X0122456Y0068291D01*
X0120353Y0069890D02*
X0103247Y0069890D01*
X0103300Y0069942D02*
X0104000Y0071633D01*
X0104000Y0073463D01*
X0103300Y0075154D01*
X0102006Y0076448D01*
X0100315Y0077148D01*
X0093285Y0077148D01*
X0091594Y0076448D01*
X0090300Y0075154D01*
X0089600Y0073463D01*
X0089600Y0071633D01*
X0090300Y0069942D01*
X0091594Y0068648D01*
X0093285Y0067948D01*
X0100315Y0067948D01*
X0102006Y0068648D01*
X0103300Y0069942D01*
X0103940Y0071488D02*
X0119660Y0071488D01*
X0119600Y0073087D02*
X0104000Y0073087D01*
X0103494Y0074686D02*
X0120106Y0074686D01*
X0121431Y0076284D02*
X0102169Y0076284D01*
X0102838Y0079481D02*
X0120762Y0079481D01*
X0119829Y0081080D02*
X0103771Y0081080D01*
X0104000Y0082678D02*
X0119600Y0082678D01*
X0119937Y0084277D02*
X0103663Y0084277D01*
X0102578Y0085875D02*
X0121022Y0085875D01*
X0121171Y0089072D02*
X0102429Y0089072D01*
X0103601Y0090671D02*
X0119999Y0090671D01*
X0119600Y0092269D02*
X0104000Y0092269D01*
X0103832Y0093868D02*
X0119768Y0093868D01*
X0120613Y0095466D02*
X0102987Y0095466D01*
X0091431Y0076284D02*
X0084569Y0076284D01*
X0086168Y0074686D02*
X0090106Y0074686D01*
X0089600Y0073087D02*
X0086400Y0073087D01*
X0086400Y0071488D02*
X0089660Y0071488D01*
X0090353Y0069890D02*
X0085647Y0069890D01*
X0084049Y0068291D02*
X0092456Y0068291D01*
X0102058Y0058700D02*
X0121542Y0058700D01*
X0120153Y0060299D02*
X0103447Y0060299D01*
X0104000Y0061897D02*
X0119600Y0061897D01*
X0119614Y0063496D02*
X0103986Y0063496D01*
X0103324Y0065094D02*
X0120276Y0065094D01*
X0132169Y0076284D02*
X0194758Y0076284D01*
X0193716Y0074686D02*
X0133494Y0074686D01*
X0134000Y0073087D02*
X0193317Y0073087D01*
X0193300Y0072348D02*
X0193300Y0072115D01*
X0193435Y0071260D01*
X0193703Y0070437D01*
X0194096Y0069665D01*
X0194605Y0068965D01*
X0195217Y0068353D01*
X0195917Y0067844D01*
X0196689Y0067451D01*
X0197512Y0067183D01*
X0198367Y0067048D01*
X0198600Y0067048D01*
X0198600Y0072348D01*
X0193300Y0072348D01*
X0193399Y0071488D02*
X0133940Y0071488D01*
X0133247Y0069890D02*
X0193982Y0069890D01*
X0195302Y0068291D02*
X0188689Y0068291D01*
X0190288Y0066693D02*
X0201650Y0066693D01*
X0201650Y0065094D02*
X0191222Y0065094D01*
X0191884Y0063496D02*
X0201650Y0063496D01*
X0201650Y0061897D02*
X0191910Y0061897D01*
X0191867Y0060299D02*
X0201650Y0060299D01*
X0201650Y0058700D02*
X0191204Y0058700D01*
X0190246Y0057102D02*
X0201650Y0057102D01*
X0201650Y0055503D02*
X0188648Y0055503D01*
X0198600Y0068291D02*
X0199000Y0068291D01*
X0199000Y0069890D02*
X0198600Y0069890D01*
X0198600Y0071488D02*
X0199000Y0071488D01*
X0201650Y0023533D02*
X0179775Y0023533D01*
X0183164Y0021935D02*
X0188310Y0021935D01*
X0191038Y0021935D02*
X0195155Y0021935D01*
X0199941Y0021935D02*
X0201650Y0021935D01*
X0194127Y0013942D02*
X0192538Y0013942D01*
X0186810Y0013942D02*
X0184664Y0013942D01*
X0185482Y0020336D02*
X0185992Y0020336D01*
X0126800Y0106656D02*
X0126800Y0106656D01*
X0069313Y0076284D02*
X0062024Y0076284D01*
X0063622Y0074686D02*
X0067715Y0074686D01*
X0067400Y0073087D02*
X0065221Y0073087D01*
X0066819Y0071488D02*
X0067400Y0071488D01*
X0017524Y0132232D02*
X0017500Y0132232D01*
X0017438Y0133830D02*
X0019123Y0133830D01*
X0020721Y0135429D02*
X0016776Y0135429D01*
X0015382Y0137027D02*
X0022320Y0137027D01*
X0023918Y0138626D02*
X0015939Y0138626D01*
X0017007Y0140224D02*
X0025517Y0140224D01*
X0027115Y0141823D02*
X0017500Y0141823D01*
X0017500Y0143421D02*
X0028714Y0143421D01*
X0030312Y0145020D02*
X0016946Y0145020D01*
X0015791Y0146619D02*
X0031911Y0146619D01*
X0033509Y0148217D02*
X0013009Y0148217D01*
X0010591Y0148217D02*
X0008800Y0148217D01*
X0008800Y0149816D02*
X0035108Y0149816D01*
X0036706Y0151414D02*
X0008800Y0151414D01*
X0015326Y0153013D02*
X0038305Y0153013D01*
X0039903Y0154611D02*
X0016753Y0154611D01*
X0017415Y0156210D02*
X0041502Y0156210D01*
X0043100Y0157808D02*
X0017500Y0157808D01*
X0017200Y0159407D02*
X0044699Y0159407D01*
X0046297Y0161005D02*
X0016404Y0161005D01*
X0014758Y0162604D02*
X0047896Y0162604D01*
X0044648Y0146619D02*
X0039830Y0146619D01*
X0038232Y0145020D02*
X0043049Y0145020D01*
X0042400Y0143421D02*
X0036633Y0143421D01*
X0035035Y0141823D02*
X0042400Y0141823D01*
X0042901Y0140224D02*
X0033436Y0140224D01*
X0031838Y0138626D02*
X0044500Y0138626D01*
X0038110Y0189778D02*
X0034930Y0189778D01*
D19*
X0061800Y0172548D03*
X0086800Y0152548D03*
X0071800Y0062548D03*
X0021800Y0062548D03*
X0126800Y0037548D03*
M02*
